# 3ds Max Wavefront OBJ Exporter v0.97b - (c)2007 guruware
# File Created: 20.08.2016 21:27:02

#
# object Sides
#

v  0.4375 0.3442 0.1558
v  0.4375 0.3442 -0.1558
v  0.4375 0.6558 -0.1558
v  0.4375 0.6558 0.1558
v  0.1558 0.3442 -0.4375
v  -0.1558 0.3442 -0.4375
v  -0.1558 0.6558 -0.4375
v  0.1558 0.6558 -0.4375
v  -0.4375 0.3442 -0.1558
v  -0.4375 0.3442 0.1558
v  -0.4375 0.6558 0.1558
v  -0.4375 0.6558 -0.1558
v  0.5000 0.0000 0.4690
v  0.5000 0.0000 -0.4690
v  0.5000 0.2820 -0.1742
v  0.5000 0.2820 0.1742
v  0.4688 1.0000 0.5000
v  0.4688 0.0000 0.5000
v  0.4688 0.3130 0.1870
v  0.4688 0.6870 0.1870
v  0.4779 1.0000 -0.4779
v  0.4688 0.6870 -0.1870
v  0.4779 0.0000 -0.4779
v  0.4688 0.3130 -0.1870
v  0.4690 0.0000 -0.5000
v  -0.4690 0.0000 -0.5000
v  -0.1742 0.2820 -0.5000
v  0.1742 0.2820 -0.5000
v  0.1870 0.3130 -0.4688
v  0.1870 0.6870 -0.4688
v  -0.4779 1.0000 -0.4779
v  -0.1870 0.6870 -0.4688
v  -0.4779 0.0000 -0.4779
v  -0.1870 0.3130 -0.4688
v  -0.5000 0.0000 -0.4690
v  -0.5000 0.0000 0.4690
v  -0.5000 0.2820 0.1742
v  -0.5000 0.2820 -0.1742
v  -0.4688 0.3130 -0.1870
v  -0.4688 0.3130 0.1870
v  -0.4688 0.6870 0.1870
v  -0.4688 0.6870 -0.1870
v  0.4690 0.0000 0.5000
v  0.4690 0.3130 0.1870
v  0.4690 0.3130 -0.1870
v  0.4781 0.0000 -0.4781
v  0.1870 0.3130 -0.4690
v  -0.1870 0.3130 -0.4690
v  -0.4781 0.0000 -0.4781
v  -0.4690 0.3130 -0.1870
v  -0.4690 0.3130 0.1870
v  -0.4690 0.0000 0.5000
v  -0.4688 0.0000 0.5000
v  -0.4688 1.0000 0.5000
# 54 vertices

vn 1.0000 0.0000 -0.0000
vn 0.0000 0.0000 -1.0000
vn -1.0000 0.0000 -0.0000
vn 0.9999 -0.0094 0.0094
vn 0.9996 -0.0292 -0.0000
vn 0.9995 0.0000 0.0314
vn -0.0314 0.0000 -0.9995
vn 0.0000 -0.0292 -0.9996
vn 0.0314 0.0000 -0.9995
vn 0.7071 0.7071 -0.0000
vn 0.7071 0.0000 0.7071
vn 0.7071 -0.7071 -0.0000
vn 0.7071 0.0000 -0.7071
vn 0.0000 0.7071 -0.7071
vn 0.0000 -0.7071 -0.7071
vn -0.7071 0.0000 -0.7071
vn -0.7071 0.7071 -0.0000
vn -0.7071 -0.7071 -0.0000
vn -0.7071 0.0000 0.7071
vn 0.5686 0.5945 0.5686
vn 0.7071 0.5000 0.5000
vn 0.7103 0.5087 -0.4866
vn 0.2887 0.6565 -0.6969
vn 0.6645 0.6948 -0.2752
vn 0.5091 0.4939 -0.7048
vn -0.4866 0.5087 -0.7103
vn -0.6969 0.6565 -0.2887
vn -0.2752 0.6948 -0.6645
vn -0.7048 0.4939 -0.5091
vn -0.7103 0.5087 0.4866
vn -0.5774 0.5774 0.5774
vn -0.9999 -0.0094 0.0094
vn -0.9995 0.0000 0.0314
vn -0.9996 -0.0292 -0.0000
# 34 vertex normals

vt 0.1719 0.6719 0.0000
vt 0.3281 0.6719 0.0000
vt 0.3281 0.8281 0.0000
vt 0.1719 0.8281 0.0000
vt 0.0000 0.4688 0.0000
vt 0.5000 0.4688 0.0000
vt 0.3438 0.6250 0.0000
vt 0.1563 0.6250 0.0000
vt -0.0000 1.0000 0.0000
vt 0.0000 0.5000 0.0000
vt 0.1563 0.6563 0.0000
vt 0.1563 0.8438 0.0000
vt 0.5000 1.0000 0.0000
vt 0.3438 0.8438 0.0000
vt 0.5000 0.5000 0.0000
vt 0.3438 0.6563 0.0000
vt 0.0313 0.0313 0.0000
vt 0.3594 0.0313 0.0000
vt 0.3281 0.0625 0.0000
vt 0.0625 0.0625 0.0000
vt 0.3594 0.3594 0.0000
vt 0.3281 0.3281 0.0000
vt 0.0313 0.3594 0.0000
vt 0.0625 0.3281 0.0000
vt 0.4219 0.1094 0.0000
vt 0.4375 0.0781 0.0000
vt 0.7344 0.0781 0.0000
vt 0.7500 0.1094 0.0000
vt 0.4219 0.0625 0.0000
vt 0.4300 0.0313 0.0000
vt 0.6637 0.0313 0.0000
vt 0.6719 0.0625 0.0000
# 32 texture coords

g Sides
s 16
f 1/1/1 2/2/1 3/3/1 
f 3/3/1 4/4/1 1/1/1 
s 32
f 5/1/2 6/2/2 7/3/2 
f 7/3/2 8/4/2 5/1/2 
s 64
f 9/1/3 10/2/3 11/3/3 
f 11/3/3 12/4/3 9/1/3 
s off
f 13/5/1 14/6/1 15/7/1 
f 15/7/1 16/8/1 13/5/1 
f 17/9/1 18/10/1 19/11/1 
f 17/9/1 19/11/1 20/12/1 
f 21/13/4 17/9/4 20/12/4 
f 21/13/5 20/12/5 22/14/5 
f 23/15/6 21/13/6 22/14/6 
f 23/15/6 22/14/6 24/16/6 
f 25/5/2 26/6/2 27/7/2 
f 27/7/2 28/8/2 25/5/2 
f 21/9/7 23/10/7 29/11/7 
f 21/9/7 29/11/7 30/12/7 
f 31/13/8 21/9/8 30/12/8 
f 31/13/8 30/12/8 32/14/8 
f 33/15/9 31/13/9 32/14/9 
f 33/15/9 32/14/9 34/16/9 
f 35/5/3 36/6/3 37/7/3 
f 37/7/3 38/8/3 35/5/3 
f 19/17/10 24/18/10 2/19/10 
f 2/19/10 1/20/10 19/17/10 
f 24/18/11 22/21/11 3/22/11 
f 3/22/11 2/19/11 24/18/11 
f 22/21/12 20/23/12 4/24/12 
f 4/24/12 3/22/12 22/21/12 
f 20/23/13 19/17/13 1/20/13 
f 1/20/13 4/24/13 20/23/13 
f 29/17/14 34/18/14 6/19/14 
f 6/19/14 5/20/14 29/17/14 
f 34/18/13 32/21/13 7/22/13 
f 7/22/13 6/19/13 34/18/13 
f 32/21/15 30/23/15 8/24/15 
f 8/24/15 7/22/15 32/21/15 
f 30/23/16 29/17/16 5/20/16 
f 5/20/16 8/24/16 30/23/16 
f 39/17/17 40/18/17 10/19/17 
f 10/19/17 9/20/17 39/17/17 
f 40/18/16 41/21/16 11/22/16 
f 11/22/16 10/19/16 40/18/16 
f 41/21/18 42/23/18 12/24/18 
f 12/24/18 11/22/18 41/21/18 
f 42/23/19 39/17/19 9/20/19 
f 9/20/19 12/24/19 42/23/19 
f 43/25/20 13/26/20 16/27/20 
f 16/27/21 44/28/21 43/25/21 
f 45/25/22 15/26/22 14/27/22 
f 14/27/23 46/28/23 45/25/23 
f 44/29/10 16/30/10 15/31/10 
f 15/31/10 45/32/10 44/29/10 
f 46/25/24 25/26/24 28/27/24 
f 28/27/25 47/28/25 46/25/25 
f 48/25/26 27/26/26 26/27/26 
f 26/27/27 49/28/27 48/25/27 
f 47/29/14 28/30/14 27/31/14 
f 27/31/14 48/32/14 47/29/14 
f 49/25/28 35/26/28 38/27/28 
f 38/27/29 50/28/29 49/25/29 
f 51/25/30 37/26/30 36/27/30 
f 36/27/31 52/28/31 51/25/31 
f 50/29/17 38/30/17 37/31/17 
f 37/31/17 51/32/17 50/29/17 
f 41/15/3 40/13/3 53/9/3 
f 41/15/3 53/9/3 54/10/3 
f 41/15/32 54/10/32 31/11/32 
f 31/11/33 33/12/33 39/14/33 
f 31/11/33 39/14/33 42/16/33 
f 41/15/34 31/11/34 42/16/34 
# 72 faces

#
# object Front
#

v  -0.4688 0.0000 0.5000
v  0.4688 0.0000 0.5000
v  0.4688 1.0000 0.5000
v  -0.4688 1.0000 0.5000
# 4 vertices

vn 0.0000 0.0000 1.0000
# 1 vertex normals

vt 0.0000 0.0000 0.0000
vt 1.0000 0.0000 0.0000
vt 1.0000 1.0000 0.0000
vt 0.0000 1.0000 0.0000
# 4 texture coords

g Front
s 2
f 55/33/35 56/34/35 57/35/35 
f 57/35/35 58/36/35 55/33/35 
# 2 faces

#
# object TopBottom
#

v  -0.4688 1.0000 0.5000
v  0.4688 1.0000 0.5000
v  0.4779 1.0000 -0.4779
v  -0.4779 1.0000 -0.4779
v  0.5000 0.0000 -0.4690
v  0.5000 0.0000 0.4690
v  0.4690 0.0000 0.5000
v  -0.4690 0.0000 0.5000
v  -0.5000 0.0000 0.4690
v  -0.5000 0.0000 -0.4690
v  -0.4688 0.0000 0.5000
v  -0.4690 0.0000 -0.5000
v  0.4690 0.0000 -0.5000
v  0.4781 0.0000 -0.4781
v  -0.4781 0.0000 -0.4781
# 15 vertices

vn 0.0000 1.0000 -0.0000
vn 0.0000 -1.0000 -0.0000
# 2 vertex normals

vt 0.0313 1.0000 0.0000
vt 0.9688 1.0000 0.0000
vt 0.9688 0.0313 0.0000
vt 0.0313 0.0313 0.0000
vt 1.0000 0.0313 0.0000
vt 1.0000 0.9688 0.0000
vt 0.0310 1.0000 0.0000
vt 0.0000 0.9688 0.0000
vt -0.0000 0.0313 0.0000
vt 0.0313 0.0000 0.0000
vt 0.9688 -0.0000 0.0000
vt 0.9781 0.0219 0.0000
vt 0.0219 0.0219 0.0000
# 13 texture coords

g TopBottom
s 1
f 59/37/36 60/38/36 61/39/36 
f 61/39/36 62/40/36 59/37/36 
s 2
f 63/41/37 64/42/37 65/38/37 
f 66/43/37 67/44/37 68/45/37 
f 69/37/37 66/43/37 68/45/37 
f 65/38/37 69/37/37 68/45/37 
f 70/46/37 71/47/37 72/48/37 
f 73/49/37 70/46/37 72/48/37 
f 68/45/37 73/49/37 72/48/37 
f 65/38/37 68/45/37 72/48/37 
f 63/41/37 65/38/37 72/48/37 
# 11 faces

