# 3ds Max Wavefront OBJ Exporter v0.97b - (c)2007 guruware
# File Created: 30.08.2015 20:33:48

#
# object Sphere001
#

v  0.0000 0.9500 -0.0000
v  -0.0000 0.9054 -0.1952
v  -0.0847 0.9054 -0.1759
v  -0.1527 0.9054 -0.1217
v  -0.1904 0.9054 -0.0434
v  -0.1904 0.9054 0.0434
v  -0.1527 0.9054 0.1217
v  -0.0847 0.9054 0.1759
v  0.0000 0.9054 0.1952
v  0.0847 0.9054 0.1759
v  0.1527 0.9054 0.1217
v  0.1904 0.9054 0.0434
v  0.1904 0.9054 -0.0434
v  0.1527 0.9054 -0.1217
v  0.0847 0.9054 -0.1759
v  -0.0000 0.7806 -0.3518
v  -0.1527 0.7806 -0.3170
v  -0.2751 0.7806 -0.2194
v  -0.3430 0.7806 -0.0783
v  -0.3430 0.7806 0.0783
v  -0.2751 0.7806 0.2194
v  -0.1527 0.7806 0.3170
v  0.0000 0.7806 0.3518
v  0.1527 0.7806 0.3170
v  0.2751 0.7806 0.2194
v  0.3430 0.7806 0.0783
v  0.3430 0.7806 -0.0783
v  0.2751 0.7806 -0.2194
v  0.1527 0.7806 -0.3170
v  -0.0000 0.6001 -0.4387
v  -0.1904 0.6001 -0.3953
v  -0.3430 0.6001 -0.2735
v  -0.4277 0.6001 -0.0976
v  -0.4277 0.6001 0.0976
v  -0.3430 0.6001 0.2735
v  -0.1904 0.6001 0.3953
v  0.0000 0.6001 0.4387
v  0.1904 0.6001 0.3953
v  0.3430 0.6001 0.2735
v  0.4277 0.6001 0.0976
v  0.4277 0.6001 -0.0976
v  0.3430 0.6001 -0.2735
v  0.1904 0.6001 -0.3953
v  -0.0000 0.3999 -0.4387
v  -0.1904 0.3999 -0.3953
v  -0.3430 0.3999 -0.2735
v  -0.4277 0.3999 -0.0976
v  -0.4277 0.3999 0.0976
v  -0.3430 0.3999 0.2735
v  -0.1904 0.3999 0.3953
v  0.0000 0.3999 0.4387
v  0.1904 0.3999 0.3953
v  0.3430 0.3999 0.2735
v  0.4277 0.3999 0.0976
v  0.4277 0.3999 -0.0976
v  0.3430 0.3999 -0.2735
v  0.1904 0.3999 -0.3953
v  -0.0000 0.2194 -0.3518
v  -0.1527 0.2194 -0.3170
v  -0.2751 0.2194 -0.2194
v  -0.3430 0.2194 -0.0783
v  -0.3430 0.2194 0.0783
v  -0.2751 0.2194 0.2194
v  -0.1527 0.2194 0.3170
v  0.0000 0.2194 0.3518
v  0.1527 0.2194 0.3170
v  0.2751 0.2194 0.2194
v  0.3430 0.2194 0.0783
v  0.3430 0.2194 -0.0783
v  0.2751 0.2194 -0.2194
v  0.1527 0.2194 -0.3170
v  -0.0000 0.0946 -0.1952
v  -0.0847 0.0946 -0.1759
v  -0.1527 0.0946 -0.1217
v  -0.1904 0.0946 -0.0434
v  -0.1904 0.0946 0.0434
v  -0.1527 0.0946 0.1217
v  -0.0847 0.0946 0.1759
v  0.0000 0.0946 0.1952
v  0.0847 0.0946 0.1759
v  0.1527 0.0946 0.1217
v  0.1904 0.0946 0.0434
v  0.1904 0.0946 -0.0434
v  0.1527 0.0946 -0.1217
v  0.0847 0.0946 -0.1759
v  0.0000 0.0500 -0.0000
# 86 vertices

vn -0.0507 0.9737 -0.2222
vn -0.1421 0.9737 -0.1782
vn -0.2054 0.9737 -0.0989
vn -0.2279 0.9737 -0.0000
vn -0.2054 0.9737 0.0989
vn -0.1421 0.9737 0.1782
vn -0.0507 0.9737 0.2222
vn 0.0507 0.9737 0.2222
vn 0.1421 0.9737 0.1782
vn 0.2054 0.9737 0.0989
vn 0.2279 0.9737 -0.0000
vn 0.2054 0.9737 -0.0989
vn 0.1421 0.9737 -0.1782
vn 0.0507 0.9737 -0.2222
vn -0.1409 0.7740 -0.6173
vn -0.3948 0.7740 -0.4950
vn -0.5704 0.7740 -0.2747
vn -0.6331 0.7740 -0.0000
vn -0.5704 0.7740 0.2747
vn -0.3948 0.7740 0.4950
vn -0.1409 0.7740 0.6173
vn 0.1409 0.7740 0.6173
vn 0.3948 0.7740 0.4950
vn 0.5704 0.7740 0.2747
vn 0.6331 0.7740 -0.0000
vn 0.5704 0.7740 -0.2747
vn 0.3948 0.7740 -0.4950
vn 0.1409 0.7740 -0.6173
vn -0.2014 0.4250 -0.8825
vn -0.5644 0.4250 -0.7077
vn -0.8156 0.4250 -0.3928
vn -0.9052 0.4250 -0.0000
vn -0.8156 0.4250 0.3928
vn -0.5644 0.4250 0.7077
vn -0.2014 0.4250 0.8825
vn 0.2014 0.4250 0.8825
vn 0.5644 0.4250 0.7077
vn 0.8156 0.4250 0.3928
vn 0.9052 0.4250 -0.0000
vn 0.8156 0.4250 -0.3928
vn 0.5644 0.4250 -0.7077
vn 0.2014 0.4250 -0.8825
vn -0.2225 0.0000 -0.9749
vn -0.6235 0.0000 -0.7818
vn -0.9010 0.0000 -0.4339
vn -1.0000 0.0000 -0.0000
vn -0.9010 0.0000 0.4339
vn -0.6235 0.0000 0.7818
vn -0.2225 0.0000 0.9749
vn 0.2225 0.0000 0.9749
vn 0.6235 0.0000 0.7818
vn 0.9010 0.0000 0.4339
vn 1.0000 0.0000 -0.0000
vn 0.9010 0.0000 -0.4339
vn 0.6235 0.0000 -0.7818
vn 0.2225 0.0000 -0.9749
vn -0.2014 -0.4250 -0.8825
vn -0.5644 -0.4250 -0.7077
vn -0.8156 -0.4250 -0.3928
vn -0.9052 -0.4250 -0.0000
vn -0.8156 -0.4250 0.3928
vn -0.5644 -0.4250 0.7077
vn -0.2014 -0.4250 0.8825
vn 0.2014 -0.4250 0.8825
vn 0.5644 -0.4250 0.7077
vn 0.8156 -0.4250 0.3928
vn 0.9052 -0.4250 -0.0000
vn 0.8156 -0.4250 -0.3928
vn 0.5644 -0.4250 -0.7077
vn 0.2014 -0.4250 -0.8825
vn -0.1409 -0.7740 -0.6173
vn -0.3948 -0.7740 -0.4950
vn -0.5704 -0.7740 -0.2747
vn -0.6331 -0.7740 -0.0000
vn -0.5704 -0.7740 0.2747
vn -0.3948 -0.7740 0.4950
vn -0.1409 -0.7740 0.6173
vn 0.1409 -0.7740 0.6173
vn 0.3948 -0.7740 0.4950
vn 0.5704 -0.7740 0.2747
vn 0.6331 -0.7740 -0.0000
vn 0.5704 -0.7740 -0.2747
vn 0.3948 -0.7740 -0.4950
vn 0.1409 -0.7740 -0.6173
vn -0.0507 -0.9737 -0.2222
vn -0.1421 -0.9737 -0.1782
vn -0.2054 -0.9737 -0.0989
vn -0.2279 -0.9737 -0.0000
vn -0.2054 -0.9737 0.0989
vn -0.1421 -0.9737 0.1782
vn -0.0507 -0.9737 0.2222
vn 0.0507 -0.9737 0.2222
vn 0.1421 -0.9737 0.1782
vn 0.2054 -0.9737 0.0989
vn 0.2279 -0.9737 -0.0000
vn 0.2054 -0.9737 -0.0989
vn 0.1421 -0.9737 -0.1782
vn 0.0507 -0.9737 -0.2222
# 98 vertex normals

vt 0.7500 0.2500 0.0000
vt 0.7500 0.3748 0.0000
vt 0.6945 0.3625 0.0000
vt 0.6500 0.3278 0.0000
vt 0.6253 0.2778 0.0000
vt 0.6253 0.2222 0.0000
vt 0.6500 0.1722 0.0000
vt 0.6945 0.1376 0.0000
vt 0.7500 0.1252 0.0000
vt 0.8055 0.1376 0.0000
vt 0.8501 0.1722 0.0000
vt 0.8748 0.2222 0.0000
vt 0.8748 0.2778 0.0000
vt 0.8501 0.3278 0.0000
vt 0.8055 0.3625 0.0000
vt 0.8576 0.5003 0.9112
vt 0.8576 0.5957 0.8700
vt 0.8211 0.5963 0.8082
vt 0.8211 0.5007 0.8522
vt 0.7853 0.5974 0.7497
vt 0.7853 0.5016 0.7966
vt 0.7501 0.5983 0.6947
vt 0.7501 0.5022 0.7447
vt 0.7153 0.5983 0.6426
vt 0.7153 0.5022 0.6964
vt 0.6801 0.5974 0.5930
vt 0.6801 0.5016 0.6513
vt 0.6443 0.5963 0.5470
vt 0.6443 0.5007 0.6101
vt 0.6078 0.5957 0.5069
vt 0.6078 0.5003 0.5747
vt 0.5713 0.5963 0.4756
vt 0.5713 0.5007 0.5470
vt 0.5354 0.5974 0.4548
vt 0.5354 0.5016 0.5285
vt 0.5003 0.5983 0.4447
vt 0.5003 0.5022 0.5194
vt 1.0000 0.5022 0.5194
vt 1.0000 0.5983 0.4447
vt 0.9651 0.5983 1.0621
vt 0.9651 0.5022 1.0955
vt 0.9300 0.5974 0.9983
vt 0.9300 0.5016 1.0339
vt 0.8941 0.5963 0.9339
vt 0.8941 0.5007 0.9723
vt 0.8576 0.6976 0.8698
vt 0.8211 0.6979 0.8079
vt 0.7853 0.6984 0.7492
vt 0.7501 0.6988 0.6940
vt 0.7153 0.6988 0.6419
vt 0.6801 0.6984 0.5924
vt 0.6443 0.6979 0.5466
vt 0.6078 0.6976 0.5066
vt 0.5713 0.6979 0.4751
vt 0.5354 0.6984 0.4540
vt 0.5003 0.6988 0.4437
vt 1.0000 0.6988 0.4437
vt 0.9651 0.6988 1.0617
vt 0.9300 0.6984 0.9979
vt 0.8941 0.6979 0.9337
vt 0.8576 0.8026 0.9543
vt 0.8211 0.8024 0.8979
vt 0.7853 0.8019 0.8445
vt 0.7501 0.8014 0.7952
vt 0.7153 0.8014 0.7501
vt 0.6801 0.8019 0.7091
vt 0.6443 0.8024 0.6725
vt 0.6078 0.8026 0.6409
vt 0.5713 0.8024 0.6158
vt 0.5354 0.8019 0.5983
vt 0.5003 0.8014 0.5894
vt 1.0000 0.8014 0.5894
vt 0.9651 0.8014 1.1304
vt 0.9300 0.8019 1.0713
vt 0.8941 0.8024 1.0125
vt 0.8576 0.9045 1.1001
vt 0.8211 0.9040 1.0511
vt 0.7853 0.9028 1.0052
vt 0.7501 0.9019 0.9635
vt 0.7153 0.9019 0.9266
vt 0.6801 0.9028 0.8944
vt 0.6443 0.9040 0.8666
vt 0.6078 0.9045 0.8427
vt 0.5713 0.9040 0.8234
vt 0.5354 0.9028 0.8094
vt 0.5003 0.9019 0.8021
vt 1.0000 0.9019 0.8021
vt 0.9651 0.9019 1.2545
vt 0.9300 0.9028 1.2020
vt 0.8941 0.9040 1.1506
vt 0.8576 1.0000 1.2505
vt 0.8211 0.9996 1.2077
vt 0.7853 0.9987 1.1680
vt 0.7501 0.9980 1.1324
vt 0.7153 0.9980 1.1012
vt 0.6801 0.9987 1.0742
vt 0.6443 0.9996 1.0510
vt 0.6078 1.0000 1.0314
vt 0.5713 0.9996 1.0156
vt 0.5354 0.9987 1.0045
vt 0.5003 0.9980 0.9987
vt 1.0000 0.9980 0.9987
vt 0.9651 0.9980 1.3884
vt 0.9300 0.9987 1.3411
vt 0.8941 0.9996 1.2952
# 105 texture coords

g Sphere001
s off
f 1/1/1 2/2/1 3/3/1 
f 1/1/2 3/3/2 4/4/2 
f 1/1/3 4/4/3 5/5/3 
f 1/1/4 5/5/4 6/6/4 
f 1/1/5 6/6/5 7/7/5 
f 1/1/6 7/7/6 8/8/6 
f 1/1/7 8/8/7 9/9/7 
f 1/1/8 9/9/8 10/10/8 
f 1/1/9 10/10/9 11/11/9 
f 1/1/10 11/11/10 12/12/10 
f 1/1/11 12/12/11 13/13/11 
f 1/1/12 13/13/12 14/14/12 
f 1/1/13 14/14/13 15/15/13 
f 1/1/14 15/15/14 2/2/14 
f 2/16/15 16/17/15 17/18/15 
f 2/16/15 17/18/15 3/19/15 
f 3/19/16 17/18/16 18/20/16 
f 3/19/16 18/20/16 4/21/16 
f 4/21/17 18/20/17 19/22/17 
f 4/21/17 19/22/17 5/23/17 
f 5/23/18 19/22/18 20/24/18 
f 5/23/18 20/24/18 6/25/18 
f 6/25/19 20/24/19 21/26/19 
f 6/25/19 21/26/19 7/27/19 
f 7/27/20 21/26/20 22/28/20 
f 7/27/20 22/28/20 8/29/20 
f 8/29/21 22/28/21 23/30/21 
f 8/29/21 23/30/21 9/31/21 
f 9/31/22 23/30/22 24/32/22 
f 9/31/22 24/32/22 10/33/22 
f 10/33/23 24/32/23 25/34/23 
f 10/33/23 25/34/23 11/35/23 
f 11/35/24 25/34/24 26/36/24 
f 11/35/24 26/36/24 12/37/24 
f 12/38/25 26/39/25 27/40/25 
f 12/38/25 27/40/25 13/41/25 
f 13/41/26 27/40/26 28/42/26 
f 13/41/26 28/42/26 14/43/26 
f 14/43/27 28/42/27 29/44/27 
f 14/43/27 29/44/27 15/45/27 
f 15/45/28 29/44/28 16/17/28 
f 15/45/28 16/17/28 2/16/28 
f 16/17/29 30/46/29 31/47/29 
f 16/17/29 31/47/29 17/18/29 
f 17/18/30 31/47/30 32/48/30 
f 17/18/30 32/48/30 18/20/30 
f 18/20/31 32/48/31 33/49/31 
f 18/20/31 33/49/31 19/22/31 
f 19/22/32 33/49/32 34/50/32 
f 19/22/32 34/50/32 20/24/32 
f 20/24/33 34/50/33 35/51/33 
f 20/24/33 35/51/33 21/26/33 
f 21/26/34 35/51/34 36/52/34 
f 21/26/34 36/52/34 22/28/34 
f 22/28/35 36/52/35 37/53/35 
f 22/28/35 37/53/35 23/30/35 
f 23/30/36 37/53/36 38/54/36 
f 23/30/36 38/54/36 24/32/36 
f 24/32/37 38/54/37 39/55/37 
f 24/32/37 39/55/37 25/34/37 
f 25/34/38 39/55/38 40/56/38 
f 25/34/38 40/56/38 26/36/38 
f 26/39/39 40/57/39 41/58/39 
f 26/39/39 41/58/39 27/40/39 
f 27/40/40 41/58/40 42/59/40 
f 27/40/40 42/59/40 28/42/40 
f 28/42/41 42/59/41 43/60/41 
f 28/42/41 43/60/41 29/44/41 
f 29/44/42 43/60/42 30/46/42 
f 29/44/42 30/46/42 16/17/42 
f 30/46/43 44/61/43 45/62/43 
f 30/46/43 45/62/43 31/47/43 
f 31/47/44 45/62/44 46/63/44 
f 31/47/44 46/63/44 32/48/44 
f 32/48/45 46/63/45 47/64/45 
f 32/48/45 47/64/45 33/49/45 
f 33/49/46 47/64/46 48/65/46 
f 33/49/46 48/65/46 34/50/46 
f 34/50/47 48/65/47 49/66/47 
f 34/50/47 49/66/47 35/51/47 
f 35/51/48 49/66/48 50/67/48 
f 35/51/48 50/67/48 36/52/48 
f 36/52/49 50/67/49 51/68/49 
f 36/52/49 51/68/49 37/53/49 
f 37/53/50 51/68/50 52/69/50 
f 37/53/50 52/69/50 38/54/50 
f 38/54/51 52/69/51 53/70/51 
f 38/54/51 53/70/51 39/55/51 
f 39/55/52 53/70/52 54/71/52 
f 39/55/52 54/71/52 40/56/52 
f 40/57/53 54/72/53 55/73/53 
f 40/57/53 55/73/53 41/58/53 
f 41/58/54 55/73/54 56/74/54 
f 41/58/54 56/74/54 42/59/54 
f 42/59/55 56/74/55 57/75/55 
f 42/59/55 57/75/55 43/60/55 
f 43/60/56 57/75/56 44/61/56 
f 43/60/56 44/61/56 30/46/56 
f 44/61/57 58/76/57 59/77/57 
f 44/61/57 59/77/57 45/62/57 
f 45/62/58 59/77/58 60/78/58 
f 45/62/58 60/78/58 46/63/58 
f 46/63/59 60/78/59 61/79/59 
f 46/63/59 61/79/59 47/64/59 
f 47/64/60 61/79/60 62/80/60 
f 47/64/60 62/80/60 48/65/60 
f 48/65/61 62/80/61 63/81/61 
f 48/65/61 63/81/61 49/66/61 
f 49/66/62 63/81/62 64/82/62 
f 49/66/62 64/82/62 50/67/62 
f 50/67/63 64/82/63 65/83/63 
f 50/67/63 65/83/63 51/68/63 
f 51/68/64 65/83/64 66/84/64 
f 51/68/64 66/84/64 52/69/64 
f 52/69/65 66/84/65 67/85/65 
f 52/69/65 67/85/65 53/70/65 
f 53/70/66 67/85/66 68/86/66 
f 53/70/66 68/86/66 54/71/66 
f 54/72/67 68/87/67 69/88/67 
f 54/72/67 69/88/67 55/73/67 
f 55/73/68 69/88/68 70/89/68 
f 55/73/68 70/89/68 56/74/68 
f 56/74/69 70/89/69 71/90/69 
f 56/74/69 71/90/69 57/75/69 
f 57/75/70 71/90/70 58/76/70 
f 57/75/70 58/76/70 44/61/70 
f 58/76/71 72/91/71 73/92/71 
f 58/76/71 73/92/71 59/77/71 
f 59/77/72 73/92/72 74/93/72 
f 59/77/72 74/93/72 60/78/72 
f 60/78/73 74/93/73 75/94/73 
f 60/78/73 75/94/73 61/79/73 
f 61/79/74 75/94/74 76/95/74 
f 61/79/74 76/95/74 62/80/74 
f 62/80/75 76/95/75 77/96/75 
f 62/80/75 77/96/75 63/81/75 
f 63/81/76 77/96/76 78/97/76 
f 63/81/76 78/97/76 64/82/76 
f 64/82/77 78/97/77 79/98/77 
f 64/82/77 79/98/77 65/83/77 
f 65/83/78 79/98/78 80/99/78 
f 65/83/78 80/99/78 66/84/78 
f 66/84/79 80/99/79 81/100/79 
f 66/84/79 81/100/79 67/85/79 
f 67/85/80 81/100/80 82/101/80 
f 67/85/80 82/101/80 68/86/80 
f 68/87/81 82/102/81 83/103/81 
f 68/87/81 83/103/81 69/88/81 
f 69/88/82 83/103/82 84/104/82 
f 69/88/82 84/104/82 70/89/82 
f 70/89/83 84/104/83 85/105/83 
f 70/89/83 85/105/83 71/90/83 
f 71/90/84 85/105/84 72/91/84 
f 71/90/84 72/91/84 58/76/84 
f 86/1/85 73/3/85 72/2/85 
f 86/1/86 74/4/86 73/3/86 
f 86/1/87 75/5/87 74/4/87 
f 86/1/88 76/6/88 75/5/88 
f 86/1/89 77/7/89 76/6/89 
f 86/1/90 78/8/90 77/7/90 
f 86/1/91 79/9/91 78/8/91 
f 86/1/92 80/10/92 79/9/92 
f 86/1/93 81/11/93 80/10/93 
f 86/1/94 82/12/94 81/11/94 
f 86/1/95 83/13/95 82/12/95 
f 86/1/96 84/14/96 83/13/96 
f 86/1/97 85/15/97 84/14/97 
f 86/1/98 72/2/98 85/15/98 
# 168 faces

#
# object Box001
#

v  0.3750 0.0000 0.3750
v  -0.5000 0.0000 0.5000
v  -0.3750 0.0000 0.3750
v  -0.3750 1.0000 -0.3750
v  -0.5000 1.0000 0.5000
v  -0.3750 1.0000 0.3750
v  0.5000 0.1250 0.3750
v  0.5000 0.0000 -0.5000
v  0.5000 0.1250 -0.3750
v  -0.5000 0.8750 -0.3750
v  -0.5000 0.8750 0.3750
v  -0.3750 0.1250 0.5000
v  0.5000 0.0000 0.5000
v  0.3750 0.1250 0.5000
v  -0.5000 1.0000 -0.5000
v  0.3750 0.8750 -0.5000
v  -0.3750 0.8750 -0.5000
v  -0.3750 0.1250 0.3750
v  0.3750 0.1250 0.3750
v  -0.3750 0.8750 0.3750
v  0.3750 0.8750 0.5000
v  -0.3750 0.8750 0.5000
v  0.3750 0.1250 -0.3750
v  -0.3750 0.1250 -0.5000
v  -0.3750 0.1250 -0.3750
v  0.3750 0.8750 -0.3750
v  -0.3750 0.0000 -0.3750
v  0.3750 0.0000 -0.3750
v  0.3750 1.0000 -0.3750
v  0.3750 1.0000 0.3750
v  -0.3750 0.8750 -0.3750
v  0.3750 0.8750 0.3750
v  0.5000 0.8750 0.3750
v  -0.5000 0.1250 0.3750
v  -0.5000 0.1250 -0.3750
v  -0.5000 0.0000 -0.5000
v  0.5000 1.0000 0.5000
v  0.5000 1.0000 -0.5000
v  0.5000 0.8750 -0.3750
v  0.3750 0.1250 -0.5000
# 40 vertices

vn 0.0000 -1.0000 -0.0000
vn 0.0000 1.0000 -0.0000
vn 1.0000 0.0000 -0.0000
vn -1.0000 0.0000 -0.0000
vn 0.0000 0.0000 1.0000
vn 0.0000 0.0000 -1.0000
vn 0.5774 -0.5774 -0.5774
vn -0.5774 -0.5774 0.5774
vn 0.0000 -0.7071 0.7071
vn 0.0000 -0.7071 -0.7071
vn 0.5774 -0.5774 0.5774
vn -0.5774 -0.5774 -0.5774
# 12 vertex normals

vt 0.4375 0.5625 0.0000
vt 0.0000 0.5000 0.0000
vt 0.0625 0.5625 0.0000
vt 0.0625 0.9375 0.0000
vt 0.0000 1.0000 0.0000
vt 0.4375 0.9375 0.0000
vt 0.5000 1.0000 0.0000
vt 0.5000 0.5000 0.0000
vt 0.0625 0.4063 0.0000
vt 0.4375 0.4688 0.0000
vt 0.0625 0.4688 0.0000
vt 0.4375 0.4063 0.0000
# 12 texture coords

g Box001
s 2
f 87/106/99 88/107/99 89/108/99 
s 4
f 90/109/100 91/107/100 92/108/100 
s 16
f 93/110/101 94/111/101 95/112/101 
s 64
f 91/112/102 96/109/102 97/110/102 
s 8
f 98/108/103 99/113/103 100/106/103 
s 32
f 101/106/104 102/107/104 103/108/104 
s 2
f 104/114/100 100/115/100 105/116/100 
s 1
f 106/116/105 107/117/99 108/115/99 
s 2
f 109/115/100 110/114/100 111/117/100 
s 1
f 112/115/106 103/114/99 102/117/99 
f 109/115/103 113/114/103 114/117/103 
f 104/115/104 87/114/104 89/117/104 
s 2
f 90/114/103 112/115/107 115/116/103 
f 116/114/104 106/115/108 92/116/104 
s 4
f 105/116/102 114/117/102 87/115/102 
f 89/115/101 111/114/101 104/117/101 
s 1
f 112/117/106 116/116/102 115/114/102 
f 90/114/101 106/115/105 117/116/109 
s 4
f 118/117/102 100/116/102 107/114/102 
f 108/115/101 104/114/101 106/117/101 
f 102/116/102 109/117/102 112/115/102 
f 117/117/101 110/116/101 103/114/101 
s 1
f 95/116/103 112/117/106 109/115/103 
s 2
f 95/117/100 105/116/100 93/114/100 
s 1
f 119/115/104 105/114/104 118/117/110 
s 2
f 112/116/107 119/117/99 118/115/108 
f 106/117/108 96/116/99 117/114/107 
s 1
f 120/116/104 106/117/105 104/115/104 
s 2
f 120/116/100 111/117/100 121/115/100 
s 1
f 96/115/103 111/114/103 117/117/109 
s 2
f 122/110/99 89/108/99 88/107/99 
f 122/110/99 113/109/99 89/108/99 
f 94/112/99 113/109/99 122/110/99 
f 94/112/99 114/111/99 113/109/99 
f 99/113/99 114/111/99 94/112/99 
f 99/113/99 87/106/99 114/111/99 
f 88/107/99 87/106/99 99/113/99 
s 4
f 123/113/100 92/108/100 91/107/100 
f 123/113/100 116/106/100 92/108/100 
f 124/112/100 116/106/100 123/113/100 
f 124/112/100 115/111/100 116/106/100 
f 101/110/100 115/111/100 124/112/100 
f 101/110/100 90/109/100 115/111/100 
f 91/107/100 90/109/100 101/110/100 
s 16
f 124/112/101 95/106/101 94/113/101 
f 124/112/101 125/111/101 95/106/101 
f 123/106/101 125/107/101 124/113/101 
f 123/108/101 119/107/101 125/106/101 
f 99/108/101 119/110/101 123/107/101 
f 99/109/101 93/110/101 119/108/101 
f 94/111/101 93/110/101 99/109/101 
s 64
f 122/110/102 96/108/102 101/107/102 
f 122/110/102 121/109/102 96/108/102 
f 88/108/102 121/113/102 122/107/102 
f 88/106/102 120/113/102 121/108/102 
f 91/106/102 120/112/102 88/113/102 
f 91/111/102 97/112/102 120/106/102 
f 96/109/102 91/112/102 101/111/102 
s 8
f 123/112/103 100/106/103 99/113/103 
f 123/112/103 107/111/103 100/106/103 
f 91/110/103 107/111/103 123/112/103 
f 91/110/103 108/109/103 107/111/103 
f 88/107/103 108/109/103 91/110/103 
f 88/107/103 98/108/103 108/109/103 
f 99/113/103 98/108/103 88/107/103 
s 32
f 94/110/104 102/108/104 124/107/104 
f 94/110/104 126/109/104 102/108/104 
f 122/112/104 126/109/104 94/110/104 
f 122/112/104 110/111/104 126/109/104 
f 101/113/104 110/111/104 122/112/104 
f 101/113/104 103/106/104 110/111/104 
f 102/107/104 101/106/104 124/113/104 
s 2
f 100/115/100 104/114/100 98/117/100 
s 1
f 107/117/99 106/116/105 118/114/110 
s 2
f 110/114/100 109/115/100 126/116/100 
s 1
f 103/114/99 112/115/106 117/116/109 
f 113/114/103 109/115/103 111/116/103 
f 87/114/104 104/115/104 105/116/104 
s 2
f 112/115/107 90/114/103 117/117/107 
f 106/115/108 116/114/104 118/117/108 
s 4
f 114/117/102 105/116/102 109/114/102 
f 111/114/101 89/115/101 113/116/101 
s 1
f 116/116/102 112/117/106 118/115/110 
f 106/115/105 90/114/101 92/117/101 
s 4
f 100/116/102 118/117/102 105/115/102 
f 104/114/101 108/115/101 98/116/101 
f 109/117/102 102/116/102 126/114/102 
f 110/116/101 117/117/101 111/115/101 
s 1
f 112/117/106 95/116/103 125/114/103 
s 2
f 105/116/100 95/117/100 109/115/100 
s 1
f 105/114/104 119/115/104 93/116/104 
s 2
f 119/117/99 112/116/107 125/114/99 
f 96/116/99 106/117/108 97/115/99 
s 1
f 106/117/105 120/116/104 97/114/104 
s 2
f 111/117/100 120/116/100 104/114/100 
s 1
f 111/114/103 96/115/103 121/116/103 
# 96 faces

