# 3ds Max Wavefront OBJ Exporter v0.97b - (c)2007 guruware
# File Created: 13.02.2016 12:15:12

#
# object Box001
#

v  0.1250 0.0000 -0.1250
v  0.1250 0.0000 -1.0000
v  1.0000 0.0000 -1.0000
v  1.0000 0.0000 -0.1250
v  0.1250 1.0000 -0.1250
v  1.0000 1.0000 -0.1250
v  1.0000 1.0000 -1.0000
v  0.1250 1.0000 -1.0000
# 8 vertices

vn 0.0000 -1.0000 -0.0000
vn 0.0000 1.0000 -0.0000
vn 0.0000 0.0000 1.0000
vn 1.0000 0.0000 -0.0000
vn 0.0000 0.0000 -1.0000
vn -1.0000 0.0000 -0.0000
# 6 vertex normals

vt 1.0000 0.0000 0.0000
vt 1.0000 1.0000 0.0000
vt 0.0000 1.0000 0.0000
vt 0.0000 0.0000 0.0000
# 4 texture coords

g Box001
f 1/1/1 2/2/1 3/3/1 
f 3/3/1 4/4/1 1/1/1 
f 5/4/2 6/1/2 7/2/2 
f 7/2/2 8/3/2 5/4/2 
f 1/4/3 4/1/3 6/2/3 
f 6/2/3 5/3/3 1/4/3 
f 4/4/4 3/1/4 7/2/4 
f 7/2/4 6/3/4 4/4/4 
f 3/4/5 2/1/5 8/2/5 
f 8/2/5 7/3/5 3/4/5 
f 2/4/6 1/1/6 5/2/6 
f 5/2/6 8/3/6 2/4/6 
# 12 faces

#
# object Box002
#

v  -1.0000 0.0000 -0.1250
v  -1.0000 0.0000 -1.0000
v  -0.1250 0.0000 -1.0000
v  -0.1250 0.0000 -0.1250
v  -1.0000 1.0000 -0.1250
v  -0.1250 1.0000 -0.1250
v  -0.1250 1.0000 -1.0000
v  -1.0000 1.0000 -1.0000
# 8 vertices

vn 0.0000 -1.0000 -0.0000
vn 0.0000 1.0000 -0.0000
vn 0.0000 0.0000 1.0000
vn 1.0000 0.0000 -0.0000
vn 0.0000 0.0000 -1.0000
vn -1.0000 0.0000 -0.0000
# 6 vertex normals

vt 1.0000 0.0000 0.0000
vt 1.0000 1.0000 0.0000
vt 0.0000 1.0000 0.0000
vt 0.0000 0.0000 0.0000
# 4 texture coords

g Box002
f 9/5/7 10/6/7 11/7/7 
f 11/7/7 12/8/7 9/5/7 
f 13/8/8 14/5/8 15/6/8 
f 15/6/8 16/7/8 13/8/8 
f 9/8/9 12/5/9 14/6/9 
f 14/6/9 13/7/9 9/8/9 
f 12/8/10 11/5/10 15/6/10 
f 15/6/10 14/7/10 12/8/10 
f 11/8/11 10/5/11 16/6/11 
f 16/6/11 15/7/11 11/8/11 
f 10/8/12 9/5/12 13/6/12 
f 13/6/12 16/7/12 10/8/12 
# 12 faces

#
# object Box003
#

v  -1.0000 0.0000 1.0000
v  -1.0000 0.0000 0.1250
v  -0.1250 0.0000 0.1250
v  -0.1250 0.0000 1.0000
v  -1.0000 1.0000 1.0000
v  -0.1250 1.0000 1.0000
v  -0.1250 1.0000 0.1250
v  -1.0000 1.0000 0.1250
# 8 vertices

vn 0.0000 -1.0000 -0.0000
vn 0.0000 1.0000 -0.0000
vn 0.0000 0.0000 1.0000
vn 1.0000 0.0000 -0.0000
vn 0.0000 0.0000 -1.0000
vn -1.0000 0.0000 -0.0000
# 6 vertex normals

vt 1.0000 0.0000 0.0000
vt 1.0000 1.0000 0.0000
vt 0.0000 1.0000 0.0000
vt 0.0000 0.0000 0.0000
# 4 texture coords

g Box003
f 17/9/13 18/10/13 19/11/13 
f 19/11/13 20/12/13 17/9/13 
f 21/12/14 22/9/14 23/10/14 
f 23/10/14 24/11/14 21/12/14 
f 17/12/15 20/9/15 22/10/15 
f 22/10/15 21/11/15 17/12/15 
f 20/12/16 19/9/16 23/10/16 
f 23/10/16 22/11/16 20/12/16 
f 19/12/17 18/9/17 24/10/17 
f 24/10/17 23/11/17 19/12/17 
f 18/12/18 17/9/18 21/10/18 
f 21/10/18 24/11/18 18/12/18 
# 12 faces

#
# object Box004
#

v  0.1250 0.0000 1.0000
v  0.1250 0.0000 0.1250
v  1.0000 0.0000 0.1250
v  1.0000 0.0000 1.0000
v  0.1250 1.0000 1.0000
v  1.0000 1.0000 1.0000
v  1.0000 1.0000 0.1250
v  0.1250 1.0000 0.1250
# 8 vertices

vn 0.0000 -1.0000 -0.0000
vn 0.0000 1.0000 -0.0000
vn 0.0000 0.0000 1.0000
vn 1.0000 0.0000 -0.0000
vn 0.0000 0.0000 -1.0000
vn -1.0000 0.0000 -0.0000
# 6 vertex normals

vt 1.0000 0.0000 0.0000
vt 1.0000 1.0000 0.0000
vt 0.0000 1.0000 0.0000
vt 0.0000 0.0000 0.0000
# 4 texture coords

g Box004
f 25/13/19 26/14/19 27/15/19 
f 27/15/19 28/16/19 25/13/19 
f 29/16/20 30/13/20 31/14/20 
f 31/14/20 32/15/20 29/16/20 
f 25/16/21 28/13/21 30/14/21 
f 30/14/21 29/15/21 25/16/21 
f 28/16/22 27/13/22 31/14/22 
f 31/14/22 30/15/22 28/16/22 
f 27/16/23 26/13/23 32/14/23 
f 32/14/23 31/15/23 27/16/23 
f 26/16/24 25/13/24 29/14/24 
f 29/14/24 32/15/24 26/16/24 
# 12 faces

#
# object Box005
#

v  -0.7500 0.1250 0.7500
v  -0.7500 0.1250 -0.7500
v  0.7500 0.1250 -0.7500
v  0.7500 0.1250 0.7500
v  -0.7500 0.8750 0.7500
v  0.7500 0.8750 0.7500
v  0.7500 0.8750 -0.7500
v  -0.7500 0.8750 -0.7500
# 8 vertices

vn 0.0000 -1.0000 -0.0000
vn 0.0000 1.0000 -0.0000
vn 0.0000 0.0000 1.0000
vn 1.0000 0.0000 -0.0000
vn 0.0000 0.0000 -1.0000
vn -1.0000 0.0000 -0.0000
# 6 vertex normals

vt 1.0000 0.0000 0.0000
vt 1.0000 1.0000 0.0000
vt 0.0000 1.0000 0.0000
vt 0.0000 0.0000 0.0000
# 4 texture coords

g Box005
f 33/17/25 34/18/25 35/19/25 
f 35/19/25 36/20/25 33/17/25 
f 37/20/26 38/17/26 39/18/26 
f 39/18/26 40/19/26 37/20/26 
f 33/20/27 36/17/27 38/18/27 
f 38/18/27 37/19/27 33/20/27 
f 36/20/28 35/17/28 39/18/28 
f 39/18/28 38/19/28 36/20/28 
f 35/20/29 34/17/29 40/18/29 
f 40/18/29 39/19/29 35/20/29 
f 34/20/30 33/17/30 37/18/30 
f 37/18/30 40/19/30 34/20/30 
# 12 faces

#
# object Box006
#

v  0.1250 2.0000 -0.1250
v  0.1250 2.0000 -1.0000
v  1.0000 2.0000 -1.0000
v  1.0000 2.0000 -0.1250
v  0.1250 3.0000 -0.1250
v  1.0000 3.0000 -0.1250
v  1.0000 3.0000 -1.0000
v  0.1250 3.0000 -1.0000
# 8 vertices

vn 0.0000 -1.0000 -0.0000
vn 0.0000 1.0000 -0.0000
vn 0.0000 0.0000 1.0000
vn 1.0000 0.0000 -0.0000
vn 0.0000 0.0000 -1.0000
vn -1.0000 0.0000 -0.0000
# 6 vertex normals

vt 1.0000 0.0000 0.0000
vt 1.0000 1.0000 0.0000
vt 0.0000 1.0000 0.0000
vt 0.0000 0.0000 0.0000
# 4 texture coords

g Box006
f 41/21/31 42/22/31 43/23/31 
f 43/23/31 44/24/31 41/21/31 
f 45/24/32 46/21/32 47/22/32 
f 47/22/32 48/23/32 45/24/32 
f 41/24/33 44/21/33 46/22/33 
f 46/22/33 45/23/33 41/24/33 
f 44/24/34 43/21/34 47/22/34 
f 47/22/34 46/23/34 44/24/34 
f 43/24/35 42/21/35 48/22/35 
f 48/22/35 47/23/35 43/24/35 
f 42/24/36 41/21/36 45/22/36 
f 45/22/36 48/23/36 42/24/36 
# 12 faces

#
# object Box007
#

v  -1.0000 2.0000 -0.1250
v  -1.0000 2.0000 -1.0000
v  -0.1250 2.0000 -1.0000
v  -0.1250 2.0000 -0.1250
v  -1.0000 3.0000 -0.1250
v  -0.1250 3.0000 -0.1250
v  -0.1250 3.0000 -1.0000
v  -1.0000 3.0000 -1.0000
# 8 vertices

vn 0.0000 -1.0000 -0.0000
vn 0.0000 1.0000 -0.0000
vn 0.0000 0.0000 1.0000
vn 1.0000 0.0000 -0.0000
vn 0.0000 0.0000 -1.0000
vn -1.0000 0.0000 -0.0000
# 6 vertex normals

vt 1.0000 0.0000 0.0000
vt 1.0000 1.0000 0.0000
vt 0.0000 1.0000 0.0000
vt 0.0000 0.0000 0.0000
# 4 texture coords

g Box007
f 49/25/37 50/26/37 51/27/37 
f 51/27/37 52/28/37 49/25/37 
f 53/28/38 54/25/38 55/26/38 
f 55/26/38 56/27/38 53/28/38 
f 49/28/39 52/25/39 54/26/39 
f 54/26/39 53/27/39 49/28/39 
f 52/28/40 51/25/40 55/26/40 
f 55/26/40 54/27/40 52/28/40 
f 51/28/41 50/25/41 56/26/41 
f 56/26/41 55/27/41 51/28/41 
f 50/28/42 49/25/42 53/26/42 
f 53/26/42 56/27/42 50/28/42 
# 12 faces

#
# object Box008
#

v  0.1250 2.0000 1.0000
v  0.1250 2.0000 0.1250
v  1.0000 2.0000 0.1250
v  1.0000 2.0000 1.0000
v  0.1250 3.0000 1.0000
v  1.0000 3.0000 1.0000
v  1.0000 3.0000 0.1250
v  0.1250 3.0000 0.1250
# 8 vertices

vn 0.0000 -1.0000 -0.0000
vn 0.0000 1.0000 -0.0000
vn 0.0000 0.0000 1.0000
vn 1.0000 0.0000 -0.0000
vn 0.0000 0.0000 -1.0000
vn -1.0000 0.0000 -0.0000
# 6 vertex normals

vt 1.0000 0.0000 0.0000
vt 1.0000 1.0000 0.0000
vt 0.0000 1.0000 0.0000
vt 0.0000 0.0000 0.0000
# 4 texture coords

g Box008
f 57/29/43 58/30/43 59/31/43 
f 59/31/43 60/32/43 57/29/43 
f 61/32/44 62/29/44 63/30/44 
f 63/30/44 64/31/44 61/32/44 
f 57/32/45 60/29/45 62/30/45 
f 62/30/45 61/31/45 57/32/45 
f 60/32/46 59/29/46 63/30/46 
f 63/30/46 62/31/46 60/32/46 
f 59/32/47 58/29/47 64/30/47 
f 64/30/47 63/31/47 59/32/47 
f 58/32/48 57/29/48 61/30/48 
f 61/30/48 64/31/48 58/32/48 
# 12 faces

#
# object Box009
#

v  -0.7500 2.1250 0.7500
v  -0.7500 2.1250 -0.7500
v  0.7500 2.1250 -0.7500
v  0.7500 2.1250 0.7500
v  -0.7500 2.8750 0.7500
v  0.7500 2.8750 0.7500
v  0.7500 2.8750 -0.7500
v  -0.7500 2.8750 -0.7500
# 8 vertices

vn 0.0000 -1.0000 -0.0000
vn 0.0000 1.0000 -0.0000
vn 0.0000 0.0000 1.0000
vn 1.0000 0.0000 -0.0000
vn 0.0000 0.0000 -1.0000
vn -1.0000 0.0000 -0.0000
# 6 vertex normals

vt 1.0000 0.0000 0.0000
vt 1.0000 1.0000 0.0000
vt 0.0000 1.0000 0.0000
vt 0.0000 0.0000 0.0000
# 4 texture coords

g Box009
f 65/33/49 66/34/49 67/35/49 
f 67/35/49 68/36/49 65/33/49 
f 69/36/50 70/33/50 71/34/50 
f 71/34/50 72/35/50 69/36/50 
f 65/36/51 68/33/51 70/34/51 
f 70/34/51 69/35/51 65/36/51 
f 68/36/52 67/33/52 71/34/52 
f 71/34/52 70/35/52 68/36/52 
f 67/36/53 66/33/53 72/34/53 
f 72/34/53 71/35/53 67/36/53 
f 66/36/54 65/33/54 69/34/54 
f 69/34/54 72/35/54 66/36/54 
# 12 faces

#
# object Box010
#

v  -1.0000 2.0000 1.0000
v  -1.0000 2.0000 0.1250
v  -0.1250 2.0000 0.1250
v  -0.1250 2.0000 1.0000
v  -1.0000 3.0000 1.0000
v  -0.1250 3.0000 1.0000
v  -0.1250 3.0000 0.1250
v  -1.0000 3.0000 0.1250
# 8 vertices

vn 0.0000 -1.0000 -0.0000
vn 0.0000 1.0000 -0.0000
vn 0.0000 0.0000 1.0000
vn 1.0000 0.0000 -0.0000
vn 0.0000 0.0000 -1.0000
vn -1.0000 0.0000 -0.0000
# 6 vertex normals

vt 1.0000 0.0000 0.0000
vt 1.0000 1.0000 0.0000
vt 0.0000 1.0000 0.0000
vt 0.0000 0.0000 0.0000
# 4 texture coords

g Box010
f 73/37/55 74/38/55 75/39/55 
f 75/39/55 76/40/55 73/37/55 
f 77/40/56 78/37/56 79/38/56 
f 79/38/56 80/39/56 77/40/56 
f 73/40/57 76/37/57 78/38/57 
f 78/38/57 77/39/57 73/40/57 
f 76/40/58 75/37/58 79/38/58 
f 79/38/58 78/39/58 76/40/58 
f 75/40/59 74/37/59 80/38/59 
f 80/38/59 79/39/59 75/40/59 
f 74/40/60 73/37/60 77/38/60 
f 77/38/60 80/39/60 74/40/60 
# 12 faces

#
# object Box011
#

v  -0.6250 0.8750 0.6250
v  -0.6250 0.8750 -0.6250
v  0.6250 0.8750 -0.6250
v  0.6250 0.8750 0.6250
v  -0.6250 2.1250 0.6250
v  0.6250 2.1250 0.6250
v  0.6250 2.1250 -0.6250
v  -0.6250 2.1250 -0.6250
# 8 vertices

vn 0.0000 -1.0000 -0.0000
vn 0.0000 1.0000 -0.0000
vn 0.0000 0.0000 1.0000
vn 1.0000 0.0000 -0.0000
vn 0.0000 0.0000 -1.0000
vn -1.0000 0.0000 -0.0000
# 6 vertex normals

vt 1.0000 0.0000 0.0000
vt 1.0000 1.0000 0.0000
vt 0.0000 1.0000 0.0000
vt 0.0000 0.0000 0.0000
# 4 texture coords

g Box011
f 81/41/61 82/42/61 83/43/61 
f 83/43/61 84/44/61 81/41/61 
f 85/44/62 86/41/62 87/42/62 
f 87/42/62 88/43/62 85/44/62 
f 81/44/63 84/41/63 86/42/63 
f 86/42/63 85/43/63 81/44/63 
f 84/44/64 83/41/64 87/42/64 
f 87/42/64 86/43/64 84/44/64 
f 83/44/65 82/41/65 88/42/65 
f 88/42/65 87/43/65 83/44/65 
f 82/44/66 81/41/66 85/42/66 
f 85/42/66 88/43/66 82/44/66 
# 12 faces

