# Generated by tools/gen_obj.py from art/obj_models/crystal_cluster/crystals.obj; blocks, origin at the block's lowest corner.
mtllib femtocraft.mtl
v 0.5 0.95 0.5
v 0.599492 0.8 0.500751
v 0.527411 0.8 0.408737
v 0.409976 0.8 0.445238
v 0.41037 0.8 0.55889
v 0.52663 0.8 0.593341
v 0.540172 0.2 0.376363
v 0.63 0.2 0.5
v 0.394828 0.2 0.423588
v 0.394828 0.2 0.576412
v 0.540172 0.2 0.623637
v 0.5 0.05 0.5
v 0.385213 0.59 0.685108
v 0.435213 0.52 0.685108
v 0.400664 0.52 0.637555
v 0.344762 0.52 0.655719
v 0.344762 0.52 0.714497
v 0.400664 0.52 0.732661
v 0.400664 0.17 0.637555
v 0.435213 0.17 0.685108
v 0.344762 0.17 0.655719
v 0.344762 0.17 0.714497
v 0.400664 0.17 0.732661
v 0.385213 0.1 0.685108
v 0.703127 0.69 0.390051
v 0.753127 0.62 0.390051
v 0.718578 0.62 0.342498
v 0.662676 0.62 0.360661
v 0.662676 0.62 0.41944
v 0.718578 0.62 0.437603
v 0.718578 0.27 0.342498
v 0.753127 0.27 0.390051
v 0.662676 0.27 0.360661
v 0.662676 0.27 0.41944
v 0.718578 0.27 0.437603
v 0.703127 0.2 0.390051
v 0.293043 0.89 0.392918
v 0.343043 0.82 0.392918
v 0.308494 0.82 0.345365
v 0.252592 0.82 0.363528
v 0.252592 0.82 0.422307
v 0.308494 0.82 0.44047
v 0.308494 0.47 0.345365
v 0.343043 0.47 0.392918
v 0.252592 0.47 0.363528
v 0.252592 0.47 0.422307
v 0.308494 0.47 0.44047
v 0.293043 0.4 0.392918
v 0.309946 0.7 0.570366
v 0.349946 0.65 0.570366
v 0.309946 0.65 0.530366
v 0.269946 0.65 0.570366
v 0.309946 0.65 0.610366
v 0.309908 0.35 0.540325
v 0.337948 0.35 0.570382
v 0.280907 0.35 0.570408
v 0.311406 0.35 0.59808
v 0.309946 0.3 0.570366
v 0.694248 0.95 0.548309
v 0.734248 0.9 0.548309
v 0.694248 0.9 0.508309
v 0.654248 0.9 0.548309
v 0.694248 0.9 0.588309
v 0.694211 0.6 0.518269
v 0.72225 0.6 0.548326
v 0.66521 0.6 0.548351
v 0.695709 0.6 0.576023
v 0.694248 0.55 0.548309
v 0.538866 0.41 0.305653
v 0.583866 0.35 0.305653
v 0.556129 0.35 0.273752
v 0.516366 0.35 0.266682
v 0.493866 0.35 0.305653
v 0.520164 0.35 0.34018
v 0.561366 0.35 0.344624
v 0.561366 0.1 0.266682
v 0.571932 0.1 0.305695
v 0.516366 0.1 0.266682
v 0.504563 0.1 0.305674
v 0.516366 0.1 0.344624
v 0.561366 0.1 0.344624
v 0.538866 0.04 0.305653
v 0.526198 0.71 0.6976
v 0.571198 0.65 0.6976
v 0.543461 0.65 0.665699
v 0.503698 0.65 0.658629
v 0.481198 0.65 0.6976
v 0.507496 0.65 0.732128
v 0.548698 0.65 0.736572
v 0.548698 0.4 0.658629
v 0.559263 0.4 0.697642
v 0.503698 0.4 0.658629
v 0.491894 0.4 0.697622
v 0.503698 0.4 0.736572
v 0.548698 0.4 0.736572
v 0.526198 0.34 0.6976
v 0.414554 0.99 0.318604
v 0.449554 0.94 0.318604
v 0.402452 0.94 0.29886
v 0.402452 0.94 0.338444
v 0.397054 0.44 0.288294
v 0.436787 0.44 0.317914
v 0.397054 0.44 0.348915
v 0.414554 0.39 0.318604
v 0.647975 0.61 0.653688
v 0.682975 0.56 0.653688
v 0.635873 0.56 0.633943
v 0.635873 0.56 0.673527
v 0.630475 0.06 0.623377
v 0.670208 0.06 0.652997
v 0.630475 0.06 0.683999
v 0.647975 0.01 0.653688
vt 0.7451 0.7197
vt 0.7884 0.7197
vt 0.7787 0.7461
vt 0.6837 0.4316
vt 0.6833 0.4743
vt 0.6552 0.4651
vt 0.9042 0.5596
vt 0.8623 0.5728
vt 0.8623 0.5455
vt 0.4489 0.9972
vt 0.4204 0.9633
vt 0.4481 0.9543
vt 0.8037 0.6148
vt 0.8373 0.5882
vt 0.8469 0.6148
vt 0.5905 0.0031
vt 0.5818 0.1471
vt 0.5538 0.1463
vt 0.5538 0.002
vt 0.6919 0.002
vt 0.6919 0.1462
vt 0.6624 0.1466
vt 0.6552 0.0025
vt 0.3552 0.7996
vt 0.3458 0.9435
vt 0.3185 0.9426
vt 0.3185 0.7983
vt 0.3042 0.7983
vt 0.3042 0.9427
vt 0.2751 0.9437
vt 0.2676 0.7997
vt 0.6412 0.003
vt 0.6328 0.1471
vt 0.6045 0.1463
vt 0.6045 0.002
vt 0.9264 0.1827
vt 0.8788 0.1827
vt 0.9123 0.1488
vt 0.1744 0.9397
vt 0.1433 0.9759
vt 0.1395 0.9284
vt 0.7891 0.3722
vt 0.7451 0.3538
vt 0.7891 0.3355
vt 0.2035 0.9759
vt 0.2074 0.9283
vt 0.2384 0.9645
vt 0.9781 0.1093
vt 0.9445 0.0754
vt 0.9922 0.0754
vt 0.8654 0.2827
vt 0.9099 0.2827
vt 0.8995 0.3113
vt 0.5812 0.5278
vt 0.5827 0.5723
vt 0.5538 0.5629
vt 0.787 0.646
vt 0.7451 0.6612
vt 0.7451 0.6308
vt 0.5367 0.5495
vt 0.5093 0.5144
vt 0.5382 0.505
vt 0.8595 0.4684
vt 0.8937 0.4398
vt 0.9041 0.4684
vt 0.3489 0.2127
vt 0.3489 0.3939
vt 0.3185 0.3939
vt 0.3185 0.2127
vt 0.4953 0.002
vt 0.4953 0.1832
vt 0.4648 0.1832
vt 0.4648 0.002
vt 0.3489 0.6031
vt 0.3489 0.7843
vt 0.3185 0.7843
vt 0.3185 0.6031
vt 0.3999 0.6186
vt 0.3999 0.7997
vt 0.3694 0.7997
vt 0.3694 0.6186
vt 0.4508 0.1972
vt 0.4508 0.3784
vt 0.4204 0.3784
vt 0.4204 0.1972
vt 0.8482 0.5741
vt 0.8037 0.5741
vt 0.8378 0.5455
vt 0.5382 0.573
vt 0.5108 0.6081
vt 0.5093 0.5636
vt 0.8429 0.6612
vt 0.801 0.646
vt 0.8429 0.6308
vt 0.4648 0.8038
vt 0.4664 0.7593
vt 0.4938 0.7944
vt 0.9517 0.3641
vt 0.9176 0.3355
vt 0.9621 0.3355
vt 0.7451 0.5882
vt 0.7897 0.5882
vt 0.7793 0.6168
vt 0.7725 0.487
vt 0.7741 0.5315
vt 0.7451 0.5221
vt 0.9444 0.5022
vt 0.9025 0.5174
vt 0.9025 0.487
vt 0.4478 0.9403
vt 0.4204 0.9052
vt 0.4493 0.8958
vt 0.7451 0.5741
vt 0.7793 0.5455
vt 0.7897 0.5741
vt 0.4953 0.1972
vt 0.4953 0.3784
vt 0.4648 0.3784
vt 0.4648 0.1972
vt 0.298 0.6031
vt 0.298 0.7843
vt 0.2676 0.7843
vt 0.2676 0.6031
vt 0.3999 0.8138
vt 0.3999 0.9949
vt 0.3694 0.9949
vt 0.3694 0.8138
vt 0.4508 0.3924
vt 0.4508 0.5736
vt 0.4204 0.5736
vt 0.4204 0.3924
vt 0.5397 0.002
vt 0.5397 0.1832
vt 0.5093 0.1832
vt 0.5093 0.002
vt 0.8991 0.4148
vt 0.8546 0.4148
vt 0.8887 0.3862
vt 0.6334 0.5371
vt 0.606 0.5722
vt 0.6045 0.5277
vt 0.787 0.7057
vt 0.7451 0.6905
vt 0.787 0.6752
vt 0.6552 0.4176
vt 0.6567 0.3731
vt 0.6841 0.4082
vt 0.8351 0.4684
vt 0.801 0.4398
vt 0.8455 0.4398
vt 0.859 0.3355
vt 0.9035 0.3355
vt 0.8931 0.3641
vt 0.4922 0.7007
vt 0.4938 0.7452
vt 0.4648 0.7358
vt 0.9599 0.455
vt 0.9181 0.4703
vt 0.9181 0.4398
vt 0.5812 0.5138
vt 0.5538 0.4787
vt 0.5827 0.4693
vt 0.7881 0.5156
vt 0.8222 0.487
vt 0.8326 0.5156
vt 0.4508 0.002
vt 0.4508 0.1832
vt 0.4204 0.1832
vt 0.4204 0.002
vt 0.3489 0.4079
vt 0.3489 0.5891
vt 0.3185 0.5891
vt 0.3185 0.4079
vt 0.298 0.4079
vt 0.298 0.5891
vt 0.2676 0.5891
vt 0.2676 0.4079
vt 0.298 0.2127
vt 0.298 0.3939
vt 0.2676 0.3939
vt 0.2676 0.2127
vt 0.3999 0.4233
vt 0.3999 0.6045
vt 0.3694 0.6045
vt 0.3694 0.4233
vt 0.9577 0.4148
vt 0.9131 0.4148
vt 0.9473 0.3862
vt 0.6334 0.4786
vt 0.606 0.5137
vt 0.6045 0.4692
vt 0.8885 0.5174
vt 0.8467 0.5022
vt 0.8885 0.487
vt 0.6552 0.359
vt 0.6567 0.3145
vt 0.6841 0.3496
vt 0.9581 0.3113
vt 0.9239 0.2827
vt 0.9685 0.2827
vt 0.7987 0.3862
vt 0.8405 0.3862
vt 0.8242 0.4194
vt 0.916 0.216
vt 0.9025 0.2556
vt 0.8764 0.2295
vt 0.7847 0.4258
vt 0.7451 0.4123
vt 0.7712 0.3862
vt 0.8032 0.3686
vt 0.8286 0.3355
vt 0.845 0.3686
vt 0.1663 0.5069
vt 0.1764 0.7026
vt 0.1395 0.7036
vt 0.1395 0.5077
vt 0.2404 0.7184
vt 0.2404 0.9143
vt 0.2035 0.9134
vt 0.2132 0.7177
vt 0.4064 0.2133
vt 0.4064 0.4093
vt 0.3694 0.4084
vt 0.3795 0.2127
vt 0.1764 0.7184
vt 0.1764 0.9143
vt 0.1395 0.9133
vt 0.1513 0.7177
vt 0.9503 0.6561
vt 0.9129 0.6561
vt 0.9413 0.6308
vt 0.9679 0.487
vt 0.9962 0.5126
vt 0.9584 0.5126
vt 0.7451 0.7967
vt 0.7829 0.7967
vt 0.7551 0.8217
vt 0.2676 0.9739
vt 0.3012 0.9577
vt 0.2853 0.9916
vt 0.8095 0.2827
vt 0.8513 0.2827
vt 0.835 0.3158
vt 0.9696 0.216
vt 0.9561 0.2556
vt 0.93 0.2295
vt 0.98 0.1884
vt 0.9405 0.1749
vt 0.9666 0.1488
vt 0.7451 0.473
vt 0.7706 0.4398
vt 0.7869 0.473
vt 0.2303 0.5069
vt 0.2404 0.7026
vt 0.2035 0.7036
vt 0.2035 0.5077
vt 0.3554 0.0027
vt 0.3554 0.1986
vt 0.3185 0.1977
vt 0.3281 0.002
vt 0.4064 0.0026
vt 0.4064 0.1986
vt 0.3694 0.1977
vt 0.3795 0.002
vt 0.3045 0.0027
vt 0.3045 0.1987
vt 0.2676 0.1976
vt 0.2794 0.002
vt 0.9543 0.6135
vt 0.9169 0.6135
vt 0.9454 0.5882
vt 0.8665 0.6752
vt 0.8947 0.7008
vt 0.857 0.7008
vt 0.8584 0.7197
vt 0.8961 0.7197
vt 0.8683 0.7447
vt 0.3185 0.9737
vt 0.3522 0.9576
vt 0.3362 0.9914
vt 0.8011 0.7601
vt 0.843 0.7601
vt 0.8337 0.7818
vt 0.6714 0.4883
vt 0.6778 0.527
vt 0.6552 0.527
vt 0.8429 0.6752
vt 0.8086 0.6992
vt 0.801 0.6752
vt 0.7871 0.7827
vt 0.7451 0.7827
vt 0.754 0.7601
vt 0.6128 0.6254
vt 0.6045 0.5862
vt 0.6277 0.5862
vt 0.861 0.6122
vt 0.8953 0.5882
vt 0.9029 0.6122
vt 0.5764 0.3151
vt 0.5774 0.4549
vt 0.5538 0.4553
vt 0.5538 0.3153
vt 0.6296 0.1612
vt 0.6296 0.3009
vt 0.6071 0.3009
vt 0.6045 0.1611
vt 0.5321 0.1972
vt 0.5345 0.3371
vt 0.5093 0.337
vt 0.5093 0.1972
vt 0.4891 0.5468
vt 0.4891 0.6866
vt 0.4648 0.6867
vt 0.4664 0.5468
vt 0.7311 0.002
vt 0.7311 0.1418
vt 0.7079 0.1418
vt 0.7059 0.002
vt 0.4455 0.5881
vt 0.4455 0.728
vt 0.4204 0.7274
vt 0.423 0.5876
vt 0.7834 0.8947
vt 0.7451 0.8947
vt 0.7806 0.8723
vt 0.49 0.8178
vt 0.4774 0.8578
vt 0.4648 0.8178
vt 0.7484 0.8357
vt 0.7838 0.8583
vt 0.7451 0.8583
vt 0.9101 0.7197
vt 0.9488 0.7197
vt 0.9134 0.7422
vt 0.7059 0.1958
vt 0.7185 0.1558
vt 0.7311 0.1958
vt 0.885 0.8191
vt 0.8496 0.7967
vt 0.8879 0.7967
vt 0.9087 0.6752
vt 0.9507 0.6752
vt 0.9414 0.697
vt 0.481 0.8718
vt 0.4874 0.9105
vt 0.4648 0.9105
vt 0.9602 0.5455
vt 0.9258 0.5695
vt 0.9183 0.5455
vt 0.8443 0.7423
vt 0.8024 0.7423
vt 0.8112 0.7197
vt 0.98 0.4254
vt 0.9717 0.3862
vt 0.9949 0.3862
vt 0.8569 0.6548
vt 0.8913 0.6308
vt 0.8988 0.6548
vt 0.6271 0.3149
vt 0.6281 0.4548
vt 0.6045 0.4551
vt 0.6045 0.3152
vt 0.6804 0.1607
vt 0.6804 0.3005
vt 0.6578 0.3005
vt 0.6552 0.1607
vt 0.5765 0.1612
vt 0.5789 0.301
vt 0.5538 0.3009
vt 0.5538 0.1612
vt 0.5336 0.3511
vt 0.5336 0.4909
vt 0.5093 0.491
vt 0.5108 0.3511
vt 0.4455 0.742
vt 0.4455 0.8818
vt 0.4224 0.8818
vt 0.4204 0.742
vt 0.49 0.3928
vt 0.49 0.5327
vt 0.4648 0.5321
vt 0.4674 0.3924
vt 0.8361 0.8581
vt 0.7978 0.8581
vt 0.8332 0.8357
vt 0.5345 0.6221
vt 0.5219 0.6621
vt 0.5093 0.6221
vt 0.8002 0.7967
vt 0.8355 0.8193
vt 0.7969 0.8193
vt 0.857 0.7601
vt 0.8957 0.7601
vt 0.8603 0.7826
vt 0.5538 0.6264
vt 0.5663 0.5864
vt 0.5789 0.6264
vt 0.9452 0.7825
vt 0.9097 0.7601
vt 0.948 0.7601
vt 0.811 0.0754
vt 0.8638 0.1035
vt 0.8205 0.1285
vt 0.8624 0.2355
vt 0.812 0.2548
vt 0.812 0.216
vt 0.7451 0.202
vt 0.7545 0.1488
vt 0.7979 0.1738
vt 0.188 0.002
vt 0.1895 0.4918
vt 0.1395 0.4929
vt 0.1395 0.003
vt 0.0614 0.0033
vt 0.0408 0.4927
vt 0.002 0.4918
vt 0.002 0.002
vt 0.1254 0.0031
vt 0.1254 0.493
vt 0.0754 0.4918
vt 0.0761 0.002
vt 0.9199 0.0754
vt 0.9305 0.1279
vt 0.8778 0.0997
vt 0.797 0.0614
vt 0.7451 0.0317
vt 0.797 0.002
vt 0.7451 0.244
vt 0.798 0.216
vt 0.7879 0.2687
vt 0.8778 0.002
vt 0.9306 0.0301
vt 0.8872 0.0551
vt 0.7955 0.3021
vt 0.7451 0.3215
vt 0.7451 0.2827
vt 0.811 0.0552
vt 0.8204 0.002
vt 0.8638 0.027
vt 0.252 0.002
vt 0.2535 0.4918
vt 0.2035 0.4929
vt 0.2035 0.003
vt 0.0614 0.5079
vt 0.0408 0.9973
vt 0.002 0.9965
vt 0.002 0.5067
vt 0.1254 0.5081
vt 0.1254 0.998
vt 0.0754 0.9968
vt 0.0761 0.507
vt 0.9866 0.002
vt 0.9973 0.0545
vt 0.9446 0.0263
vt 0.797 0.1348
vt 0.7451 0.1051
vt 0.797 0.0754
vt 0.8119 0.1768
vt 0.8647 0.1488
vt 0.8546 0.2014
vn 0.6987 0.4607 -0.5473
vn -0.2626 0.4661 -0.8449
vn -0.8579 0.5138 0.003
vn -0.2493 0.4793 0.8415
vn 0.696 0.4644 0.5477
vn 0.7862 0.05 -0.6159
vn 0.8083 0.0418 -0.5873
vn -0.2966 0.0419 -0.9541
vn -0.3087 0.0447 -0.9501
vn -0.9997 0.026 0.0035
vn -0.9997 0.0252 0
vn -0.2839 0.042 0.9579
vn -0.3088 0.0358 0.9504
vn 0.7853 0.0392 0.6179
vn 0.8081 0.0479 0.5871
vn 0.6624 -0.5741 -0.4813
vn -0.253 -0.5741 -0.7787
vn -0.8188 -0.5741 0
vn -0.253 -0.5741 0.7787
vn 0.6624 -0.5741 0.4813
vn 0.7005 0.5003 -0.5089
vn -0.2676 0.5003 -0.8235
vn -0.8658 0.5003 0
vn -0.2676 0.5003 0.8235
vn 0.7005 0.5003 0.5089
vn 0.809 0 -0.5878
vn -0.309 0 -0.9511
vn -1 0 0
vn -0.309 0 0.9511
vn 0.809 0 0.5878
vn 0.7005 -0.5003 -0.5089
vn -0.2676 -0.5003 -0.8235
vn -0.8658 -0.5003 0
vn -0.2676 -0.5003 0.8235
vn 0.7005 -0.5003 0.5089
vn 0.7005 0.5003 -0.5089
vn -0.2676 0.5003 -0.8235
vn -0.8658 0.5003 0
vn -0.2676 0.5003 0.8235
vn 0.7005 0.5003 0.5089
vn 0.809 0 -0.5878
vn -0.309 0 -0.9511
vn -1 0 0
vn -0.309 0 0.9511
vn 0.809 0 0.5878
vn 0.7005 -0.5003 -0.5089
vn -0.2676 -0.5003 -0.8235
vn -0.8658 -0.5003 0
vn -0.2676 -0.5003 0.8235
vn 0.7005 -0.5003 0.5089
vn 0.7005 0.5003 -0.5089
vn -0.2676 0.5003 -0.8235
vn -0.8658 0.5003 0
vn -0.2676 0.5003 0.8235
vn 0.7005 0.5003 0.5089
vn 0.809 0 -0.5878
vn -0.309 0 -0.9511
vn -1 0 0
vn -0.309 0 0.9511
vn 0.809 0 0.5878
vn 0.7005 -0.5003 -0.5089
vn -0.2676 -0.5003 -0.8235
vn -0.8658 -0.5003 0
vn -0.2676 -0.5003 0.8235
vn 0.7005 -0.5003 0.5089
vn 0.6155 0.4924 -0.6155
vn -0.6155 0.4924 -0.6155
vn -0.6155 0.4924 0.6155
vn 0.6155 0.4924 0.6155
vn 0.7069 -0.0236 -0.7069
vn 0.7309 -0.0293 -0.6818
vn -0.7069 -0.0259 -0.7069
vn -0.7197 -0.0229 -0.6939
vn -0.7067 -0.0324 0.7067
vn -0.6717 -0.0244 0.7404
vn 0.7068 -0.0282 0.7068
vn 0.7218 -0.0248 0.6917
vn 0.6767 -0.3788 -0.6313
vn -0.6643 -0.3853 -0.6405
vn -0.6258 -0.364 0.6898
vn 0.6693 -0.3751 0.6414
vn 0.6155 0.4924 -0.6155
vn -0.6155 0.4924 -0.6155
vn -0.6155 0.4924 0.6155
vn 0.6155 0.4924 0.6155
vn 0.7069 -0.0236 -0.7069
vn 0.7309 -0.0293 -0.6818
vn -0.7069 -0.0259 -0.7069
vn -0.7197 -0.0229 -0.6939
vn -0.7067 -0.0324 0.7067
vn -0.6717 -0.0244 0.7404
vn 0.7068 -0.0282 0.7068
vn 0.7218 -0.0248 0.6917
vn 0.6767 -0.3788 -0.6313
vn -0.6643 -0.3853 -0.6405
vn -0.6258 -0.364 0.6898
vn 0.6693 -0.3751 0.6414
vn 0.6568 0.4926 -0.571
vn 0.1518 0.4977 -0.8539
vn -0.7263 0.5447 -0.4193
vn -0.6832 0.5124 0.5203
vn -0.0917 0.518 0.8505
vn 0.7263 0.5447 0.4193
vn 0.7542 0.0343 -0.6557
vn 0.9642 -0.0461 -0.2611
vn 0.1751 0 -0.9846
vn 0 0.0283 -0.9996
vn -0.8654 -0.0371 -0.4997
vn -0.9571 0 -0.2897
vn -0.7953 0.0229 0.6058
vn -0.9562 -0.0409 0.2898
vn -0.1072 0 0.9942
vn 0 0.0178 0.9998
vn 0.8653 -0.0412 0.4996
vn 0.9651 0 0.2619
vn 0.8522 -0.4695 -0.2308
vn 0 -0.5447 -0.8386
vn -0.8397 -0.48 -0.2542
vn -0.8395 -0.4801 0.2544
vn 0 -0.5447 0.8386
vn 0.852 -0.4697 0.2312
vn 0.6568 0.4926 -0.571
vn 0.1518 0.4977 -0.8539
vn -0.7263 0.5447 -0.4193
vn -0.6832 0.5124 0.5203
vn -0.0917 0.518 0.8505
vn 0.7263 0.5447 0.4193
vn 0.7542 0.0343 -0.6557
vn 0.9642 -0.0461 -0.2611
vn 0.1751 0 -0.9846
vn 0 0.0283 -0.9996
vn -0.8654 -0.0371 -0.4997
vn -0.9571 0 -0.2897
vn -0.7953 0.0229 0.6058
vn -0.9562 -0.0409 0.2898
vn -0.1072 0 0.9942
vn 0 0.0178 0.9998
vn 0.8653 -0.0412 0.4996
vn 0.9651 0 0.2619
vn 0.8522 -0.4695 -0.2308
vn 0 -0.5447 -0.8386
vn -0.8397 -0.48 -0.2542
vn -0.8395 -0.4801 0.2544
vn 0 -0.5447 0.8386
vn 0.852 -0.4697 0.2312
vn 0.3732 0.2612 -0.8902
vn -0.9719 0.2352 0
vn 0.3746 0.2622 0.8893
vn 0.3865 0.0153 -0.9221
vn 0.5976 -0.0142 -0.8017
vn -0.9999 0.0108 0
vn 0.3882 -0.0112 0.9215
vn 0.6151 0.0099 0.7884
vn 0.576 -0.2668 -0.7727
vn -0.9439 -0.3304 0
vn 0.595 -0.254 0.7625
vn 0.3732 0.2612 -0.8902
vn -0.9719 0.2352 0
vn 0.3746 0.2622 0.8893
vn 0.3865 0.0153 -0.9221
vn 0.5976 -0.0142 -0.8017
vn -0.9999 0.0108 0
vn 0.3882 -0.0112 0.9215
vn 0.6151 0.0099 0.7884
vn 0.576 -0.2668 -0.7727
vn -0.9439 -0.3304 0
vn 0.595 -0.254 0.7625
g Gengon001
usemtl tinted
f 1/1/1 2/2/1 3/3/1
f 1/4/2 3/5/2 4/6/2
f 1/7/3 4/8/3 5/9/3
f 1/10/4 5/11/4 6/12/4
f 1/13/5 6/14/5 2/15/5
f 7/16/6 3/17/6 2/18/6
f 2/18/7 8/19/7 7/16/7
f 9/20/8 4/21/8 3/22/8
f 3/22/9 7/23/9 9/20/9
f 10/24/10 5/25/10 4/26/10
f 4/26/11 9/27/11 10/24/11
f 11/28/12 6/29/12 5/30/12
f 5/30/13 10/31/13 11/28/13
f 8/32/14 2/33/14 6/34/14
f 6/34/15 11/35/15 8/32/15
f 8/36/16 12/37/16 7/38/16
f 7/39/17 12/40/17 9/41/17
f 9/42/18 12/43/18 10/44/18
f 10/45/19 12/46/19 11/47/19
f 11/48/20 12/49/20 8/50/20
g Gengon002
usemtl tinted
f 13/51/21 14/52/21 15/53/21
f 13/54/22 15/55/22 16/56/22
f 13/57/23 16/58/23 17/59/23
f 13/60/24 17/61/24 18/62/24
f 13/63/25 18/64/25 14/65/25
f 19/66/26 15/67/26 14/68/26
f 14/68/26 20/69/26 19/66/26
f 21/70/27 16/71/27 15/72/27
f 15/72/27 19/73/27 21/70/27
f 22/74/28 17/75/28 16/76/28
f 16/76/28 21/77/28 22/74/28
f 23/78/29 18/79/29 17/80/29
f 17/80/29 22/81/29 23/78/29
f 20/82/30 14/83/30 18/84/30
f 18/84/30 23/85/30 20/82/30
f 20/86/31 24/87/31 19/88/31
f 19/89/32 24/90/32 21/91/32
f 21/92/33 24/93/33 22/94/33
f 22/95/34 24/96/34 23/97/34
f 23/98/35 24/99/35 20/100/35
g Gengon003
usemtl tinted
f 25/101/36 26/102/36 27/103/36
f 25/104/37 27/105/37 28/106/37
f 25/107/38 28/108/38 29/109/38
f 25/110/39 29/111/39 30/112/39
f 25/113/40 30/114/40 26/115/40
f 31/116/41 27/117/41 26/118/41
f 26/118/41 32/119/41 31/116/41
f 33/120/42 28/121/42 27/122/42
f 27/122/42 31/123/42 33/120/42
f 34/124/43 29/125/43 28/126/43
f 28/126/43 33/127/43 34/124/43
f 35/128/44 30/129/44 29/130/44
f 29/130/44 34/131/44 35/128/44
f 32/132/45 26/133/45 30/134/45
f 30/134/45 35/135/45 32/132/45
f 32/136/46 36/137/46 31/138/46
f 31/139/47 36/140/47 33/141/47
f 33/142/48 36/143/48 34/144/48
f 34/145/49 36/146/49 35/147/49
f 35/148/50 36/149/50 32/150/50
g Gengon004
usemtl tinted
f 37/151/51 38/152/51 39/153/51
f 37/154/52 39/155/52 40/156/52
f 37/157/53 40/158/53 41/159/53
f 37/160/54 41/161/54 42/162/54
f 37/163/55 42/164/55 38/165/55
f 43/166/56 39/167/56 38/168/56
f 38/168/56 44/169/56 43/166/56
f 45/170/57 40/171/57 39/172/57
f 39/172/57 43/173/57 45/170/57
f 46/174/58 41/175/58 40/176/58
f 40/176/58 45/177/58 46/174/58
f 47/178/59 42/179/59 41/180/59
f 41/180/59 46/181/59 47/178/59
f 44/182/60 38/183/60 42/184/60
f 42/184/60 47/185/60 44/182/60
f 44/186/61 48/187/61 43/188/61
f 43/189/62 48/190/62 45/191/62
f 45/192/63 48/193/63 46/194/63
f 46/195/64 48/196/64 47/197/64
f 47/198/65 48/199/65 44/200/65
g Gengon005
usemtl tinted
f 49/201/66 50/202/66 51/203/66
f 49/204/67 51/205/67 52/206/67
f 49/207/68 52/208/68 53/209/68
f 49/210/69 53/211/69 50/212/69
f 54/213/70 51/214/70 50/215/70
f 50/215/71 55/216/71 54/213/71
f 56/217/72 52/218/72 51/219/72
f 51/219/73 54/220/73 56/217/73
f 57/221/74 53/222/74 52/223/74
f 52/223/75 56/224/75 57/221/75
f 55/225/76 50/226/76 53/227/76
f 53/227/77 57/228/77 55/225/77
f 55/229/78 58/230/78 54/231/78
f 54/232/79 58/233/79 56/234/79
f 56/235/80 58/236/80 57/237/80
f 57/238/81 58/239/81 55/240/81
g Gengon006
usemtl tinted
f 59/241/82 60/242/82 61/243/82
f 59/244/83 61/245/83 62/246/83
f 59/247/84 62/248/84 63/249/84
f 59/250/85 63/251/85 60/252/85
f 64/253/86 61/254/86 60/255/86
f 60/255/87 65/256/87 64/253/87
f 66/257/88 62/258/88 61/259/88
f 61/259/89 64/260/89 66/257/89
f 67/261/90 63/262/90 62/263/90
f 62/263/91 66/264/91 67/261/91
f 65/265/92 60/266/92 63/267/92
f 63/267/93 67/268/93 65/265/93
f 65/269/94 68/270/94 64/271/94
f 64/272/95 68/273/95 66/274/95
f 66/275/96 68/276/96 67/277/96
f 67/278/97 68/279/97 65/280/97
g Gengon007
usemtl tinted
f 69/281/98 70/282/98 71/283/98
f 69/284/99 71/285/99 72/286/99
f 69/287/100 72/288/100 73/289/100
f 69/290/101 73/291/101 74/292/101
f 69/293/102 74/294/102 75/295/102
f 69/296/103 75/297/103 70/298/103
f 76/299/104 71/300/104 70/301/104
f 70/301/105 77/302/105 76/299/105
f 78/303/106 72/304/106 71/305/106
f 71/305/107 76/306/107 78/303/107
f 79/307/108 73/308/108 72/309/108
f 72/309/109 78/310/109 79/307/109
f 80/311/110 74/312/110 73/313/110
f 73/313/111 79/314/111 80/311/111
f 81/315/112 75/316/112 74/317/112
f 74/317/113 80/318/113 81/315/113
f 77/319/114 70/320/114 75/321/114
f 75/321/115 81/322/115 77/319/115
f 77/323/116 82/324/116 76/325/116
f 76/326/117 82/327/117 78/328/117
f 78/329/118 82/330/118 79/331/118
f 79/332/119 82/333/119 80/334/119
f 80/335/120 82/336/120 81/337/120
f 81/338/121 82/339/121 77/340/121
g Gengon008
usemtl tinted
f 83/341/122 84/342/122 85/343/122
f 83/344/123 85/345/123 86/346/123
f 83/347/124 86/348/124 87/349/124
f 83/350/125 87/351/125 88/352/125
f 83/353/126 88/354/126 89/355/126
f 83/356/127 89/357/127 84/358/127
f 90/359/128 85/360/128 84/361/128
f 84/361/129 91/362/129 90/359/129
f 92/363/130 86/364/130 85/365/130
f 85/365/131 90/366/131 92/363/131
f 93/367/132 87/368/132 86/369/132
f 86/369/133 92/370/133 93/367/133
f 94/371/134 88/372/134 87/373/134
f 87/373/135 93/374/135 94/371/135
f 95/375/136 89/376/136 88/377/136
f 88/377/137 94/378/137 95/375/137
f 91/379/138 84/380/138 89/381/138
f 89/381/139 95/382/139 91/379/139
f 91/383/140 96/384/140 90/385/140
f 90/386/141 96/387/141 92/388/141
f 92/389/142 96/390/142 93/391/142
f 93/392/143 96/393/143 94/394/143
f 94/395/144 96/396/144 95/397/144
f 95/398/145 96/399/145 91/400/145
g Gengon009
usemtl tinted
f 97/401/146 98/402/146 99/403/146
f 97/404/147 99/405/147 100/406/147
f 97/407/148 100/408/148 98/409/148
f 101/410/149 99/411/149 98/412/149
f 98/412/150 102/413/150 101/410/150
f 103/414/151 100/415/151 99/416/151
f 99/416/151 101/417/151 103/414/151
f 102/418/152 98/419/152 100/420/152
f 100/420/153 103/421/153 102/418/153
f 102/422/154 104/423/154 101/424/154
f 101/425/155 104/426/155 103/427/155
f 103/428/156 104/429/156 102/430/156
g Gengon010
usemtl tinted
f 105/431/157 106/432/157 107/433/157
f 105/434/158 107/435/158 108/436/158
f 105/437/159 108/438/159 106/439/159
f 109/440/160 107/441/160 106/442/160
f 106/442/161 110/443/161 109/440/161
f 111/444/162 108/445/162 107/446/162
f 107/446/162 109/447/162 111/444/162
f 110/448/163 106/449/163 108/450/163
f 108/450/164 111/451/164 110/448/164
f 110/452/165 112/453/165 109/454/165
f 109/455/166 112/456/166 111/457/166
f 111/458/167 112/459/167 110/460/167
