# Generated by tools/gen_obj.py from art/obj_models/crystal_mount/crystal_mount.obj; blocks, origin at the block's lowest corner.
mtllib femtocraft.mtl
v 0.125 0 0.875
v 0.125 0 0.125
v 0.875 0 0.125
v 0.875 0 0.875
v 0.125 0.125 0.875
v 0.875 0.125 0.875
v 0.875 0.125 0.125
v 0.125 0.125 0.125
v 0.125 0.875 0.875
v 0.125 0.875 0.125
v 0.875 0.875 0.125
v 0.875 0.875 0.875
v 0.125 1 0.875
v 0.875 1 0.875
v 0.875 1 0.125
v 0.125 1 0.125
v 0.5 0.25 0.5
v 0.5707 0.35 0.4293
v 0.6 0.35 0.5
v 0.5 0.35 0.4
v 0.4293 0.35 0.4293
v 0.4 0.35 0.5
v 0.4293 0.35 0.5707
v 0.5 0.35 0.6
v 0.5707 0.35 0.5707
v 0.5707 0.45 0.4293
v 0.6 0.45 0.5
v 0.5 0.45 0.4
v 0.4293 0.45 0.4293
v 0.4 0.45 0.5
v 0.4293 0.45 0.5707
v 0.5 0.45 0.6
v 0.5707 0.45 0.5707
v 0.5707 0.55 0.4293
v 0.6 0.55 0.5
v 0.5 0.55 0.4
v 0.4293 0.55 0.4293
v 0.4 0.55 0.5
v 0.4293 0.55 0.5707
v 0.5 0.55 0.6
v 0.5707 0.55 0.5707
v 0.5707 0.65 0.4293
v 0.6 0.65 0.5
v 0.5 0.65 0.4
v 0.4293 0.65 0.4293
v 0.4 0.65 0.5
v 0.4293 0.65 0.5707
v 0.5 0.65 0.6
v 0.5707 0.65 0.5707
v 0.5 0.75 0.5
v 1.0031 0.2905 0.457
v 0.7452 0.4155 0.3156
v 0.8038 0.4155 0.457
v 0.8861 0.2905 0.1747
v 0.7824 0.125 0.2176
v 0.5 0.25 0.3
v 0.6414 0.25 0.3586
v 0.5 0.125 0.1007
v 0.457 0.2905 -0.0031
v 0.3156 0.4155 0.2548
v 0.457 0.4155 0.1962
v 0.1747 0.2905 0.1139
v 0.2176 0.125 0.2176
v 0.3 0.25 0.5
v 0.3586 0.25 0.3586
v 0.1007 0.125 0.5
v -0.0031 0.2905 0.543
v 0.2548 0.4155 0.6844
v 0.1962 0.4155 0.543
v 0.1139 0.2905 0.8253
v 0.2176 0.125 0.7824
v 0.5 0.25 0.7
v 0.3586 0.25 0.6414
v 0.5 0.125 0.8993
v 0.5431 0.2905 1.003
v 0.6841 0.4155 0.7447
v 0.5431 0.4155 0.8037
v 0.8254 0.2905 0.886
v 0.7824 0.125 0.7824
v 0.7 0.25 0.5
v 0.6411 0.25 0.6411
v 0.8993 0.125 0.5
v 0.5 0.1875 0.5
v 0.7519 0.3327 0.4785
v 0.6933 0.3327 0.3371
v 0.9512 0.2077 0.4785
v 0.8342 0.2077 0.1962
v 0.4785 0.2077 0.0488
v 0.4785 0.3327 0.2481
v 0.3371 0.3327 0.3067
v 0.1962 0.2077 0.1658
v 0.0488 0.2077 0.5215
v 0.2481 0.3327 0.5215
v 0.3067 0.3327 0.6629
v 0.1658 0.2077 0.8038
v 0.5215 0.2078 0.9511
v 0.5215 0.3328 0.7518
v 0.6626 0.3328 0.6929
v 0.8039 0.2078 0.8342
v -0.0031 0.7095 0.457
v 0.2548 0.5845 0.3156
v 0.1962 0.5845 0.457
v 0.1139 0.7095 0.1747
v 0.2176 0.875 0.2176
v 0.5 0.75 0.3
v 0.3586 0.75 0.3586
v 0.5 0.875 0.1007
v 0.543 0.7095 -0.0031
v 0.6844 0.5845 0.2548
v 0.543 0.5845 0.1962
v 0.8253 0.7095 0.1139
v 0.7824 0.875 0.2176
v 0.7 0.75 0.5
v 0.6414 0.75 0.3586
v 0.8993 0.875 0.5
v 1.0031 0.7095 0.543
v 0.7452 0.5845 0.6844
v 0.8038 0.5845 0.543
v 0.8861 0.7095 0.8253
v 0.7824 0.875 0.7824
v 0.5 0.75 0.7
v 0.6414 0.75 0.6414
v 0.5 0.875 0.8993
v 0.4569 0.7095 1.003
v 0.3159 0.5845 0.7447
v 0.4569 0.5845 0.8037
v 0.1746 0.7095 0.886
v 0.2176 0.875 0.7824
v 0.3 0.75 0.5
v 0.3589 0.75 0.6411
v 0.1007 0.875 0.5
v 0.5 0.8125 0.5
v 0.2481 0.6673 0.4785
v 0.3067 0.6673 0.3371
v 0.0488 0.7923 0.4785
v 0.1658 0.7923 0.1962
v 0.5215 0.7923 0.0488
v 0.5215 0.6673 0.2481
v 0.6629 0.6673 0.3067
v 0.8038 0.7923 0.1658
v 0.9512 0.7923 0.5215
v 0.7519 0.6673 0.5215
v 0.6933 0.6673 0.6629
v 0.8342 0.7923 0.8038
v 0.4785 0.7922 0.9511
v 0.4785 0.6672 0.7518
v 0.3374 0.6672 0.6929
v 0.1961 0.7922 0.8342
vt 0 0.25
vt 0 0
vt 0.25 0
vt 0.25 0.25
vt 0.5 0
vt 0.5 0.25
vt 0.25 0.2813
vt 0 0.2813
vt 0.25 0.25
vt 0.5 0.25
vt 0.5 0
vt 0.25 0
vt 0 0
vt 0 0.25
vt 0 0.2813
vt 0.25 0.2813
vt 0.7354 0.2171
vt 0.8631 0.276
vt 0.8169 0.276
vt 0.9093 0.276
vt 0.586 0.276
vt 0.6321 0.276
vt 0.6783 0.276
vt 0.7245 0.276
vt 0.7707 0.276
vt 0.8631 0.3348
vt 0.8169 0.3348
vt 0.4936 0.276
vt 0.5398 0.3348
vt 0.4936 0.3348
vt 0.5398 0.276
vt 0.586 0.3348
vt 0.6321 0.3348
vt 0.6783 0.3348
vt 0.7245 0.3348
vt 0.7707 0.3348
vt 0.8631 0.3936
vt 0.8169 0.3936
vt 0.5398 0.3936
vt 0.4936 0.3936
vt 0.586 0.3936
vt 0.6321 0.3936
vt 0.6783 0.3936
vt 0.7245 0.3936
vt 0.7707 0.3936
vt 0.8631 0.4524
vt 0.8169 0.4524
vt 0.5398 0.4524
vt 0.4936 0.4524
vt 0.586 0.4524
vt 0.6321 0.4524
vt 0.6783 0.4524
vt 0.7245 0.4524
vt 0.7707 0.4524
vt 0.7245 0.5112
vt 0.1466 0.2841
vt 0.2229 0.3582
vt 0.172 0.3582
vt 0.2483 0.2841
vt 0.0003 0.2817
vt 0.0759 0.3552
vt 0.0255 0.3553
vt 0.1012 0.2818
vt 0.368 0.3432
vt 0.3358 0.412
vt 0.2965 0.3691
vt 0.2991 0.311
vt 0.3421 0.2719
vt 0.4001 0.2743
vt 0.4394 0.3172
vt 0.4368 0.3753
vt 0.3939 0.4146
vt 0.5 0
vt 0.5781 0
vt 0.5781 0.0313
vt 0.5 0.0313
vt 0.5781 0.0625
vt 0.5 0.0625
vt 0.1466 0.2841
vt 0.2229 0.3582
vt 0.172 0.3582
vt 0.2483 0.2841
vt 0.0003 0.2817
vt 0.0759 0.3552
vt 0.0255 0.3553
vt 0.1012 0.2818
vt 0.368 0.3432
vt 0.4001 0.2743
vt 0.4394 0.3172
vt 0.4368 0.3753
vt 0.3939 0.4146
vt 0.3358 0.412
vt 0.2965 0.3691
vt 0.2991 0.311
vt 0.3421 0.2719
vt 0.5781 0.0625
vt 0.5 0.0625
vt 0.5 0.0313
vt 0.5781 0.0313
vt 0.5 0
vt 0.5781 0
vn 0 -1 0
vn 0 1 0
vn 0 0 1
vn 1 0 0
vn 0 0 -1
vn -1 0 0
vn 0 -1 0
vn 0 1 0
vn 0 0 1
vn 1 0 0
vn 0 0 -1
vn -1 0 0
vn 0.6786 -0.6786 -0.2811
vn 0.2811 -0.6786 -0.6786
vn -0.2811 -0.6786 -0.6786
vn -0.6786 -0.6786 -0.2811
vn -0.6786 -0.6786 0.2811
vn -0.2811 -0.6786 0.6786
vn 0.2811 -0.6786 0.6786
vn 0.6786 -0.6786 0.2811
vn 0.9239 0 -0.3827
vn 0.3827 0 -0.9239
vn -0.3827 0 -0.9239
vn -0.9239 0 -0.3827
vn -0.9239 0 0.3827
vn -0.3827 0 0.9239
vn 0.3827 0 0.9239
vn 0.9239 0 0.3827
vn 0.6786 0.6786 -0.2811
vn 0.2811 0.6786 -0.6786
vn -0.2811 0.6786 -0.6786
vn -0.6786 0.6786 -0.2811
vn -0.6786 0.6786 0.2811
vn -0.2811 0.6786 0.6786
vn 0.2811 0.6786 0.6786
vn 0.6786 0.6786 0.2811
vn 0.5189 0.8274 -0.2149
vn 0.2149 0.8274 -0.5189
vn -0.2149 0.8274 -0.5189
vn -0.5189 0.8274 -0.2149
vn -0.5189 0.8274 0.2149
vn -0.2149 0.8274 0.5189
vn 0.2166 0.8271 0.5187
vn 0.2146 0.828 0.5181
vn 0.517 0.8283 0.2159
vn 0.5189 0.8274 0.2149
vn -0.0001 1 -0.0001
vn -0.2983 0.9545 -0.0004
vn -0.2109 0.9545 0.2109
vn 0 0.9545 0.2983
vn 0.2109 0.9545 0.2109
vn 0.2983 0.9545 0
vn 0.2109 0.9545 -0.2109
vn -0.0004 0.9545 -0.2983
vn -0.2114 0.9543 -0.2114
vn -0.7644 0.5617 0.3166
vn 0.1142 0.1821 0.9766
vn 0.7644 -0.5617 -0.3166
vn -0.6098 0.1821 -0.7713
vn 0.9766 0.1821 -0.1142
vn 0.3166 0.5617 0.7644
vn -0.3166 -0.5617 -0.7644
vn -0.7713 0.1821 0.6098
vn -0.1142 0.1821 -0.9766
vn 0.7644 0.5617 -0.3166
vn -0.7644 -0.5617 0.3166
vn 0.6098 0.1821 0.7713
vn -0.9766 0.1824 0.1144
vn -0.3189 0.5612 -0.7638
vn 0.3167 -0.5612 0.7647
vn 0.771 0.1816 -0.6103
vn -0.5189 -0.8274 -0.2149
vn -0.2149 -0.8274 -0.5189
vn 0.2149 -0.8274 -0.5189
vn 0.5189 -0.8274 -0.2149
vn 0.5189 -0.8274 0.2149
vn 0.2149 -0.8274 0.5189
vn -0.2166 -0.8271 0.5187
vn -0.2146 -0.828 0.5181
vn -0.517 -0.8283 0.2159
vn -0.5189 -0.8274 0.2149
vn 0.0001 -1 -0.0001
vn 0.2983 -0.9545 -0.0004
vn 0.2109 -0.9545 0.2109
vn 0 -0.9545 0.2983
vn -0.2109 -0.9545 0.2109
vn -0.2983 -0.9545 0
vn -0.2109 -0.9545 -0.2109
vn 0.0004 -0.9545 -0.2983
vn 0.2114 -0.9543 -0.2114
vn 0.7644 -0.5617 0.3166
vn -0.1142 -0.1821 0.9766
vn -0.7644 0.5617 -0.3166
vn 0.6098 -0.1821 -0.7713
vn -0.9766 -0.1821 -0.1142
vn -0.3166 -0.5617 0.7644
vn 0.3166 0.5617 -0.7644
vn 0.7713 -0.1821 0.6098
vn 0.1142 -0.1821 -0.9766
vn -0.7644 -0.5617 -0.3166
vn 0.7644 0.5617 0.3166
vn -0.6098 -0.1821 0.7713
vn 0.9766 -0.1824 0.1144
vn 0.3189 -0.5612 -0.7638
vn -0.3167 0.5612 0.7647
vn -0.771 -0.1816 -0.6103
g BottomMount
usemtl base
f 1/1/1 2/2/1 3/3/1
f 3/3/1 4/4/1 1/1/1
f 5/3/2 6/5/2 7/6/2
f 7/6/2 8/4/2 5/3/2
f 1/1/3 4/4/3 6/7/3
f 6/7/3 5/8/3 1/1/3
f 4/1/4 3/4/4 7/7/4
f 7/7/4 6/8/4 4/1/4
f 3/1/5 2/4/5 8/7/5
f 8/7/5 7/8/5 3/1/5
f 2/1/6 1/4/6 5/7/6
f 5/7/6 8/8/6 2/1/6
g TopMount
usemtl base
f 9/9/7 10/10/7 11/11/7
f 11/11/7 12/12/7 9/9/7
f 13/13/8 14/12/8 15/9/8
f 15/9/8 16/14/8 13/13/8
f 9/15/9 12/16/9 14/9/9
f 14/9/9 13/14/9 9/15/9
f 12/15/10 11/16/10 15/9/10
f 15/9/10 14/14/10 12/15/10
f 11/15/11 10/16/11 16/9/11
f 16/9/11 15/14/11 11/15/11
f 10/15/12 9/16/12 13/9/12
f 13/9/12 16/14/12 10/15/12
g Crystal
usemtl base
f 17/17/13 18/18/13 19/19/13
f 17/17/14 20/20/14 18/18/14
f 17/17/15 21/21/15 20/20/15
f 17/17/16 22/22/16 21/21/16
f 17/17/17 23/23/17 22/22/17
f 17/17/18 24/24/18 23/23/18
f 17/17/19 25/25/19 24/24/19
f 17/17/20 19/19/20 25/25/20
f 19/19/21 26/26/21 27/27/21
f 19/19/21 18/18/21 26/26/21
f 18/28/22 28/29/22 26/30/22
f 18/28/22 20/31/22 28/29/22
f 20/31/23 29/32/23 28/29/23
f 20/31/23 21/21/23 29/32/23
f 21/21/24 30/33/24 29/32/24
f 21/21/24 22/22/24 30/33/24
f 22/22/25 31/34/25 30/33/25
f 22/22/25 23/23/25 31/34/25
f 23/23/26 32/35/26 31/34/26
f 23/23/26 24/24/26 32/35/26
f 24/24/27 33/36/27 32/35/27
f 24/24/27 25/25/27 33/36/27
f 25/25/28 27/27/28 33/36/28
f 25/25/28 19/19/28 27/27/28
f 27/27/21 34/37/21 35/38/21
f 27/27/21 26/26/21 34/37/21
f 26/30/22 36/39/22 34/40/22
f 26/30/22 28/29/22 36/39/22
f 28/29/23 37/41/23 36/39/23
f 28/29/23 29/32/23 37/41/23
f 29/32/24 38/42/24 37/41/24
f 29/32/24 30/33/24 38/42/24
f 30/33/25 39/43/25 38/42/25
f 30/33/25 31/34/25 39/43/25
f 31/34/26 40/44/26 39/43/26
f 31/34/26 32/35/26 40/44/26
f 32/35/27 41/45/27 40/44/27
f 32/35/27 33/36/27 41/45/27
f 33/36/28 35/38/28 41/45/28
f 33/36/28 27/27/28 35/38/28
f 35/38/21 42/46/21 43/47/21
f 35/38/21 34/37/21 42/46/21
f 34/40/22 44/48/22 42/49/22
f 34/40/22 36/39/22 44/48/22
f 36/39/23 45/50/23 44/48/23
f 36/39/23 37/41/23 45/50/23
f 37/41/24 46/51/24 45/50/24
f 37/41/24 38/42/24 46/51/24
f 38/42/25 47/52/25 46/51/25
f 38/42/25 39/43/25 47/52/25
f 39/43/26 48/53/26 47/52/26
f 39/43/26 40/44/26 48/53/26
f 40/44/27 49/54/27 48/53/27
f 40/44/27 41/45/27 49/54/27
f 41/45/28 43/47/28 49/54/28
f 41/45/28 35/38/28 43/47/28
f 43/47/29 42/46/29 50/55/29
f 42/49/30 44/48/30 50/55/30
f 44/48/31 45/50/31 50/55/31
f 45/50/32 46/51/32 50/55/32
f 46/51/33 47/52/33 50/55/33
f 47/52/34 48/53/34 50/55/34
f 48/53/35 49/54/35 50/55/35
f 49/54/36 43/47/36 50/55/36
g BottomGripBase
usemtl base
f 51/56/37 52/57/37 53/58/37
f 51/56/37 54/59/37 52/57/37
f 55/60/38 56/61/38 57/62/38
f 55/60/38 58/63/38 56/61/38
f 59/56/39 60/57/39 61/58/39
f 59/56/39 62/59/39 60/57/39
f 63/60/40 64/61/40 65/62/40
f 63/60/40 66/63/40 64/61/40
f 67/56/41 68/57/41 69/58/41
f 67/56/41 70/59/41 68/57/41
f 71/60/42 72/61/42 73/62/42
f 71/60/42 74/63/42 72/61/42
f 75/56/43 76/57/43 77/58/43
f 75/56/44 78/59/44 76/57/44
f 79/60/45 80/61/45 81/62/45
f 79/60/46 82/63/46 80/61/46
f 83/64/47 80/65/48 57/66/49
f 83/64/47 57/66/49 56/67/50
f 83/64/47 56/67/50 65/68/51
f 83/64/47 65/68/51 64/69/52
f 83/64/47 64/69/52 73/70/53
f 83/64/47 73/70/53 72/71/54
f 83/64/47 72/71/54 81/72/55
f 83/64/47 81/72/55 80/65/48
f 57/73/56 80/74/56 84/75/56
f 84/75/56 85/76/56 57/73/56
f 80/73/57 82/74/57 86/75/57
f 86/75/57 84/76/57 80/73/57
f 82/77/58 55/78/58 87/76/58
f 87/76/58 86/75/58 82/77/58
f 55/73/59 57/74/59 85/75/59
f 85/75/59 87/76/59 55/73/59
f 56/73/60 58/74/60 88/75/60
f 88/75/60 89/76/60 56/73/60
f 65/73/61 56/74/61 89/75/61
f 89/75/61 90/76/61 65/73/61
f 58/77/62 63/78/62 91/76/62
f 91/76/62 88/75/62 58/77/62
f 63/73/63 65/74/63 90/75/63
f 90/75/63 91/76/63 63/73/63
f 64/73/64 66/74/64 92/75/64
f 92/75/64 93/76/64 64/73/64
f 73/73/65 64/74/65 93/75/65
f 93/75/65 94/76/65 73/73/65
f 66/77/66 71/78/66 95/76/66
f 95/76/66 92/75/66 66/77/66
f 71/73/67 73/74/67 94/75/67
f 94/75/67 95/76/67 71/73/67
f 72/73/68 74/74/68 96/75/68
f 96/75/68 97/76/68 72/73/68
f 81/73/69 72/74/69 97/75/69
f 97/75/69 98/76/69 81/73/69
f 74/77/70 79/78/70 99/76/70
f 99/76/70 96/75/70 74/77/70
f 79/73/71 81/74/71 98/75/71
f 98/75/71 99/76/71 79/73/71
f 85/76/56 84/75/56 53/77/56
f 53/77/56 52/78/56 85/76/56
f 84/76/57 86/75/57 51/77/57
f 51/77/57 53/78/57 84/76/57
f 86/75/58 87/76/58 54/73/58
f 54/73/58 51/74/58 86/75/58
f 87/76/59 85/75/59 52/77/59
f 52/77/59 54/78/59 87/76/59
f 90/76/61 89/75/61 61/77/61
f 61/77/61 60/78/61 90/76/61
f 89/76/60 88/75/60 59/77/60
f 59/77/60 61/78/60 89/76/60
f 88/75/62 91/76/62 62/73/62
f 62/73/62 59/74/62 88/75/62
f 91/76/63 90/75/63 60/77/63
f 60/77/63 62/78/63 91/76/63
f 94/76/65 93/75/65 69/77/65
f 69/77/65 68/78/65 94/76/65
f 93/76/64 92/75/64 67/77/64
f 67/77/64 69/78/64 93/76/64
f 92/75/66 95/76/66 70/73/66
f 70/73/66 67/74/66 92/75/66
f 95/76/67 94/75/67 68/77/67
f 68/77/67 70/78/67 95/76/67
f 98/76/69 97/75/69 77/77/69
f 77/77/69 76/78/69 98/76/69
f 97/76/68 96/75/68 75/77/68
f 75/77/68 77/78/68 97/76/68
f 96/75/70 99/76/70 78/73/70
f 78/73/70 75/74/70 96/75/70
f 99/76/71 98/75/71 76/77/71
f 76/77/71 78/78/71 99/76/71
g TopGripBase
usemtl base
f 100/79/72 101/80/72 102/81/72
f 100/79/72 103/82/72 101/80/72
f 104/83/73 105/84/73 106/85/73
f 104/83/73 107/86/73 105/84/73
f 108/79/74 109/80/74 110/81/74
f 108/79/74 111/82/74 109/80/74
f 112/83/75 113/84/75 114/85/75
f 112/83/75 115/86/75 113/84/75
f 116/79/76 117/80/76 118/81/76
f 116/79/76 119/82/76 117/80/76
f 120/83/77 121/84/77 122/85/77
f 120/83/77 123/86/77 121/84/77
f 124/79/78 125/80/78 126/81/78
f 124/79/79 127/82/79 125/80/79
f 128/83/80 129/84/80 130/85/80
f 128/83/81 131/86/81 129/84/81
f 132/87/82 129/88/83 106/89/84
f 132/87/82 106/89/84 105/90/85
f 132/87/82 105/90/85 114/91/86
f 132/87/82 114/91/86 113/92/87
f 132/87/82 113/92/87 122/93/88
f 132/87/82 122/93/88 121/94/89
f 132/87/82 121/94/89 130/95/90
f 132/87/82 130/95/90 129/88/83
f 106/96/91 129/97/91 133/98/91
f 133/98/91 134/99/91 106/96/91
f 129/96/92 131/97/92 135/98/92
f 135/98/92 133/99/92 129/96/92
f 131/96/93 104/97/93 136/98/93
f 136/98/93 135/99/93 131/96/93
f 104/96/94 106/97/94 134/98/94
f 134/98/94 136/99/94 104/96/94
f 105/96/95 107/97/95 137/98/95
f 137/98/95 138/99/95 105/96/95
f 114/96/96 105/97/96 138/98/96
f 138/98/96 139/99/96 114/96/96
f 107/96/97 112/97/97 140/98/97
f 140/98/97 137/99/97 107/96/97
f 112/96/98 114/97/98 139/98/98
f 139/98/98 140/99/98 112/96/98
f 113/96/99 115/97/99 141/98/99
f 141/98/99 142/99/99 113/96/99
f 122/96/100 113/97/100 142/98/100
f 142/98/100 143/99/100 122/96/100
f 115/96/101 120/97/101 144/98/101
f 144/98/101 141/99/101 115/96/101
f 120/96/102 122/97/102 143/98/102
f 143/98/102 144/99/102 120/96/102
f 121/96/103 123/97/103 145/98/103
f 145/98/103 146/99/103 121/96/103
f 130/96/104 121/97/104 146/98/104
f 146/98/104 147/99/104 130/96/104
f 123/96/105 128/97/105 148/98/105
f 148/98/105 145/99/105 123/96/105
f 128/96/106 130/97/106 147/98/106
f 147/98/106 148/99/106 128/96/106
f 134/99/91 133/98/91 102/100/91
f 102/100/91 101/101/91 134/99/91
f 133/99/92 135/98/92 100/100/92
f 100/100/92 102/101/92 133/99/92
f 135/99/93 136/98/93 103/100/93
f 103/100/93 100/101/93 135/99/93
f 136/99/94 134/98/94 101/100/94
f 101/100/94 103/101/94 136/99/94
f 139/99/96 138/98/96 110/100/96
f 110/100/96 109/101/96 139/99/96
f 138/99/95 137/98/95 108/100/95
f 108/100/95 110/101/95 138/99/95
f 137/99/97 140/98/97 111/100/97
f 111/100/97 108/101/97 137/99/97
f 140/99/98 139/98/98 109/100/98
f 109/100/98 111/101/98 140/99/98
f 143/99/100 142/98/100 118/100/100
f 118/100/100 117/101/100 143/99/100
f 142/99/99 141/98/99 116/100/99
f 116/100/99 118/101/99 142/99/99
f 141/99/101 144/98/101 119/100/101
f 119/100/101 116/101/101 141/99/101
f 144/99/102 143/98/102 117/100/102
f 117/100/102 119/101/102 144/99/102
f 147/99/104 146/98/104 126/100/104
f 126/100/104 125/101/104 147/99/104
f 146/99/103 145/98/103 124/100/103
f 124/100/103 126/101/103 146/99/103
f 145/99/105 148/98/105 127/100/105
f 127/100/105 124/101/105 145/99/105
f 148/99/106 147/98/106 125/100/106
f 125/100/106 127/101/106 148/99/106
