# Generated by tools/gen_obj.py from art/obj_models/growth_chamber/growth chamber.obj; blocks, origin at the block's lowest corner.
mtllib femtocraft.mtl
v 2 1.25 1
v 1.5 1 0.134
v 1.5 1.25 0.134
v 0.5 1 0.134
v 0.5 1.25 0.134
v 0 1 1
v 0 1.25 1
v 0.5 1 1.866
v 0.5 1.25 1.866
v 1.5 1.25 1.866
v 2 1 1
v 1.5 1 1.866
v 1.45 1.25 1.7794
v 0.55 1.25 0.2206
v 1.45 1.2 0.2206
v 1.45 1.25 0.2206
v 0.1 1.25 1
v 0.55 1.2 0.2206
v 0.55 1.25 1.7794
v 0.1 1.2 1
v 1.45 1.2 1.7794
v 1.9 1.2 1
v 1.9 1.25 1
v 0.55 1.2 1.7794
v 1.475 1.25 0.1773
v 1.475 2.875 0.1773
v 1.95 2.875 1
v 1.95 1.25 1
v 0.525 1.25 0.1773
v 0.525 2.875 0.1773
v 0.05 1.25 1
v 0.05 2.875 1
v 0.525 1.25 1.8227
v 0.525 2.875 1.8227
v 1.475 1.25 1.8227
v 1.475 2.875 1.8227
v 1 3 1
v 2 3 1
v 1.5 3 0.134
v 0.5 3 0.134
v 0 3 1
v 0.5 3 1.866
v 1.5 3 1.866
v 2 2.875 1
v 1.5 2.875 0.134
v 0.5 2.875 0.134
v 0 2.875 1
v 0.5 2.875 1.866
v 1.5 2.875 1.866
v 1 2.875 1
v 1.1875 2.775 1.5688
v 1.1875 2.775 1.6313
v 0.8125 2.775 1.6313
v 0.8125 2.775 1.5688
v 1.1875 2.9 1.5688
v 1.1875 2.9 1.6313
v 0.8125 2.9 1.6313
v 0.8125 2.9 1.5688
v 0.5471 2.775 0.522
v 0.6012 2.775 0.5532
v 0.4137 2.775 0.878
v 0.3596 2.775 0.8468
v 0.5471 2.9 0.522
v 0.6012 2.9 0.5532
v 0.4137 2.9 0.878
v 0.3596 2.9 0.8468
v 1.3988 2.775 0.5532
v 1.4529 2.775 0.522
v 1.6404 2.775 0.8468
v 1.5863 2.775 0.878
v 1.3988 2.9 0.5532
v 1.4529 2.9 0.522
v 1.6404 2.9 0.8468
v 1.5863 2.9 0.878
v 2 0 0
v 2 0 2
v 0 0 2
v 0 0 0
v 0 1 1
v 0.5 1 1.866
v 1.5 1 1.866
v 2 1 1
v 1.5 1 0.134
v 0.5 1 0.134
vt 0.1875 0.7031
vt 0.0625 0.6719
vt 0.0625 0.7031
vt 0.1875 0.6719
vt 0.1875 1
vt 0.1875 0.7813
vt 0.0625 0.7813
vt 0.1836 0.7656
vt 0.0625 0.75
vt 0.1875 0.75
vt 0.1875 0.6563
vt 0.0625 0.6406
vt 0.0625 0.6563
vt 0.4531 1
vt 0.4531 0.7813
vt 0.5156 0.8906
vt 0.1875 0.6406
vt 0.0625 1
vt 0 0.8906
vt 0.25 0.8906
vt 0.0664 0.7656
vt 0.3281 0.7813
vt 0.3281 1
vt 0.2656 0.8906
vt 0.75 0.5938
vt 0.75 1
vt 1 1
vt 1 0.5938
vt 0.125 0.8906
vt 0.25 0.8906
vt 0.1875 1
vt 0.0625 1
vt 0 0.8906
vt 0.0625 0.7813
vt 0.1875 0.7813
vt 0.1875 0.7344
vt 0.1875 0.7188
vt 0.0625 0.7188
vt 0.0625 0.7344
vt 0 0.8906
vt 0.4531 0.6406
vt 0.4531 0.625
vt 0.3281 0.625
vt 0.3281 0.6406
vt 0.3281 0.7031
vt 0.3438 0.7031
vt 0.3438 0.6563
vt 0.3281 0.6563
vt 0.4531 0.7656
vt 0.3281 0.7656
vt 0.3281 0.7188
vt 0.4531 0.7188
vt 0.4531 0.6406
vt 0.4531 0.625
vt 0.3281 0.625
vt 0.3281 0.6406
vt 0.3281 0.7031
vt 0.3438 0.7031
vt 0.3438 0.6563
vt 0.3281 0.6563
vt 0.3281 0.7656
vt 0.4531 0.7656
vt 0.4531 0.7188
vt 0.3281 0.7188
vt 0.3281 0.625
vt 0.3281 0.6406
vt 0.4531 0.6406
vt 0.4531 0.625
vt 0.3281 0.7031
vt 0.3438 0.7031
vt 0.3438 0.6563
vt 0.3281 0.6563
vt 0.3281 0.7656
vt 0.4531 0.7656
vt 0.4531 0.7188
vt 0.3281 0.7188
vt 0.75 0.25
vt 0.75 0.5
vt 0.5 0.5
vt 0.5 0.25
vt 0.75 0.3906
vt 0.8125 0.2813
vt 0.9375 0.2813
vt 1 0.3906
vt 0.9375 0.5
vt 0.8125 0.5
vt 0.9063 0
vt 1 0.125
vt 0.8906 0.125
vt 0.6875 0.125
vt 0.5625 0.125
vt 0.5 0
vt 0.75 0
vt 0.75 0.125
vt 0.875 0.25
vn 0.866 0 -0.5
vn 0 0 -1
vn -0.866 0 -0.5
vn -0.866 0 0.5
vn 0 0 1
vn 0.866 0 0.5
vn 0 -1 0
vn 0 1 0
vn 0 0 -1
vn 0.866 0 -0.5
vn 0 0 -1
vn -0.866 0 -0.5
vn -0.866 0 0.5
vn 0 0 1
vn 0.866 0 0.5
vn 0 1 0
vn 0.866 0 -0.5
vn 0 0 -1
vn -0.866 0 -0.5
vn -0.866 0 0.5
vn 0 0 1
vn 0.866 0 0.5
vn 0 -1 0
vn 0 -1 0
vn 1 0 0
vn 0 0 1
vn -1 0 0
vn 0 0 -1
vn 0 -1 0
vn 0.5 0 -0.866
vn 0.866 0 0.5
vn -0.5 0 0.866
vn -0.866 0 -0.5
vn 0 -1 0
vn -0.5 0 -0.866
vn 0.866 0 -0.5
vn 0.5 0 0.866
vn -0.866 0 0.5
vn 0 -1 0
vn 0 1 0
vn 0.7746 0.4472 0.4472
vn 0.7746 0.4472 -0.4472
vn -0.7746 0.4472 0.4472
vn -0.7746 0.4472 -0.4472
vn 0 0.1328 -0.9911
vn 0 0.1328 -0.9911
vn 0 0.1328 0.9911
vn -1 0 0
vn 1 0 0
v 2.003464 1.25 0.998
v 1.503464 1 0.132
v 1.503464 1.25 0.132
v 1.5 1.25 0.13
v 0.5 1 0.13
v 0.5 1.25 0.13
v 0.496536 1.25 0.132
v -0.003464 1 0.998
v -0.003464 1.25 0.998
v -0.003464 1.25 1.002
v 0.496536 1 1.868
v 0.496536 1.25 1.868
v 0.5 1 1.87
v 1.5 1.25 1.87
v 0.5 1.25 1.87
v 1.503464 1.25 1.868
v 2.003464 1 1.002
v 2.003464 1.25 1.002
v 1.5 0.996 0.134
v 1.5 0.996 1.866
v 0.5 0.996 1.866
v 1.45 1.254 1.7794
v 0.5 1.254 1.866
v 1.5 1.254 1.866
v 0.55 1.25 0.2246
v 1.45 1.2 0.2246
v 1.45 1.25 0.2246
v 0.103464 1.25 1.002
v 0.553464 1.2 0.2226
v 0.553464 1.25 0.2226
v 0.553464 1.25 1.7774
v 0.103464 1.2 0.998
v 0.103464 1.25 0.998
v 1.45 1.2 1.7754
v 0.55 1.25 1.7754
v 1.45 1.25 1.7754
v 1.896536 1.2 0.998
v 1.446536 1.25 1.7774
v 1.896536 1.25 0.998
v 1.45 1.204 0.2206
v 1.45 1.204 1.7794
v 1.9 1.204 1
v 1.446536 1.25 0.2226
v 1.896536 1.2 1.002
v 1.896536 1.25 1.002
v 1.503464 1 0.132
v 2.003464 1.25 0.998
v 2.003464 1 0.998
v 0.5 1 0.13
v 1.5 1.25 0.13
v 1.5 1 0.13
v -0.003464 1 0.998
v 0.496536 1.25 0.132
v 0.496536 1 0.132
v 0.496536 1 1.868
v -0.003464 1.25 1.002
v -0.003464 1 1.002
v 1.5 1.25 1.87
v 0.5 1 1.87
v 1.5 1 1.87
v 2.003464 1 1.002
v 1.503464 1.25 1.868
v 1.503464 1 1.868
v 0.5 0.996 0.134
v 0.5 0.996 1.866
v 0 0.996 1
v 1.5 0.996 0.134
v 0.5 0.996 1.866
v 0.5 0.996 0.134
v 1.5 0.996 1.866
v 1.5 0.996 0.134
v 2 0.996 1
v 1.5 1.254 0.134
v 1.9 1.254 1
v 2 1.254 1
v 1.5 1.254 0.134
v 1.45 1.254 0.2206
v 1.9 1.254 1
v 0.5 1.254 0.134
v 1.45 1.254 0.2206
v 1.5 1.254 0.134
v 0.5 1.254 0.134
v 0.55 1.254 0.2206
v 1.45 1.254 0.2206
v 0 1.254 1
v 0.55 1.254 0.2206
v 0.5 1.254 0.134
v 0 1.254 1
v 0.1 1.254 1
v 0.55 1.254 0.2206
v 0.5 1.254 1.866
v 0.1 1.254 1
v 0 1.254 1
v 0.5 1.254 1.866
v 0.55 1.254 1.7794
v 0.1 1.254 1
v 1.9 1.254 1
v 1.5 1.254 1.866
v 2 1.254 1
v 1.45 1.254 1.7794
v 1.5 1.254 1.866
v 1.9 1.254 1
v 0.5 1.254 1.866
v 1.45 1.254 1.7794
v 0.55 1.254 1.7794
v 1.45 1.2 0.2246
v 0.55 1.25 0.2246
v 0.55 1.2 0.2246
v 0.553464 1.2 0.2226
v 0.103464 1.25 1.002
v 0.103464 1.2 1.002
v 0.103464 1.2 0.998
v 0.553464 1.25 1.7774
v 0.553464 1.2 1.7774
v 0.55 1.25 1.7754
v 1.45 1.2 1.7754
v 0.55 1.2 1.7754
v 1.446536 1.25 1.7774
v 1.896536 1.2 0.998
v 1.446536 1.2 1.7774
v 0.55 1.204 1.7794
v 0.55 1.204 0.2206
v 0.1 1.204 1
v 0.55 1.204 1.7794
v 1.45 1.204 0.2206
v 0.55 1.204 0.2206
v 1.45 1.204 1.7794
v 1.45 1.204 0.2206
v 0.55 1.204 1.7794
v 1.896536 1.2 1.002
v 1.446536 1.25 0.2226
v 1.446536 1.2 0.2226
v 1 3.004 1
v 2 3.004 1
v 1.5 3.004 0.134
v 1 3.004 1
v 1.5 3.004 0.134
v 0.5 3.004 0.134
v 1 3.004 1
v 0.5 3.004 0.134
v 0 3.004 1
v 1 3.004 1
v 0 3.004 1
v 0.5 3.004 1.866
v 1 3.004 1
v 0.5 3.004 1.866
v 1.5 3.004 1.866
v 1 3.004 1
v 1.5 3.004 1.866
v 2 3.004 1
v 2.003464 3 0.998
v 2.003464 2.875 0.998
v 1.503464 2.875 0.132
v 2.003464 3 0.998
v 1.503464 2.875 0.132
v 1.503464 3 0.132
v 1.5 3 0.13
v 1.5 2.875 0.13
v 0.5 2.875 0.13
v 1.5 3 0.13
v 0.5 2.875 0.13
v 0.5 3 0.13
v 0.496536 3 0.132
v 0.496536 2.875 0.132
v -0.003464 2.875 0.998
v 0.496536 3 0.132
v -0.003464 2.875 0.998
v -0.003464 3 0.998
v -0.003464 3 1.002
v -0.003464 2.875 1.002
v 0.496536 2.875 1.868
v -0.003464 3 1.002
v 0.496536 2.875 1.868
v 0.496536 3 1.868
v 0.5 3 1.87
v 0.5 2.875 1.87
v 1.5 2.875 1.87
v 0.5 3 1.87
v 1.5 2.875 1.87
v 1.5 3 1.87
v 1.503464 3 1.868
v 1.503464 2.875 1.868
v 2.003464 2.875 1.002
v 1.503464 3 1.868
v 2.003464 2.875 1.002
v 2.003464 3 1.002
v 2 2.871 1
v 1 2.871 1
v 1.5 2.871 0.134
v 1.5 2.871 0.134
v 1 2.871 1
v 0.5 2.871 0.134
v 0.5 2.871 0.134
v 1 2.871 1
v 0 2.871 1
v 0 2.871 1
v 1 2.871 1
v 0.5 2.871 1.866
v 0.5 2.871 1.866
v 1 2.871 1
v 1.5 2.871 1.866
v 1.5 2.871 1.866
v 1 2.871 1
v 2 2.871 1
v 1.1875 2.771 1.5688
v 1.1875 2.771 1.6313
v 0.8125 2.771 1.6313
v 0.8125 2.771 1.6313
v 0.8125 2.771 1.5688
v 1.1875 2.771 1.5688
v 1.1915 2.9 1.5688
v 1.1915 2.9 1.6313
v 1.1915 2.775 1.6313
v 1.1915 2.775 1.6313
v 1.1915 2.775 1.5688
v 1.1915 2.9 1.5688
v 1.1875 2.9 1.6353
v 0.8125 2.9 1.6353
v 0.8125 2.775 1.6353
v 0.8125 2.775 1.6353
v 1.1875 2.775 1.6353
v 1.1875 2.9 1.6353
v 0.8085 2.9 1.6313
v 0.8085 2.9 1.5688
v 0.8085 2.775 1.5688
v 0.8085 2.775 1.5688
v 0.8085 2.775 1.6313
v 0.8085 2.9 1.6313
v 0.8125 2.9 1.5648
v 1.1875 2.9 1.5648
v 1.1875 2.775 1.5648
v 1.1875 2.775 1.5648
v 0.8125 2.775 1.5648
v 0.8125 2.9 1.5648
v 0.5471 2.771 0.522
v 0.6012 2.771 0.5532
v 0.4137 2.771 0.878
v 0.4137 2.771 0.878
v 0.3596 2.771 0.8468
v 0.5471 2.771 0.522
v 0.5491 2.9 0.518536
v 0.6032 2.9 0.549736
v 0.6032 2.775 0.549736
v 0.6032 2.775 0.549736
v 0.5491 2.775 0.518536
v 0.5491 2.9 0.518536
v 0.604664 2.9 0.5552
v 0.417164 2.9 0.88
v 0.417164 2.775 0.88
v 0.417164 2.775 0.88
v 0.604664 2.775 0.5552
v 0.604664 2.9 0.5552
v 0.4117 2.9 0.881464
v 0.3576 2.9 0.850264
v 0.3576 2.775 0.850264
v 0.3576 2.775 0.850264
v 0.4117 2.775 0.881464
v 0.4117 2.9 0.881464
v 0.356136 2.9 0.8448
v 0.543636 2.9 0.52
v 0.543636 2.775 0.52
v 0.543636 2.775 0.52
v 0.356136 2.775 0.8448
v 0.356136 2.9 0.8448
v 1.3988 2.771 0.5532
v 1.4529 2.771 0.522
v 1.6404 2.771 0.8468
v 1.6404 2.771 0.8468
v 1.5863 2.771 0.878
v 1.3988 2.771 0.5532
v 1.3968 2.9 0.549736
v 1.4509 2.9 0.518536
v 1.4509 2.775 0.518536
v 1.4509 2.775 0.518536
v 1.3968 2.775 0.549736
v 1.3968 2.9 0.549736
v 1.456364 2.9 0.52
v 1.643864 2.9 0.8448
v 1.643864 2.775 0.8448
v 1.643864 2.775 0.8448
v 1.456364 2.775 0.52
v 1.456364 2.9 0.52
v 1.6424 2.9 0.850264
v 1.5883 2.9 0.881464
v 1.5883 2.775 0.881464
v 1.5883 2.775 0.881464
v 1.6424 2.775 0.850264
v 1.6424 2.9 0.850264
v 1.582836 2.9 0.88
v 1.395336 2.9 0.5552
v 1.395336 2.775 0.5552
v 1.395336 2.775 0.5552
v 1.582836 2.775 0.88
v 1.582836 2.9 0.88
v 2 -0.004 0
v 2 -0.004 2
v 0 -0.004 2
v 0 -0.004 2
v 0 -0.004 0
v 2 -0.004 0
v 0 1.004 1
v 0.5 1.004 1.866
v 1.5 1.004 1.866
v 1.5 1.004 1.866
v 2 1.004 1
v 1.5 1.004 0.134
v 1.5 1.004 1.866
v 1.5 1.004 0.134
v 0.5 1.004 0.134
v 0 1.004 1
v 1.5 1.004 1.866
v 0.5 1.004 0.134
v 2.003098 0.001789 2.001789
v 2.003098 1.001789 1.001789
v 1.503098 1.001789 1.867789
v 1.503098 1.001789 0.132211
v 2.003098 1.001789 0.998211
v 2.003098 0.001789 -0.001789
v 0.496902 1.001789 1.867789
v -0.003098 1.001789 1.001789
v -0.003098 0.001789 2.001789
v -0.003098 1.001789 0.998211
v 0.496902 1.001789 0.132211
v -0.003098 0.001789 -0.001789
v 0.5 1.000531 0.130035
v 1.5 1.000531 0.130035
v 2 0.000531 -0.003965
v 2 0.000531 -0.003965
v 0 0.000531 -0.003965
v 0.5 1.000531 0.130035
v 0 0.000531 2.003965
v 2 0.000531 2.003965
v 1.5 1.000531 1.869965
v 1.5 1.000531 1.869965
v 0.5 1.000531 1.869965
v 0 0.000531 2.003965
v -0.004 0 0
v -0.004 0 2
v -0.004 1 1
v 2.004 0 0
v 2.004 1 1
v 2.004 0 2
g Middle
usemtl base
f 1/1/1 2/2/1 3/3/1
f 3/1/2 4/2/2 5/3/2
f 5/1/3 6/2/3 7/3/3
f 7/3/4 8/4/4 9/1/4
f 8/2/5 10/1/5 9/3/5
f 10/3/6 11/4/6 1/1/6
f 2/5/7 12/6/7 8/7/7
f 13/8/8 9/9/8 10/10/8
f 14/11/5 15/12/5 16/13/5
f 17/11/6 18/12/6 14/13/6
f 19/11/1 20/12/1 17/13/1
f 21/12/9 19/11/9 13/13/9
f 22/12/3 13/11/3 23/13/3
f 15/14/8 21/15/8 22/16/8
f 16/13/4 22/17/4 23/11/4
f 2/2/1 1/1/1 11/4/1
f 4/2/2 3/1/2 2/4/2
f 6/2/3 5/1/3 4/4/3
f 8/4/4 7/3/4 6/2/4
f 10/1/5 8/2/5 12/4/5
f 11/4/6 10/3/6 12/2/6
f 4/18/7 8/7/7 6/19/7
f 2/5/7 8/7/7 4/18/7
f 12/6/7 2/5/7 11/20/7
f 3/10/8 23/21/8 1/9/8
f 3/10/8 16/8/8 23/21/8
f 5/10/8 16/21/8 3/9/8
f 5/10/8 14/8/8 16/21/8
f 7/10/8 14/21/8 5/9/8
f 7/10/8 17/8/8 14/21/8
f 9/10/8 17/21/8 7/9/8
f 9/10/8 19/8/8 17/21/8
f 23/8/8 10/9/8 1/10/8
f 13/21/8 10/9/8 23/8/8
f 9/9/8 13/8/8 19/21/8
f 15/12/5 14/11/5 18/17/5
f 18/12/6 17/11/6 20/17/6
f 20/12/1 19/11/1 24/17/1
f 19/11/9 21/12/9 24/17/9
f 13/11/3 22/12/3 21/17/3
f 24/22/8 18/23/8 20/24/8
f 24/22/8 15/14/8 18/23/8
f 21/15/8 15/14/8 24/22/8
f 22/17/4 16/13/4 15/12/4
usemtl color
f 85/1/1 86/2/1 87/3/1
f 88/1/2 89/2/2 90/3/2
f 91/1/3 92/2/3 93/3/3
f 94/3/4 95/4/4 96/1/4
f 97/2/5 98/1/5 99/3/5
f 100/3/6 101/4/6 102/1/6
f 103/5/7 104/6/7 105/7/7
f 106/8/8 107/9/8 108/10/8
f 109/11/5 110/12/5 111/13/5
f 112/11/6 113/12/6 114/13/6
f 115/11/1 116/12/1 117/13/1
f 118/12/9 119/11/9 120/13/9
f 121/12/3 122/11/3 123/13/3
f 124/14/8 125/15/8 126/16/8
f 127/13/4 128/17/4 129/11/4
f 130/2/1 131/1/1 132/4/1
f 133/2/2 134/1/2 135/4/2
f 136/2/3 137/1/3 138/4/3
f 139/4/4 140/3/4 141/2/4
f 142/1/5 143/2/5 144/4/5
f 145/4/6 146/3/6 147/2/6
f 148/18/7 149/7/7 150/19/7
f 151/5/7 152/7/7 153/18/7
f 154/6/7 155/5/7 156/20/7
f 157/10/8 158/21/8 159/9/8
f 160/10/8 161/8/8 162/21/8
f 163/10/8 164/21/8 165/9/8
f 166/10/8 167/8/8 168/21/8
f 169/10/8 170/21/8 171/9/8
f 172/10/8 173/8/8 174/21/8
f 175/10/8 176/21/8 177/9/8
f 178/10/8 179/8/8 180/21/8
f 181/8/8 182/9/8 183/10/8
f 184/21/8 185/9/8 186/8/8
f 187/9/8 188/8/8 189/21/8
f 190/12/5 191/11/5 192/17/5
f 193/12/6 194/11/6 195/17/6
f 196/12/1 197/11/1 198/17/1
f 199/11/9 200/12/9 201/17/9
f 202/11/3 203/12/3 204/17/3
f 205/22/8 206/23/8 207/24/8
f 208/22/8 209/14/8 210/23/8
f 211/15/8 212/14/8 213/22/8
f 214/17/4 215/13/4 216/12/4
g Glass
usemtl base
f 25/25/10 26/26/10 27/27/10
f 27/27/10 28/28/10 25/25/10
f 29/25/11 30/26/11 26/27/11
f 26/27/11 25/28/11 29/25/11
f 31/25/12 32/26/12 30/27/12
f 30/27/12 29/28/12 31/25/12
f 33/28/13 34/27/13 32/26/13
f 32/26/13 31/25/13 33/28/13
f 35/28/14 36/27/14 34/26/14
f 34/26/14 33/25/14 35/28/14
f 28/28/15 27/27/15 36/26/15
f 36/26/15 35/25/15 28/28/15
g Top
usemtl base
f 37/29/16 38/30/16 39/31/16
f 37/29/16 39/31/16 40/32/16
f 37/29/16 40/32/16 41/33/16
f 37/29/16 41/33/16 42/34/16
f 37/29/16 42/34/16 43/35/16
f 37/29/16 43/35/16 38/30/16
f 38/36/17 44/37/17 45/38/17
f 38/36/17 45/38/17 39/39/17
f 39/36/18 45/37/18 46/38/18
f 39/36/18 46/38/18 40/39/18
f 40/36/19 46/37/19 47/38/19
f 40/36/19 47/38/19 41/39/19
f 41/39/20 47/38/20 48/37/20
f 41/39/20 48/37/20 42/36/20
f 42/39/21 48/38/21 49/37/21
f 42/39/21 49/37/21 43/36/21
f 43/39/22 49/38/22 44/37/22
f 43/39/22 44/37/22 38/36/22
f 44/30/23 50/29/23 45/35/23
f 45/35/23 50/29/23 46/34/23
f 46/34/23 50/29/23 47/40/23
f 47/40/23 50/29/23 48/32/23
f 48/32/23 50/29/23 49/31/23
f 49/31/23 50/29/23 44/30/23
usemtl color
f 217/29/16 218/30/16 219/31/16
f 220/29/16 221/31/16 222/32/16
f 223/29/16 224/32/16 225/33/16
f 226/29/16 227/33/16 228/34/16
f 229/29/16 230/34/16 231/35/16
f 232/29/16 233/35/16 234/30/16
f 235/36/17 236/37/17 237/38/17
f 238/36/17 239/38/17 240/39/17
f 241/36/18 242/37/18 243/38/18
f 244/36/18 245/38/18 246/39/18
f 247/36/19 248/37/19 249/38/19
f 250/36/19 251/38/19 252/39/19
f 253/39/20 254/38/20 255/37/20
f 256/39/20 257/37/20 258/36/20
f 259/39/21 260/38/21 261/37/21
f 262/39/21 263/37/21 264/36/21
f 265/39/22 266/38/22 267/37/22
f 268/39/22 269/37/22 270/36/22
f 271/30/23 272/29/23 273/35/23
f 274/35/23 275/29/23 276/34/23
f 277/34/23 278/29/23 279/40/23
f 280/40/23 281/29/23 282/32/23
f 283/32/23 284/29/23 285/31/23
f 286/31/23 287/29/23 288/30/23
g Sprinkler1
usemtl base
f 51/41/24 52/42/24 53/43/24
f 53/43/24 54/44/24 51/41/24
f 55/45/25 56/46/25 52/47/25
f 52/47/25 51/48/25 55/45/25
f 56/49/26 57/50/26 53/51/26
f 53/51/26 52/52/26 56/49/26
f 57/46/27 58/45/27 54/48/27
f 54/48/27 53/47/27 57/46/27
f 58/50/28 55/49/28 51/52/28
f 51/52/28 54/51/28 58/50/28
usemtl color
f 289/41/24 290/42/24 291/43/24
f 292/43/24 293/44/24 294/41/24
f 295/45/25 296/46/25 297/47/25
f 298/47/25 299/48/25 300/45/25
f 301/49/26 302/50/26 303/51/26
f 304/51/26 305/52/26 306/49/26
f 307/46/27 308/45/27 309/48/27
f 310/48/27 311/47/27 312/46/27
f 313/50/28 314/49/28 315/52/28
f 316/52/28 317/51/28 318/50/28
g Sprinkler2
usemtl base
f 59/53/29 60/54/29 61/55/29
f 61/55/29 62/56/29 59/53/29
f 63/57/30 64/58/30 60/59/30
f 60/59/30 59/60/30 63/57/30
f 64/61/31 65/62/31 61/63/31
f 61/63/31 60/64/31 64/61/31
f 65/58/32 66/57/32 62/60/32
f 62/60/32 61/59/32 65/58/32
f 66/62/33 63/61/33 59/64/33
f 59/64/33 62/63/33 66/62/33
usemtl color
f 319/53/29 320/54/29 321/55/29
f 322/55/29 323/56/29 324/53/29
f 325/57/30 326/58/30 327/59/30
f 328/59/30 329/60/30 330/57/30
f 331/61/31 332/62/31 333/63/31
f 334/63/31 335/64/31 336/61/31
f 337/58/32 338/57/32 339/60/32
f 340/60/32 341/59/32 342/58/32
f 343/62/33 344/61/33 345/64/33
f 346/64/33 347/63/33 348/62/33
g Sprinkler3
usemtl base
f 67/65/34 68/66/34 69/67/34
f 69/67/34 70/68/34 67/65/34
f 71/69/35 72/70/35 68/71/35
f 68/71/35 67/72/35 71/69/35
f 72/73/36 73/74/36 69/75/36
f 69/75/36 68/76/36 72/73/36
f 73/70/37 74/69/37 70/72/37
f 70/72/37 69/71/37 73/70/37
f 74/74/38 71/73/38 67/76/38
f 67/76/38 70/75/38 74/74/38
usemtl color
f 349/65/34 350/66/34 351/67/34
f 352/67/34 353/68/34 354/65/34
f 355/69/35 356/70/35 357/71/35
f 358/71/35 359/72/35 360/69/35
f 361/73/36 362/74/36 363/75/36
f 364/75/36 365/76/36 366/73/36
f 367/70/37 368/69/37 369/72/37
f 370/72/37 371/71/37 372/70/37
f 373/74/38 374/73/38 375/76/38
f 376/76/38 377/75/38 378/74/38
g Base
usemtl base
f 75/77/39 76/78/39 77/79/39
f 77/79/39 78/80/39 75/77/39
f 79/81/40 80/82/40 81/83/40
f 81/83/40 82/84/40 83/85/40
f 81/83/40 83/85/40 84/86/40
f 79/81/40 81/83/40 84/86/40
f 76/87/41 82/88/41 81/89/41
f 83/89/42 82/88/42 75/87/42
f 80/89/43 79/88/43 77/87/43
f 79/88/44 84/89/44 78/87/44
f 84/90/45 83/91/45 75/92/45
f 75/92/45 78/93/46 84/90/45
f 77/92/47 76/93/47 81/90/47
f 81/90/47 80/91/47 77/92/47
f 78/88/48 77/94/48 79/95/48
f 75/88/49 82/95/49 76/94/49
usemtl color
f 379/77/39 380/78/39 381/79/39
f 382/79/39 383/80/39 384/77/39
f 385/81/40 386/82/40 387/83/40
f 388/83/40 389/84/40 390/85/40
f 391/83/40 392/85/40 393/86/40
f 394/81/40 395/83/40 396/86/40
f 397/87/41 398/88/41 399/89/41
f 400/89/42 401/88/42 402/87/42
f 403/89/43 404/88/43 405/87/43
f 406/88/44 407/89/44 408/87/44
f 409/90/45 410/91/45 411/92/45
f 412/92/45 413/93/46 414/90/45
f 415/92/47 416/93/47 417/90/47
f 418/90/47 419/91/47 420/92/47
f 421/88/48 422/94/48 423/95/48
f 424/88/49 425/95/49 426/94/49
