# Generated by tools/gen_obj.py from art/obj_models/wire/wire_thin.obj; blocks, origin at the block's lowest corner.
mtllib femtocraft.mtl
v 0.625 0.375 0.375
v 0.625 0.625 0.375
v 0.375 0.625 0.375
v 0.375 0.375 0.375
v 0.375 0.625 0
v 0.375 0.375 0
v 0.625 0.625 0
v 0.625 0.375 0
v 0.375 0.375 0.625
v 0.375 0.625 0.625
v 0.625 0.625 0.625
v 0.625 0.375 0.625
v 0.625 0.625 1
v 0.625 0.375 1
v 0.375 0.625 1
v 0.375 0.375 1
v 0.375 0.625 0.625
v 0.375 0.375 0.625
v 0.375 0.375 0.375
v 0.375 0.625 0.375
v 0 0.375 0.375
v 0 0.625 0.375
v 0 0.375 0.625
v 0 0.625 0.625
v 0.625 0.375 0.625
v 0.625 0.625 0.625
v 0.625 0.625 0.375
v 0.625 0.375 0.375
v 1 0.625 0.375
v 1 0.375 0.375
v 1 0.625 0.625
v 1 0.375 0.625
v 0.375 0.375 0.625
v 0.625 0.375 0.625
v 0.625 0.375 0.375
v 0.375 0.375 0.375
v 0.625 0 0.375
v 0.375 0 0.375
v 0.625 0 0.625
v 0.375 0 0.625
v 0.625 0.375 0.375
v 0.625 0.375 0.625
v 0.375 0.375 0.625
v 0.375 0.375 0.375
v 0.625 0.625 0.375
v 0.375 0.625 0.375
v 0.375 0.625 0.625
v 0.625 0.625 0.625
v 0.625 0.625 0.625
v 0.375 0.625 0.625
v 0.375 0.625 0.375
v 0.625 0.625 0.375
v 0.375 1 0.375
v 0.625 1 0.375
v 0.375 1 0.625
v 0.625 1 0.625
vt 0 1
vt 0 0.5002
vt 0.4998 0.5002
vt 0.4998 1
vt 1 0
vt 0.5 0
vt 0.5 0.75
vt 1 0.75
vt 0.4999 0.5002
vt 0.4999 1
vt 0.0001 1
vt 0.0001 0.5002
vt 1 0.75
vt 0.5 0.75
vt 0.5 0
vt 1 0
vt 0.5 0.75
vt 0.5 0
vt 1 0.75
vt 1 0
vt 0.4998 0.5001
vt 0.4998 0.9999
vt 0 0.9999
vt 0 0.5001
vt 0.5 0
vt 1 0
vt 1 0.75
vt 0.5 0.75
vt 0.0001 1
vt 0.0001 0.5002
vt 0.4999 0.5002
vt 0.4999 1
vt 0.5 0.75
vt 1 0.75
vt 1 0
vt 0.5 0
vt 1 0
vt 1 0.75
vt 0.5 0
vt 0.5 0.75
vt 0.0001 1
vt 0.0001 0.5002
vt 0.4999 0.5002
vt 0.4999 1
vt 1 0
vt 0.5 0
vt 0.5 0.75
vt 1 0.75
vt 0.0001 0.9999
vt 0.0001 0.5001
vt 0.4999 0.5001
vt 0.4999 0.9999
vt 1 0.75
vt 0.5 0.75
vt 0.5 0
vt 1 0
vt 0.5 0
vt 0.5 0.75
vt 1 0
vt 1 0.75
vt 0.0001 0.0001
vt 0.4999 0.0001
vt 0.4999 0.4999
vt 0.0001 0.4999
vt 1 0
vt 0.5 0
vt 0.5 0.75
vt 1 0.75
vt 0.4999 0.5001
vt 0.4999 0.9999
vt 0.0001 0.9999
vt 0.0001 0.5001
vt 1 0.75
vt 0.5 0.75
vt 0.5 0
vt 1 0
vt 0.5 0.75
vt 0.5 0
vt 1 0.75
vt 1 0
vt 0 0.5
vt 0.5 0.5
vt 0.5 1
vt 0 1
vt 0.5 0
vt 1 0
vt 1 0.75
vt 0.5 0.75
vt 0.5 1
vt 0 1
vt 0 0.5
vt 0.5 0.5
vt 1 0.75
vt 0.5 0.75
vt 0.5 0
vt 1 0
vt 1 0
vt 1 0.75
vt 0.5 0.75
vt 0.5 0
vt 0.5 0.75
vt 0.5 0
vt 1 0
vt 1 0.75
vt 0 0.5
vt 0 0
vt 0.5 0
vt 0.5 0.5
vt 0.5 0
vt 0 0
vt 0 0.5
vt 0.5 0.5
vt 0 0
vt 0 0.5
vt 0.5 0
vt 0 0
vt 0 0
vt 0 0.5
vt 0 0
vt 0.5 0
vt 0.0001 0.9998
vt 0.0001 0.5
vt 0.4999 0.5
vt 0.4999 0.9998
vt 1 0
vt 0.5 0
vt 0.5 0.75
vt 1 0.75
vt 0.0001 0.9999
vt 0.0001 0.5001
vt 0.4999 0.5001
vt 0.4999 0.9999
vt 1 0.75
vt 0.5 0.75
vt 0.5 0
vt 1 0
vt 0.5 0.75
vt 0.5 0
vt 1 0.75
vt 1 0
vn 0 0 1
vn -1 0 0
vn 0 0 -1
vn 1 0 0
vn 0 -1 0
vn 0 1 0
vn 0 0 -1
vn 1 0 0
vn 0 0 1
vn -1 0 0
vn 0 -1 0
vn 0 1 0
vn 1 0 0
vn 0 0 -1
vn -1 0 0
vn 0 0 1
vn 0 1 0
vn 0 -1 0
vn -1 0 0
vn 0 0 -1
vn 1 0 0
vn 0 0 1
vn 0 -1 0
vn 0 1 0
vn 0 1 0
vn 0 0 -1
vn 0 -1 0
vn 0 0 1
vn -1 0 0
vn 1 0 0
vn 0 -1 0
vn 0 1 0
vn 1 0 0
vn 0 0 1
vn -1 0 0
vn 0 0 -1
vn 0 -1 0
vn 0 0 -1
vn 0 1 0
vn 0 0 1
vn 1 0 0
vn -1 0 0
v 0.625 0.375 0.379
v 0.625 0.625 0.379
v 0.375 0.625 0.379
v 0.375 0.375 0.379
v 0.371 0.375 0.375
v 0.371 0.625 0.375
v 0.371 0.625 0
v 0.371 0.375 0
v 0.375 0.375 -0.004
v 0.375 0.625 -0.004
v 0.625 0.625 -0.004
v 0.625 0.375 -0.004
v 0.629 0.375 0
v 0.629 0.625 0
v 0.629 0.625 0.375
v 0.629 0.375 0.375
v 0.375 0.371 0.375
v 0.375 0.371 0
v 0.625 0.371 0
v 0.625 0.371 0.375
v 0.375 0.629 0
v 0.375 0.629 0.375
v 0.625 0.629 0.375
v 0.625 0.629 0
v 0.375 0.375 0.621
v 0.375 0.625 0.621
v 0.625 0.625 0.621
v 0.625 0.375 0.621
v 0.629 0.375 0.625
v 0.629 0.625 0.625
v 0.629 0.625 1
v 0.629 0.375 1
v 0.625 0.375 1.004
v 0.625 0.625 1.004
v 0.375 0.625 1.004
v 0.375 0.375 1.004
v 0.371 0.375 1
v 0.371 0.625 1
v 0.371 0.625 0.625
v 0.371 0.375 0.625
v 0.625 0.371 0.625
v 0.625 0.371 1
v 0.375 0.371 1
v 0.375 0.371 0.625
v 0.625 0.629 1
v 0.625 0.629 0.625
v 0.375 0.629 0.625
v 0.375 0.629 1
v 0.379 0.625 0.625
v 0.379 0.375 0.625
v 0.379 0.375 0.375
v 0.379 0.625 0.375
v 0.375 0.625 0.371
v 0.375 0.375 0.371
v 0 0.375 0.371
v 0 0.625 0.371
v -0.004 0.625 0.375
v -0.004 0.375 0.375
v -0.004 0.375 0.625
v -0.004 0.625 0.625
v 0 0.625 0.629
v 0 0.375 0.629
v 0.375 0.375 0.629
v 0.375 0.625 0.629
v 0.375 0.629 0.375
v 0 0.629 0.375
v 0 0.629 0.625
v 0.375 0.629 0.625
v 0 0.371 0.375
v 0.375 0.371 0.375
v 0.375 0.371 0.625
v 0 0.371 0.625
v 0.621 0.375 0.625
v 0.621 0.625 0.625
v 0.621 0.625 0.375
v 0.621 0.375 0.375
v 0.625 0.375 0.371
v 0.625 0.625 0.371
v 1 0.625 0.371
v 1 0.375 0.371
v 1.004 0.375 0.375
v 1.004 0.625 0.375
v 1.004 0.625 0.625
v 1.004 0.375 0.625
v 1 0.375 0.629
v 1 0.625 0.629
v 0.625 0.625 0.629
v 0.625 0.375 0.629
v 0.625 0.371 0.375
v 1 0.371 0.375
v 1 0.371 0.625
v 0.625 0.371 0.625
v 1 0.629 0.375
v 0.625 0.629 0.375
v 0.625 0.629 0.625
v 1 0.629 0.625
v 0.375 0.379 0.625
v 0.625 0.379 0.625
v 0.625 0.379 0.375
v 0.375 0.379 0.375
v 0.375 0.375 0.371
v 0.625 0.375 0.371
v 0.625 0 0.371
v 0.375 0 0.371
v 0.375 -0.004 0.375
v 0.625 -0.004 0.375
v 0.625 -0.004 0.625
v 0.375 -0.004 0.625
v 0.375 0 0.629
v 0.625 0 0.629
v 0.625 0.375 0.629
v 0.375 0.375 0.629
v 0.371 0.375 0.375
v 0.371 0 0.375
v 0.371 0 0.625
v 0.371 0.375 0.625
v 0.629 0 0.375
v 0.629 0.375 0.375
v 0.629 0.375 0.625
v 0.629 0 0.625
v 0.625 0.371 0.375
v 0.625 0.371 0.625
v 0.375 0.371 0.625
v 0.375 0.371 0.375
v 0.625 0.629 0.375
v 0.375 0.629 0.375
v 0.375 0.629 0.625
v 0.625 0.629 0.625
v 0.629 0.375 0.375
v 0.629 0.625 0.375
v 0.629 0.625 0.625
v 0.629 0.375 0.625
v 0.625 0.375 0.629
v 0.625 0.625 0.629
v 0.375 0.625 0.629
v 0.375 0.375 0.629
v 0.371 0.375 0.625
v 0.371 0.625 0.625
v 0.371 0.625 0.375
v 0.371 0.375 0.375
v 0.625 0.625 0.371
v 0.625 0.375 0.371
v 0.375 0.375 0.371
v 0.375 0.625 0.371
v 0.625 0.621 0.625
v 0.375 0.621 0.625
v 0.375 0.621 0.375
v 0.625 0.621 0.375
v 0.625 0.625 0.371
v 0.375 0.625 0.371
v 0.375 1 0.371
v 0.625 1 0.371
v 0.625 1.004 0.375
v 0.375 1.004 0.375
v 0.375 1.004 0.625
v 0.625 1.004 0.625
v 0.625 1 0.629
v 0.375 1 0.629
v 0.375 0.625 0.629
v 0.625 0.625 0.629
v 0.629 0.625 0.375
v 0.629 1 0.375
v 0.629 1 0.625
v 0.629 0.625 0.625
v 0.371 1 0.375
v 0.371 0.625 0.375
v 0.371 0.625 0.625
v 0.371 1 0.625
g North_Cube
usemtl base
f 1/1/1 2/2/1 3/3/1 4/4/1
f 4/5/2 3/6/2 5/7/2 6/8/2
f 6/9/3 5/10/3 7/11/3 8/12/3
f 8/13/4 7/14/4 2/15/4 1/16/4
f 4/5/5 6/8/5 8/17/5 1/18/5
f 5/19/6 3/20/6 2/15/6 7/14/6
usemtl color
f 57/1/1 58/2/1 59/3/1 60/4/1
f 61/5/2 62/6/2 63/7/2 64/8/2
f 65/9/3 66/10/3 67/11/3 68/12/3
f 69/13/4 70/14/4 71/15/4 72/16/4
f 73/5/5 74/8/5 75/17/5 76/18/5
f 77/19/6 78/20/6 79/15/6 80/14/6
g South_Cube
usemtl base
f 9/21/7 10/22/7 11/23/7 12/24/7
f 12/25/8 11/26/8 13/27/8 14/28/8
f 14/29/9 13/30/9 15/31/9 16/32/9
f 16/33/10 15/34/10 10/35/10 9/36/10
f 12/37/11 14/38/11 16/33/11 9/36/11
f 13/27/12 11/26/12 10/39/12 15/40/12
usemtl color
f 81/21/7 82/22/7 83/23/7 84/24/7
f 85/25/8 86/26/8 87/27/8 88/28/8
f 89/29/9 90/30/9 91/31/9 92/32/9
f 93/33/10 94/34/10 95/35/10 96/36/10
f 97/37/11 98/38/11 99/33/11 100/36/11
f 101/27/12 102/26/12 103/39/12 104/40/12
g West_Cube
usemtl base
f 17/41/13 18/42/13 19/43/13 20/44/13
f 20/45/14 19/46/14 21/47/14 22/48/14
f 22/49/15 21/50/15 23/51/15 24/52/15
f 24/53/16 23/54/16 18/55/16 17/56/16
f 20/57/17 22/58/17 24/53/17 17/56/17
f 21/47/18 19/46/18 18/59/18 23/60/18
usemtl color
f 105/41/13 106/42/13 107/43/13 108/44/13
f 109/45/14 110/46/14 111/47/14 112/48/14
f 113/49/15 114/50/15 115/51/15 116/52/15
f 117/53/16 118/54/16 119/55/16 120/56/16
f 121/57/17 122/58/17 123/53/17 124/56/17
f 125/47/18 126/46/18 127/59/18 128/60/18
g East_Cube
usemtl base
f 25/61/19 26/62/19 27/63/19 28/64/19
f 28/65/20 27/66/20 29/67/20 30/68/20
f 30/69/21 29/70/21 31/71/21 32/72/21
f 32/73/22 31/74/22 26/75/22 25/76/22
f 28/65/23 30/68/23 32/77/23 25/78/23
f 29/79/24 27/80/24 26/75/24 31/74/24
usemtl color
f 129/61/19 130/62/19 131/63/19 132/64/19
f 133/65/20 134/66/20 135/67/20 136/68/20
f 137/69/21 138/70/21 139/71/21 140/72/21
f 141/73/22 142/74/22 143/75/22 144/76/22
f 145/65/23 146/68/23 147/77/23 148/78/23
f 149/79/24 150/80/24 151/75/24 152/74/24
g Down_Cube
usemtl base
f 33/81/25 34/82/25 35/83/25 36/84/25
f 36/85/26 35/86/26 37/87/26 38/88/26
f 38/89/27 37/90/27 39/91/27 40/92/27
f 40/93/28 39/94/28 34/95/28 33/96/28
f 36/97/29 38/98/29 40/99/29 33/100/29
f 37/101/30 35/102/30 34/103/30 39/104/30
usemtl color
f 153/81/25 154/82/25 155/83/25 156/84/25
f 157/85/26 158/86/26 159/87/26 160/88/26
f 161/89/27 162/90/27 163/91/27 164/92/27
f 165/93/28 166/94/28 167/95/28 168/96/28
f 169/97/29 170/98/29 171/99/29 172/100/29
f 173/101/30 174/102/30 175/103/30 176/104/30
g Core_Cube
usemtl base
f 41/105/31 42/106/31 43/107/31 44/108/31
f 45/109/32 46/110/32 47/111/32 48/112/32
f 41/113/33 45/109/33 48/112/33 42/114/33
f 42/115/34 48/112/34 47/111/34 43/116/34
f 43/107/35 47/117/35 46/118/35 44/108/35
f 45/119/36 41/105/36 44/108/36 46/120/36
usemtl color
f 177/105/31 178/106/31 179/107/31 180/108/31
f 181/109/32 182/110/32 183/111/32 184/112/32
f 185/113/33 186/109/33 187/112/33 188/114/33
f 189/115/34 190/112/34 191/111/34 192/116/34
f 193/107/35 194/117/35 195/118/35 196/108/35
f 197/119/36 198/105/36 199/108/36 200/120/36
g Up_Cube
usemtl base
f 49/121/37 50/122/37 51/123/37 52/124/37
f 52/125/38 51/126/38 53/127/38 54/128/38
f 54/129/39 53/130/39 55/131/39 56/132/39
f 56/133/40 55/134/40 50/135/40 49/136/40
f 52/125/41 54/128/41 56/137/41 49/138/41
f 53/139/42 51/140/42 50/135/42 55/134/42
usemtl color
f 201/121/37 202/122/37 203/123/37 204/124/37
f 205/125/38 206/126/38 207/127/38 208/128/38
f 209/129/39 210/130/39 211/131/39 212/132/39
f 213/133/40 214/134/40 215/135/40 216/136/40
f 217/125/41 218/128/41 219/137/41 220/138/41
f 221/139/42 222/140/42 223/135/42 224/134/42
