# 3ds Max Wavefront OBJ Exporter v0.97b - (c)2007 guruware
# File Created: 22.12.2015 00:35:30

#
# object BottomMount
#

v  -0.4000 0.0000 0.4000
v  -0.4000 0.0000 -0.4000
v  0.4000 0.0000 -0.4000
v  0.4000 0.0000 0.4000
v  -0.4000 0.1250 0.4000
v  0.4000 0.1250 0.4000
v  0.4000 0.1250 -0.4000
v  -0.4000 0.1250 -0.4000
# 8 vertices

vn 0.0000 -1.0000 -0.0000
vn 0.0000 1.0000 -0.0000
vn 0.0000 0.0000 1.0000
vn 1.0000 0.0000 -0.0000
vn 0.0000 0.0000 -1.0000
vn -1.0000 0.0000 -0.0000
# 6 vertex normals

vt 0.0000 0.2500 0.0000
vt 0.0000 0.0000 0.0000
vt 0.2500 0.0000 0.0000
vt 0.2500 0.2500 0.0000
vt 0.5000 0.0000 0.0000
vt 0.5000 0.2500 0.0000
vt 0.2500 0.2813 0.0000
vt 0.0000 0.2813 0.0000
# 8 texture coords

g BottomMount
f 1/1/1 2/2/1 3/3/1 
f 3/3/1 4/4/1 1/1/1 
f 5/3/2 6/5/2 7/6/2 
f 7/6/2 8/4/2 5/3/2 
f 1/1/3 4/4/3 6/7/3 
f 6/7/3 5/8/3 1/1/3 
f 4/1/4 3/4/4 7/7/4 
f 7/7/4 6/8/4 4/1/4 
f 3/1/5 2/4/5 8/7/5 
f 8/7/5 7/8/5 3/1/5 
f 2/1/6 1/4/6 5/7/6 
f 5/7/6 8/8/6 2/1/6 
# 12 faces

#
# object TopMount
#

v  -0.4000 0.8750 0.4000
v  -0.4000 0.8750 -0.4000
v  0.4000 0.8750 -0.4000
v  0.4000 0.8750 0.4000
v  -0.4000 1.0000 0.4000
v  0.4000 1.0000 0.4000
v  0.4000 1.0000 -0.4000
v  -0.4000 1.0000 -0.4000
# 8 vertices

vn 0.0000 -1.0000 -0.0000
vn 0.0000 1.0000 -0.0000
vn 0.0000 0.0000 1.0000
vn 1.0000 0.0000 -0.0000
vn 0.0000 0.0000 -1.0000
vn -1.0000 0.0000 -0.0000
# 6 vertex normals

vt 0.2500 0.2500 0.0000
vt 0.5000 0.2500 0.0000
vt 0.5000 0.0000 0.0000
vt 0.2500 0.0000 0.0000
vt 0.0000 0.0000 0.0000
vt 0.0000 0.2500 0.0000
vt 0.0000 0.2813 0.0000
vt 0.2500 0.2813 0.0000
# 8 texture coords

g TopMount
f 9/9/7 10/10/7 11/11/7 
f 11/11/7 12/12/7 9/9/7 
f 13/13/8 14/12/8 15/9/8 
f 15/9/8 16/14/8 13/13/8 
f 9/15/9 12/16/9 14/9/9 
f 14/9/9 13/14/9 9/15/9 
f 12/15/10 11/16/10 15/9/10 
f 15/9/10 14/14/10 12/15/10 
f 11/15/11 10/16/11 16/9/11 
f 16/9/11 15/14/11 11/15/11 
f 10/15/12 9/16/12 13/9/12 
f 13/9/12 16/14/12 10/15/12 
# 12 faces

#
# object Crystal
#

v  0.0000 0.2500 0.0000
v  0.0707 0.3500 -0.0707
v  0.1000 0.3500 -0.0000
v  -0.0000 0.3500 -0.1000
v  -0.0707 0.3500 -0.0707
v  -0.1000 0.3500 0.0000
v  -0.0707 0.3500 0.0707
v  0.0000 0.3500 0.1000
v  0.0707 0.3500 0.0707
v  0.0707 0.4500 -0.0707
v  0.1000 0.4500 -0.0000
v  -0.0000 0.4500 -0.1000
v  -0.0707 0.4500 -0.0707
v  -0.1000 0.4500 0.0000
v  -0.0707 0.4500 0.0707
v  0.0000 0.4500 0.1000
v  0.0707 0.4500 0.0707
v  0.0707 0.5500 -0.0707
v  0.1000 0.5500 -0.0000
v  -0.0000 0.5500 -0.1000
v  -0.0707 0.5500 -0.0707
v  -0.1000 0.5500 0.0000
v  -0.0707 0.5500 0.0707
v  0.0000 0.5500 0.1000
v  0.0707 0.5500 0.0707
v  0.0707 0.6500 -0.0707
v  0.1000 0.6500 -0.0000
v  -0.0000 0.6500 -0.1000
v  -0.0707 0.6500 -0.0707
v  -0.1000 0.6500 0.0000
v  -0.0707 0.6500 0.0707
v  0.0000 0.6500 0.1000
v  0.0707 0.6500 0.0707
v  0.0000 0.7500 0.0000
# 34 vertices

vn 0.6786 -0.6786 -0.2811
vn 0.2811 -0.6786 -0.6786
vn -0.2811 -0.6786 -0.6786
vn -0.6786 -0.6786 -0.2811
vn -0.6786 -0.6786 0.2811
vn -0.2811 -0.6786 0.6786
vn 0.2811 -0.6786 0.6786
vn 0.6786 -0.6786 0.2811
vn 0.9239 0.0000 -0.3827
vn 0.3827 0.0000 -0.9239
vn -0.3827 0.0000 -0.9239
vn -0.9239 0.0000 -0.3827
vn -0.9239 0.0000 0.3827
vn -0.3827 0.0000 0.9239
vn 0.3827 0.0000 0.9239
vn 0.9239 0.0000 0.3827
vn 0.9239 -0.0000 -0.3827
vn 0.3827 -0.0000 -0.9239
vn -0.3827 -0.0000 -0.9239
vn -0.9239 -0.0000 -0.3827
vn -0.9239 -0.0000 0.3827
vn -0.3827 -0.0000 0.9239
vn 0.3827 -0.0000 0.9239
vn 0.9239 -0.0000 0.3827
vn 0.6786 0.6786 -0.2811
vn 0.2811 0.6786 -0.6786
vn -0.2811 0.6786 -0.6786
vn -0.6786 0.6786 -0.2811
vn -0.6786 0.6786 0.2811
vn -0.2811 0.6786 0.6786
vn 0.2811 0.6786 0.6786
vn 0.6786 0.6786 0.2811
# 32 vertex normals

vt 0.7354 0.2171 0.0000
vt 0.8631 0.2760 0.1000
vt 0.8169 0.2760 0.1000
vt 0.9093 0.2760 0.1000
vt 0.5860 0.2760 0.1000
vt 0.6321 0.2760 0.1000
vt 0.6783 0.2760 0.1000
vt 0.7245 0.2760 0.1000
vt 0.7707 0.2760 0.1000
vt 0.8631 0.3348 0.1000
vt 0.8169 0.3348 0.1000
vt 0.4936 0.2760 0.1000
vt 0.5398 0.3348 0.1000
vt 0.4936 0.3348 0.1000
vt 0.5398 0.2760 0.1000
vt 0.5860 0.3348 0.1000
vt 0.6321 0.3348 0.1000
vt 0.6783 0.3348 0.1000
vt 0.7245 0.3348 0.1000
vt 0.7707 0.3348 0.1000
vt 0.8631 0.3936 0.1000
vt 0.8169 0.3936 0.1000
vt 0.5398 0.3936 0.1000
vt 0.4936 0.3936 0.1000
vt 0.5860 0.3936 0.1000
vt 0.6321 0.3936 0.1000
vt 0.6783 0.3936 0.1000
vt 0.7245 0.3936 0.1000
vt 0.7707 0.3936 0.1000
vt 0.8631 0.4524 0.1000
vt 0.8169 0.4524 0.1000
vt 0.5398 0.4524 0.1000
vt 0.4936 0.4524 0.1000
vt 0.5860 0.4524 0.1000
vt 0.6321 0.4524 0.1000
vt 0.6783 0.4524 0.1000
vt 0.7245 0.4524 0.1000
vt 0.7707 0.4524 0.1000
vt 0.7245 0.5112 0.0000
# 39 texture coords

g Crystal
f 17/17/13 18/18/13 19/19/13 
f 17/17/14 20/20/14 18/18/14 
f 17/17/15 21/21/15 20/20/15 
f 17/17/16 22/22/16 21/21/16 
f 17/17/17 23/23/17 22/22/17 
f 17/17/18 24/24/18 23/23/18 
f 17/17/19 25/25/19 24/24/19 
f 17/17/20 19/19/20 25/25/20 
f 19/19/21 26/26/21 27/27/21 
f 19/19/21 18/18/21 26/26/21 
f 18/28/22 28/29/22 26/30/22 
f 18/28/22 20/31/22 28/29/22 
f 20/31/23 29/32/23 28/29/23 
f 20/31/23 21/21/23 29/32/23 
f 21/21/24 30/33/24 29/32/24 
f 21/21/24 22/22/24 30/33/24 
f 22/22/25 31/34/25 30/33/25 
f 22/22/25 23/23/25 31/34/25 
f 23/23/26 32/35/26 31/34/26 
f 23/23/26 24/24/26 32/35/26 
f 24/24/27 33/36/27 32/35/27 
f 24/24/27 25/25/27 33/36/27 
f 25/25/28 27/27/28 33/36/28 
f 25/25/28 19/19/28 27/27/28 
f 27/27/21 34/37/21 35/38/21 
f 27/27/21 26/26/21 34/37/21 
f 26/30/22 36/39/22 34/40/22 
f 26/30/22 28/29/22 36/39/22 
f 28/29/23 37/41/23 36/39/23 
f 28/29/23 29/32/23 37/41/23 
f 29/32/24 38/42/24 37/41/24 
f 29/32/24 30/33/24 38/42/24 
f 30/33/25 39/43/25 38/42/25 
f 30/33/25 31/34/25 39/43/25 
f 31/34/26 40/44/26 39/43/26 
f 31/34/26 32/35/26 40/44/26 
f 32/35/27 41/45/27 40/44/27 
f 32/35/27 33/36/27 41/45/27 
f 33/36/28 35/38/28 41/45/28 
f 33/36/28 27/27/28 35/38/28 
f 35/38/29 42/46/29 43/47/29 
f 35/38/21 34/37/21 42/46/21 
f 34/40/22 44/48/22 42/49/22 
f 34/40/30 36/39/30 44/48/30 
f 36/39/31 45/50/31 44/48/31 
f 36/39/23 37/41/23 45/50/23 
f 37/41/24 46/51/24 45/50/24 
f 37/41/32 38/42/32 46/51/32 
f 38/42/33 47/52/33 46/51/33 
f 38/42/33 39/43/33 47/52/33 
f 39/43/34 48/53/34 47/52/34 
f 39/43/34 40/44/34 48/53/34 
f 40/44/35 49/54/35 48/53/35 
f 40/44/35 41/45/35 49/54/35 
f 41/45/36 43/47/36 49/54/36 
f 41/45/36 35/38/36 43/47/36 
f 43/47/37 42/46/37 50/55/37 
f 42/49/38 44/48/38 50/55/38 
f 44/48/39 45/50/39 50/55/39 
f 45/50/40 46/51/40 50/55/40 
f 46/51/41 47/52/41 50/55/41 
f 47/52/42 48/53/42 50/55/42 
f 48/53/43 49/54/43 50/55/43 
f 49/54/44 43/47/44 50/55/44 
# 64 faces

#
# object BottomGripBase
#

v  0.5031 0.2905 -0.0430
v  0.2452 0.4155 -0.1844
v  0.3038 0.4155 -0.0430
v  0.3861 0.2905 -0.3253
v  0.2824 0.1250 -0.2824
v  -0.0000 0.2500 -0.2000
v  0.1414 0.2500 -0.1414
v  -0.0000 0.1250 -0.3993
v  -0.0430 0.2905 -0.5031
v  -0.1844 0.4155 -0.2452
v  -0.0430 0.4155 -0.3038
v  -0.3253 0.2905 -0.3861
v  -0.2824 0.1250 -0.2824
v  -0.2000 0.2500 0.0000
v  -0.1414 0.2500 -0.1414
v  -0.3993 0.1250 0.0000
v  -0.5031 0.2905 0.0430
v  -0.2452 0.4155 0.1844
v  -0.3038 0.4155 0.0430
v  -0.3861 0.2905 0.3253
v  -0.2824 0.1250 0.2824
v  0.0000 0.2500 0.2000
v  -0.1414 0.2500 0.1414
v  0.0000 0.1250 0.3993
v  0.0431 0.2905 0.5030
v  0.1841 0.4155 0.2447
v  0.0431 0.4155 0.3037
v  0.3254 0.2905 0.3860
v  0.2824 0.1250 0.2824
v  0.2000 0.2500 -0.0000
v  0.1411 0.2500 0.1411
v  0.3993 0.1250 -0.0000
v  -0.0000 0.1875 -0.0000
v  0.2519 0.3327 -0.0215
v  0.1933 0.3327 -0.1629
v  0.4512 0.2077 -0.0215
v  0.3342 0.2077 -0.3038
v  -0.0215 0.2077 -0.4512
v  -0.0215 0.3327 -0.2519
v  -0.1629 0.3327 -0.1933
v  -0.3038 0.2077 -0.3342
v  -0.4512 0.2077 0.0215
v  -0.2519 0.3327 0.0215
v  -0.1933 0.3327 0.1629
v  -0.3342 0.2077 0.3038
v  0.0215 0.2078 0.4511
v  0.0215 0.3328 0.2518
v  0.1626 0.3328 0.1929
v  0.3039 0.2078 0.3342
# 49 vertices

vn 0.5189 0.8274 -0.2149
vn 0.2149 0.8274 -0.5189
vn -0.2149 0.8274 -0.5189
vn -0.5189 0.8274 -0.2149
vn -0.5189 0.8274 0.2149
vn -0.2149 0.8274 0.5189
vn 0.2166 0.8271 0.5187
vn 0.2146 0.8280 0.5181
vn 0.5170 0.8283 0.2159
vn 0.5189 0.8274 0.2149
vn -0.0001 1.0000 -0.0001
vn -0.2983 0.9545 -0.0004
vn -0.2109 0.9545 0.2109
vn -0.0000 0.9545 0.2983
vn 0.2109 0.9545 0.2109
vn 0.2983 0.9545 -0.0000
vn 0.2109 0.9545 -0.2109
vn -0.0004 0.9545 -0.2983
vn -0.2114 0.9543 -0.2114
vn -0.7644 0.5617 0.3166
vn 0.1142 0.1821 0.9766
vn 0.7644 -0.5617 -0.3166
vn -0.6098 0.1821 -0.7713
vn 0.9766 0.1821 -0.1142
vn 0.3166 0.5617 0.7644
vn -0.3166 -0.5617 -0.7644
vn -0.7713 0.1821 0.6098
vn -0.1142 0.1821 -0.9766
vn 0.7644 0.5617 -0.3166
vn -0.7644 -0.5617 0.3166
vn 0.6098 0.1821 0.7713
vn -0.9766 0.1824 0.1144
vn -0.3189 0.5612 -0.7638
vn 0.3167 -0.5612 0.7647
vn 0.7710 0.1816 -0.6103
# 35 vertex normals

vt 0.1466 0.2841 0.0000
vt 0.2229 0.3582 0.0000
vt 0.1720 0.3582 0.0000
vt 0.2483 0.2841 0.0000
vt 0.0003 0.2817 0.0000
vt 0.0759 0.3552 0.0000
vt 0.0255 0.3553 0.0000
vt 0.1012 0.2818 0.0000
vt 0.3680 0.3432 0.0000
vt 0.3358 0.4120 0.0000
vt 0.2965 0.3691 0.0000
vt 0.2991 0.3110 0.0000
vt 0.3421 0.2719 0.0000
vt 0.4001 0.2743 0.0000
vt 0.4394 0.3172 0.0000
vt 0.4368 0.3753 0.0000
vt 0.3939 0.4146 0.0000
vt 0.5000 0.0000 0.0000
vt 0.5781 0.0000 0.0000
vt 0.5781 0.0313 0.0000
vt 0.5000 0.0313 0.0000
vt 0.5781 0.0625 0.0000
vt 0.5000 0.0625 0.0000
# 23 texture coords

g BottomGripBase
f 51/56/45 52/57/45 53/58/45 
f 51/56/45 54/59/45 52/57/45 
f 55/60/46 56/61/46 57/62/46 
f 55/60/46 58/63/46 56/61/46 
f 59/56/47 60/57/47 61/58/47 
f 59/56/47 62/59/47 60/57/47 
f 63/60/48 64/61/48 65/62/48 
f 63/60/48 66/63/48 64/61/48 
f 67/56/49 68/57/49 69/58/49 
f 67/56/49 70/59/49 68/57/49 
f 71/60/50 72/61/50 73/62/50 
f 71/60/50 74/63/50 72/61/50 
f 75/56/51 76/57/51 77/58/51 
f 75/56/52 78/59/52 76/57/52 
f 79/60/53 80/61/53 81/62/53 
f 79/60/54 82/63/54 80/61/54 
f 83/64/55 80/65/56 57/66/57 
f 83/64/55 57/66/57 56/67/58 
f 83/64/55 56/67/58 65/68/59 
f 83/64/55 65/68/59 64/69/60 
f 83/64/55 64/69/60 73/70/61 
f 83/64/55 73/70/61 72/71/62 
f 83/64/55 72/71/62 81/72/63 
f 83/64/55 81/72/63 80/65/56 
f 57/73/64 80/74/64 84/75/64 
f 84/75/64 85/76/64 57/73/64 
f 80/73/65 82/74/65 86/75/65 
f 86/75/65 84/76/65 80/73/65 
f 82/77/66 55/78/66 87/76/66 
f 87/76/66 86/75/66 82/77/66 
f 55/73/67 57/74/67 85/75/67 
f 85/75/67 87/76/67 55/73/67 
f 56/73/68 58/74/68 88/75/68 
f 88/75/68 89/76/68 56/73/68 
f 65/73/69 56/74/69 89/75/69 
f 89/75/69 90/76/69 65/73/69 
f 58/77/70 63/78/70 91/76/70 
f 91/76/70 88/75/70 58/77/70 
f 63/73/71 65/74/71 90/75/71 
f 90/75/71 91/76/71 63/73/71 
f 64/73/72 66/74/72 92/75/72 
f 92/75/72 93/76/72 64/73/72 
f 73/73/73 64/74/73 93/75/73 
f 93/75/73 94/76/73 73/73/73 
f 66/77/74 71/78/74 95/76/74 
f 95/76/74 92/75/74 66/77/74 
f 71/73/75 73/74/75 94/75/75 
f 94/75/75 95/76/75 71/73/75 
f 72/73/76 74/74/76 96/75/76 
f 96/75/76 97/76/76 72/73/76 
f 81/73/77 72/74/77 97/75/77 
f 97/75/77 98/76/77 81/73/77 
f 74/77/78 79/78/78 99/76/78 
f 99/76/78 96/75/78 74/77/78 
f 79/73/79 81/74/79 98/75/79 
f 98/75/79 99/76/79 79/73/79 
f 85/76/64 84/75/64 53/77/64 
f 53/77/64 52/78/64 85/76/64 
f 84/76/65 86/75/65 51/77/65 
f 51/77/65 53/78/65 84/76/65 
f 86/75/66 87/76/66 54/73/66 
f 54/73/66 51/74/66 86/75/66 
f 87/76/67 85/75/67 52/77/67 
f 52/77/67 54/78/67 87/76/67 
f 90/76/69 89/75/69 61/77/69 
f 61/77/69 60/78/69 90/76/69 
f 89/76/68 88/75/68 59/77/68 
f 59/77/68 61/78/68 89/76/68 
f 88/75/70 91/76/70 62/73/70 
f 62/73/70 59/74/70 88/75/70 
f 91/76/71 90/75/71 60/77/71 
f 60/77/71 62/78/71 91/76/71 
f 94/76/73 93/75/73 69/77/73 
f 69/77/73 68/78/73 94/76/73 
f 93/76/72 92/75/72 67/77/72 
f 67/77/72 69/78/72 93/76/72 
f 92/75/74 95/76/74 70/73/74 
f 70/73/74 67/74/74 92/75/74 
f 95/76/75 94/75/75 68/77/75 
f 68/77/75 70/78/75 95/76/75 
f 98/76/77 97/75/77 77/77/77 
f 77/77/77 76/78/77 98/76/77 
f 97/76/76 96/75/76 75/77/76 
f 75/77/76 77/78/76 97/76/76 
f 96/75/78 99/76/78 78/73/78 
f 78/73/78 75/74/78 96/75/78 
f 99/76/79 98/75/79 76/77/79 
f 76/77/79 78/78/79 99/76/79 
# 88 faces

#
# object TopGripBase
#

v  -0.5031 0.7095 -0.0430
v  -0.2452 0.5845 -0.1844
v  -0.3038 0.5845 -0.0430
v  -0.3861 0.7095 -0.3253
v  -0.2824 0.8750 -0.2824
v  -0.0000 0.7500 -0.2000
v  -0.1414 0.7500 -0.1414
v  0.0000 0.8750 -0.3993
v  0.0430 0.7095 -0.5031
v  0.1844 0.5845 -0.2452
v  0.0430 0.5845 -0.3038
v  0.3253 0.7095 -0.3861
v  0.2824 0.8750 -0.2824
v  0.2000 0.7500 0.0000
v  0.1414 0.7500 -0.1414
v  0.3993 0.8750 0.0000
v  0.5031 0.7095 0.0430
v  0.2452 0.5845 0.1844
v  0.3038 0.5845 0.0430
v  0.3861 0.7095 0.3253
v  0.2824 0.8750 0.2824
v  -0.0000 0.7500 0.2000
v  0.1414 0.7500 0.1414
v  -0.0000 0.8750 0.3993
v  -0.0431 0.7095 0.5030
v  -0.1841 0.5845 0.2447
v  -0.0431 0.5845 0.3037
v  -0.3254 0.7095 0.3860
v  -0.2824 0.8750 0.2824
v  -0.2000 0.7500 -0.0000
v  -0.1411 0.7500 0.1411
v  -0.3993 0.8750 -0.0000
v  -0.0000 0.8125 -0.0000
v  -0.2519 0.6673 -0.0215
v  -0.1933 0.6673 -0.1629
v  -0.4512 0.7923 -0.0215
v  -0.3342 0.7923 -0.3038
v  0.0215 0.7923 -0.4512
v  0.0215 0.6673 -0.2519
v  0.1629 0.6673 -0.1933
v  0.3038 0.7923 -0.3342
v  0.4512 0.7923 0.0215
v  0.2519 0.6673 0.0215
v  0.1933 0.6673 0.1629
v  0.3342 0.7923 0.3038
v  -0.0215 0.7922 0.4511
v  -0.0215 0.6672 0.2518
v  -0.1626 0.6672 0.1929
v  -0.3039 0.7922 0.3342
# 49 vertices

vn -0.5189 -0.8274 -0.2149
vn -0.2149 -0.8274 -0.5189
vn 0.2149 -0.8274 -0.5189
vn 0.5189 -0.8274 -0.2149
vn 0.5189 -0.8274 0.2149
vn 0.2149 -0.8274 0.5189
vn -0.2166 -0.8271 0.5187
vn -0.2146 -0.8280 0.5181
vn -0.5170 -0.8283 0.2159
vn -0.5189 -0.8274 0.2149
vn 0.0001 -1.0000 -0.0001
vn 0.2983 -0.9545 -0.0004
vn 0.2109 -0.9545 0.2109
vn -0.0000 -0.9545 0.2983
vn -0.2109 -0.9545 0.2109
vn -0.2983 -0.9545 -0.0000
vn -0.2109 -0.9545 -0.2109
vn 0.0004 -0.9545 -0.2983
vn 0.2114 -0.9543 -0.2114
vn 0.7644 -0.5617 0.3166
vn -0.1142 -0.1821 0.9766
vn -0.7644 0.5617 -0.3166
vn 0.6098 -0.1821 -0.7713
vn -0.9766 -0.1821 -0.1142
vn -0.3166 -0.5617 0.7644
vn 0.3166 0.5617 -0.7644
vn 0.7713 -0.1821 0.6098
vn 0.1142 -0.1821 -0.9766
vn -0.7644 -0.5617 -0.3166
vn 0.7644 0.5617 0.3166
vn -0.6098 -0.1821 0.7713
vn 0.9766 -0.1824 0.1144
vn 0.3189 -0.5612 -0.7638
vn -0.3167 0.5612 0.7647
vn -0.7710 -0.1816 -0.6103
# 35 vertex normals

vt 0.1466 0.2841 0.0000
vt 0.2229 0.3582 0.0000
vt 0.1720 0.3582 0.0000
vt 0.2483 0.2841 0.0000
vt 0.0003 0.2817 0.0000
vt 0.0759 0.3552 0.0000
vt 0.0255 0.3553 0.0000
vt 0.1012 0.2818 0.0000
vt 0.3680 0.3432 0.0000
vt 0.4001 0.2743 0.0000
vt 0.4394 0.3172 0.0000
vt 0.4368 0.3753 0.0000
vt 0.3939 0.4146 0.0000
vt 0.3358 0.4120 0.0000
vt 0.2965 0.3691 0.0000
vt 0.2991 0.3110 0.0000
vt 0.3421 0.2719 0.0000
vt 0.5781 0.0625 0.0000
vt 0.5000 0.0625 0.0000
vt 0.5000 0.0313 0.0000
vt 0.5781 0.0313 0.0000
vt 0.5000 0.0000 0.0000
vt 0.5781 0.0000 0.0000
# 23 texture coords

g TopGripBase
f 100/79/80 101/80/80 102/81/80 
f 100/79/80 103/82/80 101/80/80 
f 104/83/81 105/84/81 106/85/81 
f 104/83/81 107/86/81 105/84/81 
f 108/79/82 109/80/82 110/81/82 
f 108/79/82 111/82/82 109/80/82 
f 112/83/83 113/84/83 114/85/83 
f 112/83/83 115/86/83 113/84/83 
f 116/79/84 117/80/84 118/81/84 
f 116/79/84 119/82/84 117/80/84 
f 120/83/85 121/84/85 122/85/85 
f 120/83/85 123/86/85 121/84/85 
f 124/79/86 125/80/86 126/81/86 
f 124/79/87 127/82/87 125/80/87 
f 128/83/88 129/84/88 130/85/88 
f 128/83/89 131/86/89 129/84/89 
f 132/87/90 129/88/91 106/89/92 
f 132/87/90 106/89/92 105/90/93 
f 132/87/90 105/90/93 114/91/94 
f 132/87/90 114/91/94 113/92/95 
f 132/87/90 113/92/95 122/93/96 
f 132/87/90 122/93/96 121/94/97 
f 132/87/90 121/94/97 130/95/98 
f 132/87/90 130/95/98 129/88/91 
f 106/96/99 129/97/99 133/98/99 
f 133/98/99 134/99/99 106/96/99 
f 129/96/100 131/97/100 135/98/100 
f 135/98/100 133/99/100 129/96/100 
f 131/96/101 104/97/101 136/98/101 
f 136/98/101 135/99/101 131/96/101 
f 104/96/102 106/97/102 134/98/102 
f 134/98/102 136/99/102 104/96/102 
f 105/96/103 107/97/103 137/98/103 
f 137/98/103 138/99/103 105/96/103 
f 114/96/104 105/97/104 138/98/104 
f 138/98/104 139/99/104 114/96/104 
f 107/96/105 112/97/105 140/98/105 
f 140/98/105 137/99/105 107/96/105 
f 112/96/106 114/97/106 139/98/106 
f 139/98/106 140/99/106 112/96/106 
f 113/96/107 115/97/107 141/98/107 
f 141/98/107 142/99/107 113/96/107 
f 122/96/108 113/97/108 142/98/108 
f 142/98/108 143/99/108 122/96/108 
f 115/96/109 120/97/109 144/98/109 
f 144/98/109 141/99/109 115/96/109 
f 120/96/110 122/97/110 143/98/110 
f 143/98/110 144/99/110 120/96/110 
f 121/96/111 123/97/111 145/98/111 
f 145/98/111 146/99/111 121/96/111 
f 130/96/112 121/97/112 146/98/112 
f 146/98/112 147/99/112 130/96/112 
f 123/96/113 128/97/113 148/98/113 
f 148/98/113 145/99/113 123/96/113 
f 128/96/114 130/97/114 147/98/114 
f 147/98/114 148/99/114 128/96/114 
f 134/99/99 133/98/99 102/100/99 
f 102/100/99 101/101/99 134/99/99 
f 133/99/100 135/98/100 100/100/100 
f 100/100/100 102/101/100 133/99/100 
f 135/99/101 136/98/101 103/100/101 
f 103/100/101 100/101/101 135/99/101 
f 136/99/102 134/98/102 101/100/102 
f 101/100/102 103/101/102 136/99/102 
f 139/99/104 138/98/104 110/100/104 
f 110/100/104 109/101/104 139/99/104 
f 138/99/103 137/98/103 108/100/103 
f 108/100/103 110/101/103 138/99/103 
f 137/99/105 140/98/105 111/100/105 
f 111/100/105 108/101/105 137/99/105 
f 140/99/106 139/98/106 109/100/106 
f 109/100/106 111/101/106 140/99/106 
f 143/99/108 142/98/108 118/100/108 
f 118/100/108 117/101/108 143/99/108 
f 142/99/107 141/98/107 116/100/107 
f 116/100/107 118/101/107 142/99/107 
f 141/99/109 144/98/109 119/100/109 
f 119/100/109 116/101/109 141/99/109 
f 144/99/110 143/98/110 117/100/110 
f 117/100/110 119/101/110 144/99/110 
f 147/99/112 146/98/112 126/100/112 
f 126/100/112 125/101/112 147/99/112 
f 146/99/111 145/98/111 124/100/111 
f 124/100/111 126/101/111 146/99/111 
f 145/99/113 148/98/113 127/100/113 
f 127/100/113 124/101/113 145/99/113 
f 148/99/114 147/98/114 125/100/114 
f 125/100/114 127/101/114 148/99/114 
# 88 faces

