# Blender v2.82 (sub 7) OBJ File: 'wire_thin.blend'
# www.blender.org
g North_Cube
v 0.125000 -0.125000 -0.125000
v 0.125000 0.125000 -0.125000
v -0.125000 0.125000 -0.125000
v -0.125000 -0.125000 -0.125000
v -0.125000 0.125000 -0.500000
v -0.125000 -0.125000 -0.500000
v 0.125000 0.125000 -0.500000
v 0.125000 -0.125000 -0.500000
vt -0.000000 1.000000
vt 0.000000 0.500200
vt 0.499800 0.500200
vt 0.499800 1.000000
vt 1.000000 0.000000
vt 0.500000 0.000000
vt 0.500000 0.750000
vt 1.000000 0.750000
vt 0.499900 0.500200
vt 0.499900 1.000000
vt 0.000100 1.000000
vt 0.000100 0.500200
vt 1.000000 0.750000
vt 0.500000 0.750000
vt 0.500000 0.000000
vt 1.000000 0.000000
vt 0.500000 0.750000
vt 0.500000 0.000000
vt 1.000000 0.750000
vt 1.000000 0.000000
vn 0.0000 -0.0000 1.0000
vn -1.0000 0.0000 0.0000
vn 0.0000 0.0000 -1.0000
vn 1.0000 0.0000 0.0000
vn 0.0000 -1.0000 -0.0000
vn 0.0000 1.0000 0.0000
s 1
f 1/1/1 2/2/1 3/3/1 4/4/1
f 4/5/2 3/6/2 5/7/2 6/8/2
f 6/9/3 5/10/3 7/11/3 8/12/3
f 8/13/4 7/14/4 2/15/4 1/16/4
f 4/5/5 6/8/5 8/17/5 1/18/5
f 5/19/6 3/20/6 2/15/6 7/14/6
g South_Cube
v -0.125000 -0.125000 0.125000
v -0.125000 0.125000 0.125000
v 0.125000 0.125000 0.125000
v 0.125000 -0.125000 0.125000
v 0.125000 0.125000 0.500000
v 0.125000 -0.125000 0.500000
v -0.125000 0.125000 0.500000
v -0.125000 -0.125000 0.500000
vt 0.499800 0.500100
vt 0.499800 0.999900
vt -0.000000 0.999900
vt 0.000000 0.500100
vt 0.500000 0.000000
vt 1.000000 0.000000
vt 1.000000 0.750000
vt 0.500000 0.750000
vt 0.000100 1.000000
vt 0.000100 0.500200
vt 0.499900 0.500200
vt 0.499900 1.000000
vt 0.500000 0.750000
vt 1.000000 0.750000
vt 1.000000 0.000000
vt 0.500000 0.000000
vt 1.000000 0.000000
vt 1.000000 0.750000
vt 0.500000 0.000000
vt 0.500000 0.750000
vn 0.0000 0.0000 -1.0000
vn 1.0000 0.0000 0.0000
vn 0.0000 0.0000 1.0000
vn -1.0000 0.0000 0.0000
vn 0.0000 -1.0000 -0.0000
vn 0.0000 1.0000 0.0000
s 1
f 9/21/7 10/22/7 11/23/7 12/24/7
f 12/25/8 11/26/8 13/27/8 14/28/8
f 14/29/9 13/30/9 15/31/9 16/32/9
f 16/33/10 15/34/10 10/35/10 9/36/10
f 12/37/11 14/38/11 16/33/11 9/36/11
f 13/27/12 11/26/12 10/39/12 15/40/12
g West_Cube
v -0.125000 0.125000 0.125000
v -0.125000 -0.125000 0.125000
v -0.125000 -0.125000 -0.125000
v -0.125000 0.125000 -0.125000
v -0.500000 -0.125000 -0.125000
v -0.500000 0.125000 -0.125000
v -0.500000 -0.125000 0.125000
v -0.500000 0.125000 0.125000
vt 0.000100 1.000000
vt 0.000100 0.500200
vt 0.499900 0.500200
vt 0.499900 1.000000
vt 1.000000 0.000000
vt 0.500000 0.000000
vt 0.500000 0.750000
vt 1.000000 0.750000
vt 0.000100 0.999900
vt 0.000100 0.500100
vt 0.499900 0.500100
vt 0.499900 0.999900
vt 1.000000 0.750000
vt 0.500000 0.750000
vt 0.500000 0.000000
vt 1.000000 0.000000
vt 0.500000 0.000000
vt 0.500000 0.750000
vt 1.000000 0.000000
vt 1.000000 0.750000
vn 1.0000 0.0000 0.0000
vn 0.0000 0.0000 -1.0000
vn -1.0000 0.0000 0.0000
vn 0.0000 -0.0000 1.0000
vn 0.0000 1.0000 0.0000
vn 0.0000 -1.0000 -0.0000
s 1
f 17/41/13 18/42/13 19/43/13 20/44/13
f 20/45/14 19/46/14 21/47/14 22/48/14
f 22/49/15 21/50/15 23/51/15 24/52/15
f 24/53/16 23/54/16 18/55/16 17/56/16
f 20/57/17 22/58/17 24/53/17 17/56/17
f 21/47/18 19/46/18 18/59/18 23/60/18
g East_Cube
v 0.125000 -0.125000 0.125000
v 0.125000 0.125000 0.125000
v 0.125000 0.125000 -0.125000
v 0.125000 -0.125000 -0.125000
v 0.500000 0.125000 -0.125000
v 0.500000 -0.125000 -0.125000
v 0.500000 0.125000 0.125000
v 0.500000 -0.125000 0.125000
vt 0.000100 0.000100
vt 0.499900 0.000100
vt 0.499900 0.499900
vt 0.000100 0.499900
vt 1.000000 0.000000
vt 0.500000 0.000000
vt 0.500000 0.750000
vt 1.000000 0.750000
vt 0.499900 0.500100
vt 0.499900 0.999900
vt 0.000100 0.999900
vt 0.000100 0.500100
vt 1.000000 0.750000
vt 0.500000 0.750000
vt 0.500000 0.000000
vt 1.000000 0.000000
vt 0.500000 0.750000
vt 0.500000 0.000000
vt 1.000000 0.750000
vt 1.000000 0.000000
vn -1.0000 0.0000 0.0000
vn 0.0000 0.0000 -1.0000
vn 1.0000 0.0000 0.0000
vn 0.0000 -0.0000 1.0000
vn 0.0000 -1.0000 -0.0000
vn 0.0000 1.0000 0.0000
s 1
f 25/61/19 26/62/19 27/63/19 28/64/19
f 28/65/20 27/66/20 29/67/20 30/68/20
f 30/69/21 29/70/21 31/71/21 32/72/21
f 32/73/22 31/74/22 26/75/22 25/76/22
f 28/65/23 30/68/23 32/77/23 25/78/23
f 29/79/24 27/80/24 26/75/24 31/74/24
g Down_Cube
v -0.125000 -0.125000 0.125000
v 0.125000 -0.125000 0.125000
v 0.125000 -0.125000 -0.125000
v -0.125000 -0.125000 -0.125000
v 0.125000 -0.500000 -0.125000
v -0.125000 -0.500000 -0.125000
v 0.125000 -0.500000 0.125000
v -0.125000 -0.500000 0.125000
vt 0.000000 0.500000
vt 0.500000 0.500000
vt 0.500000 1.000000
vt 0.000000 1.000000
vt 0.500000 0.000000
vt 1.000000 0.000000
vt 1.000000 0.750000
vt 0.500000 0.750000
vt 0.500000 1.000000
vt 0.000000 1.000000
vt 0.000000 0.500000
vt 0.500000 0.500000
vt 1.000000 0.750000
vt 0.500000 0.750000
vt 0.500000 0.000000
vt 1.000000 0.000000
vt 1.000000 0.000000
vt 1.000000 0.750000
vt 0.500000 0.750000
vt 0.500000 0.000000
vt 0.500000 0.750000
vt 0.500000 0.000000
vt 1.000000 0.000000
vt 1.000000 0.750000
vn 0.0000 1.0000 0.0000
vn 0.0000 0.0000 -1.0000
vn 0.0000 -1.0000 0.0000
vn 0.0000 -0.0000 1.0000
vn -1.0000 -0.0000 0.0000
vn 1.0000 -0.0000 0.0000
s 1
f 33/81/25 34/82/25 35/83/25 36/84/25
f 36/85/26 35/86/26 37/87/26 38/88/26
f 38/89/27 37/90/27 39/91/27 40/92/27
f 40/93/28 39/94/28 34/95/28 33/96/28
f 36/97/29 38/98/29 40/99/29 33/100/29
f 37/101/30 35/102/30 34/103/30 39/104/30
g Core_Cube
v 0.125000 -0.125000 -0.125000
v 0.125000 -0.125000 0.125000
v -0.125000 -0.125000 0.125000
v -0.125000 -0.125000 -0.125000
v 0.125000 0.125000 -0.125000
v -0.125000 0.125000 -0.125000
v -0.125000 0.125000 0.125000
v 0.125000 0.125000 0.125000
vt 0.000000 0.500000
vt 0.000000 0.000000
vt 0.500000 0.000000
vt 0.500000 0.500000
vt 0.500000 0.000000
vt 0.000000 0.000000
vt 0.000000 0.500000
vt 0.500000 0.500000
vt 0.000000 0.000000
vt 0.000000 0.500000
vt 0.500000 0.000000
vt 0.000000 0.000000
vt 0.000000 0.000000
vt 0.000000 0.500000
vt 0.000000 0.000000
vt 0.500000 0.000000
vn 0.0000 -1.0000 -0.0000
vn 0.0000 1.0000 0.0000
vn 1.0000 0.0000 0.0000
vn 0.0000 -0.0000 1.0000
vn -1.0000 -0.0000 0.0000
vn 0.0000 0.0000 -1.0000
s 1
f 41/105/31 42/106/31 43/107/31 44/108/31
f 45/109/32 46/110/32 47/111/32 48/112/32
f 41/113/33 45/109/33 48/112/33 42/114/33
f 42/115/34 48/112/34 47/111/34 43/116/34
f 43/107/35 47/117/35 46/118/35 44/108/35
f 45/119/36 41/105/36 44/108/36 46/120/36
g Up_Cube
v 0.125000 0.125000 0.125000
v -0.125000 0.125000 0.125000
v -0.125000 0.125000 -0.125000
v 0.125000 0.125000 -0.125000
v -0.125000 0.500000 -0.125000
v 0.125000 0.500000 -0.125000
v -0.125000 0.500000 0.125000
v 0.125000 0.500000 0.125000
vt 0.000100 0.999800
vt 0.000100 0.500000
vt 0.499900 0.500000
vt 0.499900 0.999800
vt 1.000000 0.000000
vt 0.500000 0.000000
vt 0.500000 0.750000
vt 1.000000 0.750000
vt 0.000100 0.999900
vt 0.000100 0.500100
vt 0.499900 0.500100
vt 0.499900 0.999900
vt 1.000000 0.750000
vt 0.500000 0.750000
vt 0.500000 0.000000
vt 1.000000 0.000000
vt 0.500000 0.750000
vt 0.500000 0.000000
vt 1.000000 0.750000
vt 1.000000 0.000000
vn 0.0000 -1.0000 -0.0000
vn 0.0000 0.0000 -1.0000
vn 0.0000 1.0000 0.0000
vn 0.0000 -0.0000 1.0000
vn 1.0000 0.0000 0.0000
vn -1.0000 0.0000 0.0000
s 1
f 49/121/37 50/122/37 51/123/37 52/124/37
f 52/125/38 51/126/38 53/127/38 54/128/38
f 54/129/39 53/130/39 55/131/39 56/132/39
f 56/133/40 55/134/40 50/135/40 49/136/40
f 52/125/41 54/128/41 56/137/41 49/138/41
f 53/139/42 51/140/42 50/135/42 55/134/42
