# 3ds Max Wavefront OBJ Exporter v0.97b - (c)2007 guruware
# File Created: 20.09.2015 10:29:43

#
# object Stage06
#

v  0.7500 1.9250 -0.0000
v  0.6495 1.9250 -0.3750
v  0.6495 2.3250 -0.3750
v  0.7500 2.3250 -0.0000
v  0.3750 1.9250 -0.6495
v  0.3750 2.3250 -0.6495
v  -0.0000 1.9250 -0.7500
v  -0.0000 2.3250 -0.7500
v  -0.3750 1.9250 -0.6495
v  -0.3750 2.3250 -0.6495
v  -0.6495 1.9250 -0.3750
v  -0.6495 2.3250 -0.3750
v  -0.7500 1.9250 -0.0000
v  -0.7500 2.3250 -0.0000
v  -0.6495 1.9250 0.3750
v  -0.6495 2.3250 0.3750
v  -0.3750 1.9250 0.6495
v  -0.3750 2.3250 0.6495
v  -0.0000 1.9250 0.7500
v  -0.0000 2.3250 0.7500
v  0.3750 1.9250 0.6495
v  0.3750 2.3250 0.6495
v  0.6495 1.9250 0.3750
v  0.6495 2.3250 0.3750
# 24 vertices

vn 1.0000 0.0000 0.0000
vn 0.8660 0.0000 -0.5000
vn 0.5000 0.0000 -0.8660
vn -0.0000 0.0000 -1.0000
vn -0.5000 0.0000 -0.8660
vn -0.8660 0.0000 -0.5000
vn -1.0000 0.0000 -0.0000
vn -0.8660 0.0000 0.5000
vn -0.5000 0.0000 0.8660
vn -0.0000 0.0000 1.0000
vn 0.5000 0.0000 0.8660
vn 0.8660 0.0000 0.5000
vn 0.0000 1.0000 -0.0000
# 13 vertex normals

vt 0.3906 0.9063 0.5000
vt 0.4375 0.9063 0.5000
vt 0.4375 0.9531 0.5000
vt 0.3906 0.9531 0.5000
vt 0.4844 0.9063 0.5000
vt 0.4844 0.9531 0.5000
vt 0.5313 0.9063 0.5000
vt 0.5313 0.9531 0.5000
vt 0.5781 0.9063 0.5000
vt 0.5781 0.9531 0.5000
vt 0.6250 0.9063 0.5000
vt 0.6250 0.9531 0.5000
vt 0.6719 0.9063 0.5000
vt 0.6719 0.9531 0.5000
vt 0.7188 0.9063 0.5000
vt 0.7188 0.9531 0.5000
vt 0.7656 0.9063 0.5000
vt 0.7656 0.9531 0.5000
vt 0.8125 0.9063 0.5000
vt 0.8125 0.9531 0.5000
vt 0.8594 0.9063 0.5000
vt 0.8594 0.9531 0.5000
vt 0.9063 0.9063 0.5000
vt 0.9063 0.9531 0.5000
vt 0.9531 0.9063 0.5000
vt 0.9531 0.9531 0.5000
vt 0.0938 0.9375 0.2500
vt 0.0625 0.9063 0.2500
vt 0.0469 0.8594 0.2500
vt 0.0625 0.8125 0.2500
vt 0.0938 0.7813 0.2500
vt 0.1406 0.7656 0.2500
vt 0.1875 0.7813 0.2500
vt 0.2188 0.8125 0.2500
vt 0.2344 0.8594 0.2500
vt 0.2188 0.9063 0.2500
vt 0.1875 0.9375 0.2500
vt 0.1406 0.9531 0.2500
# 38 texture coords

g Stage06
s 8
f 1/1/1 2/2/2 3/3/2 
f 3/3/2 4/4/1 1/1/1 
f 2/2/2 5/5/3 6/6/3 
f 6/6/3 3/3/2 2/2/2 
f 5/5/3 7/7/4 8/8/4 
f 8/8/4 6/6/3 5/5/3 
f 7/7/4 9/9/5 10/10/5 
f 10/10/5 8/8/4 7/7/4 
f 9/9/5 11/11/6 12/12/6 
f 12/12/6 10/10/5 9/9/5 
f 11/11/6 13/13/7 14/14/7 
f 14/14/7 12/12/6 11/11/6 
f 13/13/7 15/15/8 16/16/8 
f 16/16/8 14/14/7 13/13/7 
f 15/15/8 17/17/9 18/18/9 
f 18/18/9 16/16/8 15/15/8 
f 17/17/9 19/19/10 20/20/10 
f 20/20/10 18/18/9 17/17/9 
f 19/19/10 21/21/11 22/22/11 
f 22/22/11 20/20/10 19/19/10 
f 21/21/11 23/23/12 24/24/12 
f 24/24/12 22/22/11 21/21/11 
f 23/23/12 1/25/1 4/26/1 
f 4/26/1 24/24/12 23/23/12 
s 1
f 3/27/13 6/28/13 8/29/13 
f 8/29/13 10/30/13 12/31/13 
f 12/31/13 14/32/13 16/33/13 
f 8/29/13 12/31/13 16/33/13 
f 16/33/13 18/34/13 20/35/13 
f 20/35/13 22/36/13 24/37/13 
f 16/33/13 20/35/13 24/37/13 
f 8/29/13 16/33/13 24/37/13 
f 3/27/13 8/29/13 24/37/13 
f 4/38/13 3/27/13 24/37/13 
# 34 faces

#
# object Stage01
#

v  -0.9250 0.1250 0.3250
v  -0.9250 0.1250 -0.3250
v  -0.3250 0.1250 -0.9250
v  0.3250 0.1250 -0.9250
v  0.9250 0.1250 -0.3250
v  0.9250 0.1250 0.3250
v  0.3250 0.1250 0.9250
v  -0.3250 0.1250 0.9250
v  -0.3250 0.3250 0.9250
v  0.3250 0.3250 0.9250
v  0.9250 0.3250 0.3250
v  0.9250 0.3250 -0.3250
v  0.3250 0.3250 -0.9250
v  -0.3250 0.3250 -0.9250
v  -0.9250 0.3250 -0.3250
v  -0.9250 0.3250 0.3250
# 16 vertices

vn 0.0000 -1.0000 -0.0000
vn 0.0000 1.0000 -0.0000
vn 0.0000 0.0000 1.0000
vn 1.0000 0.0000 -0.0000
vn 0.0000 0.0000 -1.0000
vn -1.0000 0.0000 -0.0000
vn 0.7071 0.0000 0.7071
vn -0.7071 0.0000 0.7071
vn 0.7071 0.0000 -0.7071
vn -0.7071 0.0000 -0.7071
# 10 vertex normals

vt 0.5469 0.1094 0.0000
vt 0.5469 0.2344 0.0000
vt 0.6563 0.3438 0.0000
vt 0.7813 0.3438 0.0000
vt 0.8906 0.2344 0.0000
vt 0.8906 0.1094 0.0000
vt 0.7813 -0.0000 0.0000
vt 0.6563 0.0000 0.0000
vt 0.8750 0.0000 0.0000
vt 1.0000 0.0000 0.0000
vt 1.0000 0.0313 0.0000
vt 0.8750 0.0313 0.0000
# 12 texture coords

g Stage01
s 2
f 25/39/14 26/40/14 27/41/14 
f 27/41/14 28/42/14 29/43/14 
f 25/39/14 27/41/14 29/43/14 
f 29/43/14 30/44/14 31/45/14 
f 25/39/14 29/43/14 31/45/14 
f 32/46/14 25/39/14 31/45/14 
s 4
f 33/46/15 34/45/15 35/44/15 
f 35/44/15 36/43/15 37/42/15 
f 33/46/15 35/44/15 37/42/15 
f 37/42/15 38/41/15 39/40/15 
f 33/46/15 37/42/15 39/40/15 
f 40/39/15 33/46/15 39/40/15 
s 8
f 32/47/16 31/48/16 34/49/16 
f 34/49/16 33/50/16 32/47/16 
s 16
f 30/47/17 29/48/17 36/49/17 
f 36/49/17 35/50/17 30/47/17 
s 32
f 28/47/18 27/48/18 38/49/18 
f 38/49/18 37/50/18 28/47/18 
s 64
f 26/47/19 25/48/19 40/49/19 
f 40/49/19 39/50/19 26/47/19 
s off
f 31/47/20 30/48/20 35/49/20 
f 35/49/20 34/50/20 31/47/20 
f 33/49/21 40/50/21 25/47/21 
f 25/47/21 32/48/21 33/49/21 
f 29/47/22 28/48/22 37/49/22 
f 37/49/22 36/50/22 29/47/22 
f 27/47/23 26/48/23 39/49/23 
f 39/49/23 38/50/23 27/47/23 
# 28 faces

#
# object Stage07
#

v  -0.9250 2.7500 0.3250
v  -0.9250 2.7500 -0.3250
v  -0.3250 2.7500 -0.9250
v  0.3250 2.7500 -0.9250
v  0.9250 2.7500 -0.3250
v  0.9250 2.7500 0.3250
v  0.3250 2.7500 0.9250
v  -0.3250 2.7500 0.9250
v  -0.3250 2.8750 0.9250
v  0.3250 2.8750 0.9250
v  0.9250 2.8750 0.3250
v  0.9250 2.8750 -0.3250
v  0.3250 2.8750 -0.9250
v  -0.3250 2.8750 -0.9250
v  -0.9250 2.8750 -0.3250
v  -0.9250 2.8750 0.3250
# 16 vertices

vn 0.0000 -1.0000 -0.0000
vn 0.0000 1.0000 -0.0000
vn 0.0000 0.0000 1.0000
vn 1.0000 0.0000 -0.0000
vn 0.0000 0.0000 -1.0000
vn -1.0000 0.0000 -0.0000
vn 0.7071 0.0000 0.7071
vn -0.7071 0.0000 0.7071
vn 0.7071 0.0000 -0.7071
vn -0.7071 0.0000 -0.7071
# 10 vertex normals

vt 0.5469 0.1094 0.0000
vt 0.5469 0.2344 0.0000
vt 0.6563 0.3438 0.0000
vt 0.7813 0.3438 0.0000
vt 0.8906 0.2344 0.0000
vt 0.8906 0.1094 0.0000
vt 0.7813 -0.0000 0.0000
vt 0.6563 0.0000 0.0000
vt 0.8750 0.0313 0.0000
vt 1.0000 0.0313 0.0000
vt 1.0000 0.0469 0.0000
vt 0.8750 0.0469 0.0000
# 12 texture coords

g Stage07
s 2
f 41/51/24 42/52/24 43/53/24 
f 43/53/24 44/54/24 45/55/24 
f 41/51/24 43/53/24 45/55/24 
f 45/55/24 46/56/24 47/57/24 
f 41/51/24 45/55/24 47/57/24 
f 48/58/24 41/51/24 47/57/24 
s 4
f 49/58/25 50/57/25 51/56/25 
f 51/56/25 52/55/25 53/54/25 
f 49/58/25 51/56/25 53/54/25 
f 53/54/25 54/53/25 55/52/25 
f 49/58/25 53/54/25 55/52/25 
f 56/51/25 49/58/25 55/52/25 
s 8
f 48/59/26 47/60/26 50/61/26 
f 50/61/26 49/62/26 48/59/26 
s 16
f 46/59/27 45/60/27 52/61/27 
f 52/61/27 51/62/27 46/59/27 
s 32
f 44/59/28 43/60/28 54/61/28 
f 54/61/28 53/62/28 44/59/28 
s 64
f 42/59/29 41/60/29 56/61/29 
f 56/61/29 55/62/29 42/59/29 
s off
f 47/59/30 46/60/30 51/61/30 
f 51/61/30 50/62/30 47/59/30 
f 49/61/31 56/62/31 41/59/31 
f 41/59/31 48/60/31 49/61/31 
f 45/59/32 44/60/32 53/61/32 
f 53/61/32 52/62/32 45/59/32 
f 43/59/33 42/60/33 55/61/33 
f 55/61/33 54/62/33 43/59/33 
# 28 faces

#
# object Stage08
#

v  -0.0500 2.3280 -0.1500
v  0.0500 2.3280 -0.1500
v  0.0500 2.7500 -0.1500
v  -0.0500 2.7500 -0.1500
v  0.0500 2.3280 -0.2500
v  0.0500 2.7500 -0.2500
v  -0.0500 2.3280 -0.2500
v  -0.0500 2.7500 -0.2500
# 8 vertices

vn 0.0000 0.0000 1.0000
vn 1.0000 0.0000 -0.0000
vn 0.0000 0.0000 -1.0000
vn -1.0000 0.0000 -0.0000
# 4 vertex normals

vt 0.9531 0.1563 0.0000
vt 0.9688 0.1563 0.0000
vt 0.9688 0.2188 0.0000
vt 0.9531 0.2188 0.0000
# 4 texture coords

g Stage08
s 8
f 57/63/34 58/64/34 59/65/34 
f 59/65/34 60/66/34 57/63/34 
s 16
f 58/63/35 61/64/35 62/65/35 
f 62/65/35 59/66/35 58/63/35 
s 32
f 61/63/36 63/64/36 64/65/36 
f 64/65/36 62/66/36 61/63/36 
s 64
f 63/63/37 57/64/37 60/65/37 
f 60/65/37 64/66/37 63/63/37 
# 8 faces

#
# object Stage09
#

v  0.1549 2.3280 0.1683
v  0.2415 2.3280 0.1183
v  0.2415 2.7500 0.1183
v  0.1549 2.7500 0.1683
v  0.1915 2.3280 0.0317
v  0.1915 2.7500 0.0317
v  0.1049 2.3280 0.0817
v  0.1049 2.7500 0.0817
# 8 vertices

vn 0.5000 0.0000 0.8660
vn 0.8660 0.0000 -0.5000
vn -0.5000 0.0000 -0.8660
vn -0.8660 0.0000 0.5000
# 4 vertex normals

vt 0.9531 0.1563 0.0000
vt 0.9688 0.1563 0.0000
vt 0.9688 0.2188 0.0000
vt 0.9531 0.2188 0.0000
# 4 texture coords

g Stage09
s 8
f 65/67/38 66/68/38 67/69/38 
f 67/69/38 68/70/38 65/67/38 
s 16
f 66/67/39 69/68/39 70/69/39 
f 70/69/39 67/70/39 66/67/39 
s 32
f 69/67/40 71/68/40 72/69/40 
f 72/69/40 70/70/40 69/67/40 
s 64
f 71/67/41 65/68/41 68/69/41 
f 68/69/41 72/70/41 71/67/41 
# 8 faces

#
# object Stage10
#

v  -0.2415 2.3280 0.1183
v  -0.1549 2.3280 0.1683
v  -0.1549 2.7500 0.1683
v  -0.2415 2.7500 0.1183
v  -0.1049 2.3280 0.0817
v  -0.1049 2.7500 0.0817
v  -0.1915 2.3280 0.0317
v  -0.1915 2.7500 0.0317
# 8 vertices

vn -0.5000 0.0000 0.8660
vn 0.8660 0.0000 0.5000
vn 0.5000 0.0000 -0.8660
vn -0.8660 0.0000 -0.5000
# 4 vertex normals

vt 0.9531 0.1563 0.0000
vt 0.9688 0.1563 0.0000
vt 0.9688 0.2188 0.0000
vt 0.9531 0.2188 0.0000
# 4 texture coords

g Stage10
s 8
f 73/71/42 74/72/42 75/73/42 
f 75/73/42 76/74/42 73/71/42 
s 16
f 74/71/43 77/72/43 78/73/43 
f 78/73/43 75/74/43 74/71/43 
s 32
f 77/71/44 79/72/44 80/73/44 
f 80/73/44 78/74/44 77/71/44 
s 64
f 79/71/45 73/72/45 76/73/45 
f 76/73/45 80/74/45 79/71/45 
# 8 faces

#
# object Stage02
#

v  0.7500 0.3250 -0.0000
v  0.6495 0.3250 -0.3750
v  0.6495 0.7250 -0.3750
v  0.7500 0.7250 -0.0000
v  0.3750 0.3250 -0.6495
v  0.3750 0.7250 -0.6495
v  -0.0000 0.3250 -0.7500
v  -0.0000 0.7250 -0.7500
v  -0.3750 0.3250 -0.6495
v  -0.3750 0.7250 -0.6495
v  -0.6495 0.3250 -0.3750
v  -0.6495 0.7250 -0.3750
v  -0.7500 0.3250 -0.0000
v  -0.7500 0.7250 -0.0000
v  -0.6495 0.3250 0.3750
v  -0.6495 0.7250 0.3750
v  -0.3750 0.3250 0.6495
v  -0.3750 0.7250 0.6495
v  -0.0000 0.3250 0.7500
v  -0.0000 0.7250 0.7500
v  0.3750 0.3250 0.6495
v  0.3750 0.7250 0.6495
v  0.6495 0.3250 0.3750
v  0.6495 0.7250 0.3750
# 24 vertices

vn 1.0000 0.0000 0.0000
vn 0.8660 0.0000 -0.5000
vn 0.5000 0.0000 -0.8660
vn -0.0000 0.0000 -1.0000
vn -0.5000 0.0000 -0.8660
vn -0.8660 0.0000 -0.5000
vn -1.0000 0.0000 -0.0000
vn -0.8660 0.0000 0.5000
vn -0.5000 0.0000 0.8660
vn -0.0000 0.0000 1.0000
vn 0.5000 0.0000 0.8660
vn 0.8660 0.0000 0.5000
vn 0.0000 1.0000 -0.0000
# 13 vertex normals

vt 0.3906 0.7188 0.5000
vt 0.4375 0.7188 0.5000
vt 0.4375 0.7656 0.5000
vt 0.3906 0.7656 0.5000
vt 0.4844 0.7188 0.5000
vt 0.4844 0.7656 0.5000
vt 0.5313 0.7188 0.5000
vt 0.5313 0.7656 0.5000
vt 0.5781 0.7188 0.5000
vt 0.5781 0.7656 0.5000
vt 0.6250 0.7188 0.5000
vt 0.6250 0.7656 0.5000
vt 0.6719 0.7188 0.5000
vt 0.6719 0.7656 0.5000
vt 0.7188 0.7188 0.5000
vt 0.7188 0.7656 0.5000
vt 0.7656 0.7188 0.5000
vt 0.7656 0.7656 0.5000
vt 0.8125 0.7188 0.5000
vt 0.8125 0.7656 0.5000
vt 0.8594 0.7188 0.5000
vt 0.8594 0.7656 0.5000
vt 0.9063 0.7188 0.5000
vt 0.9063 0.7656 0.5000
vt 0.9531 0.7188 0.5000
vt 0.9531 0.7656 0.5000
vt 0.1406 0.2344 0.0000
vt 0.0938 0.0625 0.0000
vt 0.1406 0.0469 0.0000
vt 0.1875 0.2188 0.0000
vt 0.0938 0.2188 0.0000
vt 0.0625 0.0938 0.0000
vt 0.0625 0.1875 0.0000
vt 0.0469 0.1406 0.0000
vt 0.1875 0.0625 0.0000
vt 0.2188 0.1875 0.0000
vt 0.2188 0.0938 0.0000
vt 0.2344 0.1406 0.0000
# 38 texture coords

g Stage02
s 8
f 81/75/46 82/76/47 83/77/47 
f 83/77/47 84/78/46 81/75/46 
f 82/76/47 85/79/48 86/80/48 
f 86/80/48 83/77/47 82/76/47 
f 85/79/48 87/81/49 88/82/49 
f 88/82/49 86/80/48 85/79/48 
f 87/81/49 89/83/50 90/84/50 
f 90/84/50 88/82/49 87/81/49 
f 89/83/50 91/85/51 92/86/51 
f 92/86/51 90/84/50 89/83/50 
f 91/85/51 93/87/52 94/88/52 
f 94/88/52 92/86/51 91/85/51 
f 93/87/52 95/89/53 96/90/53 
f 96/90/53 94/88/52 93/87/52 
f 95/89/53 97/91/54 98/92/54 
f 98/92/54 96/90/53 95/89/53 
f 97/91/54 99/93/55 100/94/55 
f 100/94/55 98/92/54 97/91/54 
f 99/93/55 101/95/56 102/96/56 
f 102/96/56 100/94/55 99/93/55 
f 101/95/56 103/97/57 104/98/57 
f 104/98/57 102/96/56 101/95/56 
f 103/97/57 81/99/46 84/100/46 
f 84/100/46 104/98/57 103/97/57 
s off
f 88/101/58 98/102/58 100/103/58 
f 100/103/58 86/104/58 88/101/58 
f 90/105/58 96/106/58 98/102/58 
f 98/102/58 88/101/58 90/105/58 
f 92/107/58 94/108/58 96/106/58 
f 96/106/58 90/105/58 92/107/58 
f 86/104/58 100/103/58 102/109/58 
f 102/109/58 83/110/58 86/104/58 
f 83/110/58 102/109/58 104/111/58 
f 104/111/58 84/112/58 83/110/58 
# 34 faces

#
# object Stage03
#

v  0.7500 0.7250 -0.0000
v  0.6495 0.7250 -0.3750
v  0.6495 1.1250 -0.3750
v  0.7500 1.1250 -0.0000
v  0.3750 0.7250 -0.6495
v  0.3750 1.1250 -0.6495
v  -0.0000 0.7250 -0.7500
v  -0.0000 1.1250 -0.7500
v  -0.3750 0.7250 -0.6495
v  -0.3750 1.1250 -0.6495
v  -0.6495 0.7250 -0.3750
v  -0.6495 1.1250 -0.3750
v  -0.7500 0.7250 -0.0000
v  -0.7500 1.1250 -0.0000
v  -0.6495 0.7250 0.3750
v  -0.6495 1.1250 0.3750
v  -0.3750 0.7250 0.6495
v  -0.3750 1.1250 0.6495
v  -0.0000 0.7250 0.7500
v  -0.0000 1.1250 0.7500
v  0.3750 0.7250 0.6495
v  0.3750 1.1250 0.6495
v  0.6495 0.7250 0.3750
v  0.6495 1.1250 0.3750
# 24 vertices

vn 1.0000 0.0000 0.0000
vn 0.8660 0.0000 -0.5000
vn 0.5000 0.0000 -0.8660
vn -0.0000 0.0000 -1.0000
vn -0.5000 0.0000 -0.8660
vn -0.8660 0.0000 -0.5000
vn -1.0000 0.0000 -0.0000
vn -0.8660 0.0000 0.5000
vn -0.5000 0.0000 0.8660
vn -0.0000 0.0000 1.0000
vn 0.5000 0.0000 0.8660
vn 0.8660 0.0000 0.5000
vn 0.0000 1.0000 -0.0000
# 13 vertex normals

vt 0.3906 0.7656 0.5000
vt 0.4375 0.7656 0.5000
vt 0.4375 0.8125 0.5000
vt 0.3906 0.8125 0.5000
vt 0.4844 0.7656 0.5000
vt 0.4844 0.8125 0.5000
vt 0.5313 0.7656 0.5000
vt 0.5313 0.8125 0.5000
vt 0.5781 0.7656 0.5000
vt 0.5781 0.8125 0.5000
vt 0.6250 0.7656 0.5000
vt 0.6250 0.8125 0.5000
vt 0.6719 0.7656 0.5000
vt 0.6719 0.8125 0.5000
vt 0.7188 0.7656 0.5000
vt 0.7188 0.8125 0.5000
vt 0.7656 0.7656 0.5000
vt 0.7656 0.8125 0.5000
vt 0.8125 0.7656 0.5000
vt 0.8125 0.8125 0.5000
vt 0.8594 0.7656 0.5000
vt 0.8594 0.8125 0.5000
vt 0.9063 0.7656 0.5000
vt 0.9063 0.8125 0.5000
vt 0.9531 0.7656 0.5000
vt 0.9531 0.8125 0.5000
vt 0.1406 0.2344 0.0000
vt 0.0938 0.0625 0.0000
vt 0.1406 0.0469 0.0000
vt 0.1875 0.2188 0.0000
vt 0.0938 0.2188 0.0000
vt 0.0625 0.0938 0.0000
vt 0.0625 0.1875 0.0000
vt 0.0469 0.1406 0.0000
vt 0.1875 0.0625 0.0000
vt 0.2188 0.1875 0.0000
vt 0.2188 0.0938 0.0000
vt 0.2344 0.1406 0.0000
# 38 texture coords

g Stage03
s 8
f 105/113/59 106/114/60 107/115/60 
f 107/115/60 108/116/59 105/113/59 
f 106/114/60 109/117/61 110/118/61 
f 110/118/61 107/115/60 106/114/60 
f 109/117/61 111/119/62 112/120/62 
f 112/120/62 110/118/61 109/117/61 
f 111/119/62 113/121/63 114/122/63 
f 114/122/63 112/120/62 111/119/62 
f 113/121/63 115/123/64 116/124/64 
f 116/124/64 114/122/63 113/121/63 
f 115/123/64 117/125/65 118/126/65 
f 118/126/65 116/124/64 115/123/64 
f 117/125/65 119/127/66 120/128/66 
f 120/128/66 118/126/65 117/125/65 
f 119/127/66 121/129/67 122/130/67 
f 122/130/67 120/128/66 119/127/66 
f 121/129/67 123/131/68 124/132/68 
f 124/132/68 122/130/67 121/129/67 
f 123/131/68 125/133/69 126/134/69 
f 126/134/69 124/132/68 123/131/68 
f 125/133/69 127/135/70 128/136/70 
f 128/136/70 126/134/69 125/133/69 
f 127/135/70 105/137/59 108/138/59 
f 108/138/59 128/136/70 127/135/70 
s off
f 112/139/71 122/140/71 124/141/71 
f 124/141/71 110/142/71 112/139/71 
f 114/143/71 120/144/71 122/140/71 
f 122/140/71 112/139/71 114/143/71 
f 116/145/71 118/146/71 120/144/71 
f 120/144/71 114/143/71 116/145/71 
f 110/142/71 124/141/71 126/147/71 
f 126/147/71 107/148/71 110/142/71 
f 107/148/71 126/147/71 128/149/71 
f 128/149/71 108/150/71 107/148/71 
# 34 faces

#
# object Stage04
#

v  0.7500 1.1250 -0.0000
v  0.6495 1.1250 -0.3750
v  0.6495 1.5250 -0.3750
v  0.7500 1.5250 -0.0000
v  0.3750 1.1250 -0.6495
v  0.3750 1.5250 -0.6495
v  -0.0000 1.1250 -0.7500
v  -0.0000 1.5250 -0.7500
v  -0.3750 1.1250 -0.6495
v  -0.3750 1.5250 -0.6495
v  -0.6495 1.1250 -0.3750
v  -0.6495 1.5250 -0.3750
v  -0.7500 1.1250 -0.0000
v  -0.7500 1.5250 -0.0000
v  -0.6495 1.1250 0.3750
v  -0.6495 1.5250 0.3750
v  -0.3750 1.1250 0.6495
v  -0.3750 1.5250 0.6495
v  -0.0000 1.1250 0.7500
v  -0.0000 1.5250 0.7500
v  0.3750 1.1250 0.6495
v  0.3750 1.5250 0.6495
v  0.6495 1.1250 0.3750
v  0.6495 1.5250 0.3750
# 24 vertices

vn 1.0000 0.0000 0.0000
vn 0.8660 0.0000 -0.5000
vn 0.5000 0.0000 -0.8660
vn -0.0000 0.0000 -1.0000
vn -0.5000 0.0000 -0.8660
vn -0.8660 0.0000 -0.5000
vn -1.0000 0.0000 -0.0000
vn -0.8660 0.0000 0.5000
vn -0.5000 0.0000 0.8660
vn -0.0000 0.0000 1.0000
vn 0.5000 0.0000 0.8660
vn 0.8660 0.0000 0.5000
vn 0.0000 1.0000 -0.0000
# 13 vertex normals

vt 0.3906 0.8125 0.5000
vt 0.4375 0.8125 0.5000
vt 0.4375 0.8594 0.5000
vt 0.3906 0.8594 0.5000
vt 0.4844 0.8125 0.5000
vt 0.4844 0.8594 0.5000
vt 0.5313 0.8125 0.5000
vt 0.5313 0.8594 0.5000
vt 0.5781 0.8125 0.5000
vt 0.5781 0.8594 0.5000
vt 0.6250 0.8125 0.5000
vt 0.6250 0.8594 0.5000
vt 0.6719 0.8125 0.5000
vt 0.6719 0.8594 0.5000
vt 0.7188 0.8125 0.5000
vt 0.7188 0.8594 0.5000
vt 0.7656 0.8125 0.5000
vt 0.7656 0.8594 0.5000
vt 0.8125 0.8125 0.5000
vt 0.8125 0.8594 0.5000
vt 0.8594 0.8125 0.5000
vt 0.8594 0.8594 0.5000
vt 0.9063 0.8125 0.5000
vt 0.9063 0.8594 0.5000
vt 0.9531 0.8125 0.5000
vt 0.9531 0.8594 0.5000
vt 0.1406 0.2344 0.0000
vt 0.0938 0.0625 0.0000
vt 0.1406 0.0469 0.0000
vt 0.1875 0.2188 0.0000
vt 0.0938 0.2188 0.0000
vt 0.0625 0.0938 0.0000
vt 0.0625 0.1875 0.0000
vt 0.0469 0.1406 0.0000
vt 0.1875 0.0625 0.0000
vt 0.2188 0.1875 0.0000
vt 0.2188 0.0938 0.0000
vt 0.2344 0.1406 0.0000
# 38 texture coords

g Stage04
s 8
f 129/151/72 130/152/73 131/153/73 
f 131/153/73 132/154/72 129/151/72 
f 130/152/73 133/155/74 134/156/74 
f 134/156/74 131/153/73 130/152/73 
f 133/155/74 135/157/75 136/158/75 
f 136/158/75 134/156/74 133/155/74 
f 135/157/75 137/159/76 138/160/76 
f 138/160/76 136/158/75 135/157/75 
f 137/159/76 139/161/77 140/162/77 
f 140/162/77 138/160/76 137/159/76 
f 139/161/77 141/163/78 142/164/78 
f 142/164/78 140/162/77 139/161/77 
f 141/163/78 143/165/79 144/166/79 
f 144/166/79 142/164/78 141/163/78 
f 143/165/79 145/167/80 146/168/80 
f 146/168/80 144/166/79 143/165/79 
f 145/167/80 147/169/81 148/170/81 
f 148/170/81 146/168/80 145/167/80 
f 147/169/81 149/171/82 150/172/82 
f 150/172/82 148/170/81 147/169/81 
f 149/171/82 151/173/83 152/174/83 
f 152/174/83 150/172/82 149/171/82 
f 151/173/83 129/175/72 132/176/72 
f 132/176/72 152/174/83 151/173/83 
s off
f 136/177/84 146/178/84 148/179/84 
f 148/179/84 134/180/84 136/177/84 
f 138/181/84 144/182/84 146/178/84 
f 146/178/84 136/177/84 138/181/84 
f 140/183/84 142/184/84 144/182/84 
f 144/182/84 138/181/84 140/183/84 
f 134/180/84 148/179/84 150/185/84 
f 150/185/84 131/186/84 134/180/84 
f 131/186/84 150/185/84 152/187/84 
f 152/187/84 132/188/84 131/186/84 
# 34 faces

#
# object Stage05
#

v  0.7500 1.5250 -0.0000
v  0.6495 1.5250 -0.3750
v  0.6495 1.9250 -0.3750
v  0.7500 1.9250 -0.0000
v  0.3750 1.5250 -0.6495
v  0.3750 1.9250 -0.6495
v  -0.0000 1.5250 -0.7500
v  -0.0000 1.9250 -0.7500
v  -0.3750 1.5250 -0.6495
v  -0.3750 1.9250 -0.6495
v  -0.6495 1.5250 -0.3750
v  -0.6495 1.9250 -0.3750
v  -0.7500 1.5250 -0.0000
v  -0.7500 1.9250 -0.0000
v  -0.6495 1.5250 0.3750
v  -0.6495 1.9250 0.3750
v  -0.3750 1.5250 0.6495
v  -0.3750 1.9250 0.6495
v  -0.0000 1.5250 0.7500
v  -0.0000 1.9250 0.7500
v  0.3750 1.5250 0.6495
v  0.3750 1.9250 0.6495
v  0.6495 1.5250 0.3750
v  0.6495 1.9250 0.3750
# 24 vertices

vn 1.0000 0.0000 0.0000
vn 0.8660 0.0000 -0.5000
vn 0.5000 0.0000 -0.8660
vn -0.0000 0.0000 -1.0000
vn -0.5000 0.0000 -0.8660
vn -0.8660 0.0000 -0.5000
vn -1.0000 0.0000 -0.0000
vn -0.8660 0.0000 0.5000
vn -0.5000 0.0000 0.8660
vn -0.0000 0.0000 1.0000
vn 0.5000 0.0000 0.8660
vn 0.8660 0.0000 0.5000
vn 0.0000 1.0000 -0.0000
# 13 vertex normals

vt 0.3906 0.8594 0.5000
vt 0.4375 0.8594 0.5000
vt 0.4375 0.9063 0.5000
vt 0.3906 0.9063 0.5000
vt 0.4844 0.8594 0.5000
vt 0.4844 0.9063 0.5000
vt 0.5313 0.8594 0.5000
vt 0.5313 0.9063 0.5000
vt 0.5781 0.8594 0.5000
vt 0.5781 0.9063 0.5000
vt 0.6250 0.8594 0.5000
vt 0.6250 0.9063 0.5000
vt 0.6719 0.8594 0.5000
vt 0.6719 0.9063 0.5000
vt 0.7188 0.8594 0.5000
vt 0.7188 0.9063 0.5000
vt 0.7656 0.8594 0.5000
vt 0.7656 0.9063 0.5000
vt 0.8125 0.8594 0.5000
vt 0.8125 0.9063 0.5000
vt 0.8594 0.8594 0.5000
vt 0.8594 0.9063 0.5000
vt 0.9063 0.8594 0.5000
vt 0.9063 0.9063 0.5000
vt 0.9531 0.8594 0.5000
vt 0.9531 0.9063 0.5000
vt 0.1406 0.2344 0.0000
vt 0.0938 0.0625 0.0000
vt 0.1406 0.0469 0.0000
vt 0.1875 0.2188 0.0000
vt 0.0938 0.2188 0.0000
vt 0.0625 0.0938 0.0000
vt 0.0625 0.1875 0.0000
vt 0.0469 0.1406 0.0000
vt 0.1875 0.0625 0.0000
vt 0.2188 0.1875 0.0000
vt 0.2188 0.0938 0.0000
vt 0.2344 0.1406 0.0000
# 38 texture coords

g Stage05
s 8
f 153/189/85 154/190/86 155/191/86 
f 155/191/86 156/192/85 153/189/85 
f 154/190/86 157/193/87 158/194/87 
f 158/194/87 155/191/86 154/190/86 
f 157/193/87 159/195/88 160/196/88 
f 160/196/88 158/194/87 157/193/87 
f 159/195/88 161/197/89 162/198/89 
f 162/198/89 160/196/88 159/195/88 
f 161/197/89 163/199/90 164/200/90 
f 164/200/90 162/198/89 161/197/89 
f 163/199/90 165/201/91 166/202/91 
f 166/202/91 164/200/90 163/199/90 
f 165/201/91 167/203/92 168/204/92 
f 168/204/92 166/202/91 165/201/91 
f 167/203/92 169/205/93 170/206/93 
f 170/206/93 168/204/92 167/203/92 
f 169/205/93 171/207/94 172/208/94 
f 172/208/94 170/206/93 169/205/93 
f 171/207/94 173/209/95 174/210/95 
f 174/210/95 172/208/94 171/207/94 
f 173/209/95 175/211/96 176/212/96 
f 176/212/96 174/210/95 173/209/95 
f 175/211/96 153/213/85 156/214/85 
f 156/214/85 176/212/96 175/211/96 
s off
f 160/215/97 170/216/97 172/217/97 
f 172/217/97 158/218/97 160/215/97 
f 162/219/97 168/220/97 170/216/97 
f 170/216/97 160/215/97 162/219/97 
f 164/221/97 166/222/97 168/220/97 
f 168/220/97 162/219/97 164/221/97 
f 158/218/97 172/217/97 174/223/97 
f 174/223/97 155/224/97 158/218/97 
f 155/224/97 174/223/97 176/225/97 
f 176/225/97 156/226/97 155/224/97 
# 34 faces

